SplineFontDB: 3.0
FontName: OpenDyslexic-Italic
FullName: OpenDyslexic Italic
FamilyName: OpenDyslexic
Weight: Book
Copyright: Attribution-NonCommercial-ShareAlike 3.0 Unported (CC BY-NC-SA 3.0)
Version: 0.600
ItalicAngle: -12
UnderlinePosition: -142
UnderlineWidth: 143
Ascent: 1638
Descent: 410
sfntRevision: 0x00009999
LayerCount: 2
Layer: 0 1 "Back"  1
Layer: 1 1 "Fore"  0
XUID: [1021 306 1845811580 13105590]
FSType: 0
OS2Version: 3
OS2_WeightWidthSlopeOnly: 0
OS2_UseTypoMetrics: 1
CreationTime: 1328424900
ModificationTime: 1332742744
PfmFamily: 17
TTFWeight: 400
TTFWidth: 5
LineGap: 54
VLineGap: 0
Panose: 2 0 5 6 0 0 0 9 0 4
OS2TypoAscent: -91
OS2TypoAOffset: 1
OS2TypoDescent: -6
OS2TypoDOffset: 1
OS2TypoLinegap: 106
OS2WinAscent: -12
OS2WinAOffset: 1
OS2WinDescent: 0
OS2WinDOffset: 1
HheadAscent: -12
HheadAOffset: 1
HheadDescent: 0
HheadDOffset: 1
OS2SubXSize: 1351
OS2SubYSize: 1228
OS2SubXOff: 0
OS2SubYOff: -446
OS2SupXSize: 1351
OS2SupYSize: 1228
OS2SupXOff: 0
OS2SupYOff: 595
OS2StrikeYSize: 102
OS2StrikeYPos: 512
OS2FamilyClass: 2050
OS2Vendor: '    '
OS2CodePages: 00000001.00000000
OS2UnicodeRanges: 800000af.4000204a.00000000.00000000
Lookup: 258 0 0 "'kern' Horizontal Kerning in Latin lookup 0"  {"'kern' Horizontal Kerning in Latin lookup 0 subtable"  } ['kern' ('latn' <'dflt' > ) ]
DEI: 91125
TtTable: prep
PUSHW_1
 0
CALL
SVTCA[y-axis]
PUSHW_3
 1
 4
 7
CALL
PUSHW_1
 0
DUP
RCVT
RDTG
ROUND[Black]
RTG
WCVTP
EndTTInstrs
TtTable: fpgm
PUSHW_1
 0
FDEF
MPPEM
PUSHW_1
 8
LT
IF
PUSHB_2
 1
 1
INSTCTRL
EIF
PUSHW_1
 511
SCANCTRL
PUSHW_1
 68
SCVTCI
PUSHW_2
 8
 3
SDS
SDB
ENDF
PUSHW_1
 1
FDEF
DUP
DUP
RCVT
ROUND[Black]
WCVTP
PUSHB_1
 1
ADD
ENDF
PUSHW_1
 2
FDEF
PUSHW_1
 1
LOOPCALL
POP
ENDF
PUSHW_1
 3
FDEF
DUP
GC[cur]
PUSHB_1
 3
CINDEX
GC[cur]
GT
IF
SWAP
EIF
DUP
ROLL
DUP
ROLL
MD[grid]
ABS
ROLL
DUP
GC[cur]
DUP
ROUND[Grey]
SUB
ABS
PUSHB_1
 4
CINDEX
GC[cur]
DUP
ROUND[Grey]
SUB
ABS
GT
IF
SWAP
NEG
ROLL
EIF
MDAP[rnd]
DUP
PUSHB_1
 0
GTEQ
IF
ROUND[Black]
DUP
PUSHB_1
 0
EQ
IF
POP

StartChar: .notdef
Encoding: 65536 -1 0
Width: 1298
Flags: W
LayerCount: 2
Fore
SplineSet
69 -352 m 1,0,1
 140 96 140 96 178.5 541 c 128,-1,2
 217 986 217 986 225 1434 c 1,3,4
 346 1415 346 1415 467 1406 c 128,-1,5
 588 1397 588 1397 713 1397 c 0,6,7
 843 1397 843 1397 971 1406.5 c 128,-1,8
 1099 1416 1099 1416 1229 1434 c 1,9,10
 1157 986 1157 986 1117 541 c 128,-1,11
 1077 96 1077 96 1073 -352 c 1,12,13
 949 -335 949 -335 825 -326.5 c 128,-1,14
 701 -318 701 -318 574 -318 c 256,15,16
 447 -318 447 -318 321.5 -326.5 c 128,-1,17
 196 -335 196 -335 69 -352 c 1,0,1
201 -69 m 1,18,19
 400 -54 400 -54 600 -54 c 0,20,21
 793 -54 793 -54 987 -69 c 1,22,23
 1004 282 1004 282 1036.5 628.5 c 128,-1,24
 1069 975 1069 975 1120 1326 c 1,25,26
 911 1305 911 1305 705 1305 c 0,27,28
 606 1305 606 1305 509 1309.5 c 128,-1,29
 412 1314 412 1314 315 1325 c 1,30,31
 289 628 289 628 201 -69 c 1,18,19
EndSplineSet
Validated: 1
EndChar

StartChar: exclam
Encoding: 33 33 4
Width: 629
Flags: W
LayerCount: 2
Fore
SplineSet
229 253 m 1,0,1
 279 264 279 264 325 264 c 0,2,3
 370 264 370 264 417 253 c 1,4,-1
 417 219 l 2,5,6
 417 168 417 168 418 117 c 128,-1,7
 419 66 419 66 420 14 c 1,8,9
 367 38 367 38 305 38 c 256,10,11
 243 38 243 38 186 14 c 1,12,13
 197 74 197 74 207.5 133.5 c 128,-1,14
 218 193 218 193 229 253 c 1,0,1
342 1466 m 1,15,16
 381 1454 381 1454 424 1454 c 0,17,18
 447 1454 447 1454 470.5 1457 c 128,-1,19
 494 1460 494 1460 517 1468 c 1,20,21
 502 1309 502 1309 490 1152 c 128,-1,22
 478 995 478 995 466 836 c 1,23,24
 466 761 466 761 465 688 c 128,-1,25
 464 615 464 615 464 541 c 2,26,-1
 464 492 l 1,27,28
 407 501 407 501 348 501 c 0,29,30
 287 501 287 501 226 492 c 1,31,32
 262 736 262 736 289 978.5 c 128,-1,33
 316 1221 316 1221 342 1466 c 1,15,16
EndSplineSet
Validated: 1
EndChar

StartChar: quotedbl
Encoding: 34 34 5
Width: 1133
Flags: W
LayerCount: 2
Fore
SplineSet
483 1474 m 1,0,1
 481 1337 481 1337 473 1200.5 c 128,-1,2
 465 1064 465 1064 448 926 c 1,3,4
 402 924 402 924 356.5 922 c 128,-1,5
 311 920 311 920 266 916 c 1,6,7
 297 1047 297 1047 311.5 1179.5 c 128,-1,8
 326 1312 326 1312 326 1445 c 2,9,-1
 326 1483 l 1,10,11
 366 1479 366 1479 405 1477.5 c 128,-1,12
 444 1476 444 1476 483 1474 c 1,0,1
886 1483 m 1,13,14
 865 1377 865 1377 854 1270 c 128,-1,15
 843 1163 843 1163 843 1056 c 0,16,17
 843 1021 843 1021 844 986 c 128,-1,18
 845 951 845 951 848 916 c 1,19,20
 803 920 803 920 758 922 c 128,-1,21
 713 924 713 924 668 926 c 1,22,23
 674 1064 674 1064 688.5 1200.5 c 128,-1,24
 703 1337 703 1337 726 1475 c 1,25,26
 766 1475 766 1475 806 1478 c 128,-1,27
 846 1481 846 1481 886 1483 c 1,13,14
EndSplineSet
Validated: 1
EndChar

StartChar: numbersign
Encoding: 35 35 6
Width: 1516
Flags: W
LayerCount: 2
Fore
SplineSet
942 903 m 1,0,1
 868 903 868 903 795 903 c 128,-1,2
 722 903 722 903 647 902 c 1,3,4
 619 817 619 817 591 732 c 128,-1,5
 563 647 563 647 534 562 c 1,6,7
 594 562 594 562 652.5 562.5 c 128,-1,8
 711 563 711 563 771 563 c 2,9,-1
 830 563 l 1,10,11
 857 649 857 649 885.5 733.5 c 128,-1,12
 914 818 914 818 942 903 c 1,0,1
825 1431 m 1,13,14
 790 1331 790 1331 755.5 1231.5 c 128,-1,15
 721 1132 721 1132 689 1031 c 1,16,17
 764 1031 764 1031 837.5 1031 c 128,-1,18
 911 1031 911 1031 986 1032 c 1,19,20
 1022 1135 1022 1135 1060 1235.5 c 128,-1,21
 1098 1336 1098 1336 1140 1437 c 1,22,23
 1175 1439 1175 1439 1210 1440.5 c 128,-1,24
 1245 1442 1245 1442 1280 1444 c 1,25,26
 1237 1342 1237 1342 1196.5 1240 c 128,-1,27
 1156 1138 1156 1138 1120 1034 c 1,28,29
 1270 1037 1270 1037 1419 1043 c 1,30,31
 1414 1010 1414 1010 1410 976.5 c 128,-1,32
 1406 943 1406 943 1401 910 c 1,33,34
 1319 908 1319 908 1237 907 c 128,-1,35
 1155 906 1155 906 1073 905 c 1,36,37
 1016 734 1016 734 962 563 c 1,38,39
 1037 562 1037 562 1112 561 c 128,-1,40
 1187 560 1187 560 1262 559 c 1,41,42
 1260 527 1260 527 1258 494 c 128,-1,43
 1256 461 1256 461 1254 429 c 1,44,45
 1169 431 1169 431 1086.5 432 c 128,-1,46
 1004 433 1004 433 920 435 c 1,47,48
 889 334 889 334 856.5 235.5 c 128,-1,49
 824 137 824 137 795 36 c 1,50,51
 778 37 778 37 760.5 37 c 128,-1,52
 743 37 743 37 725 37 c 2,53,-1
 656 37 l 1,54,55
 688 137 688 137 721.5 236.5 c 128,-1,56
 755 336 755 336 787 436 c 1,57,58
 712 436 712 436 638 436 c 128,-1,59
 564 436 564 436 489 434 c 1,60,61
 454 331 454 331 416 231.5 c 128,-1,62
 378 132 378 132 339 31 c 1,63,64
 304 29 304 29 269 28 c 128,-1,65
 234 27 234 27 199 25 c 1,66,67
 242 126 242 126 281 228 c 128,-1,68
 320 330 320 330 356 433 c 1,69,70
 281 431 281 431 206.5 429 c 128,-1,71
 132 427 132 427 57 425 c 1,72,73
 62 458 62 458 65 491 c 128,-1,74
 68 524 68 524 73 557 c 1,75,76
 155 559 155 559 236.5 559 c 128,-1,77
 318 559 318 559 401 561 c 1,78,79
 430 647 430 647 458.5 732.5 c 128,-1,80
 487 818 487 818 515 904 c 1,81,82
 438 904 438 904 362.5 905 c 128,-1,83
 287 906 287 906 210 908 c 1,84,85
 212 941 212 941 214 973.5 c 128,-1,86
 216 1006 216 1006 217 1039 c 1,87,88
 302 1035 302 1035 387 1034 c 128,-1,89
 472 1033 472 1033 557 1032 c 1,90,91
 588 1132 588 1132 620 1231.5 c 128,-1,92
 652 1331 652 1331 684 1431 c 1,93,-1
 825 1431 l 1,13,14
EndSplineSet
Validated: 1
EndChar

StartChar: dollar
Encoding: 36 36 7
Width: 1069
Flags: W
LayerCount: 2
Fore
SplineSet
549 -250 m 1,0,1
 509 -248 509 -248 469.5 -247.5 c 128,-1,2
 430 -247 430 -247 390 -247 c 1,3,4
 403 -174 403 -174 415.5 -102 c 128,-1,5
 428 -30 428 -30 440 43 c 1,6,7
 340 46 340 46 243.5 62.5 c 128,-1,8
 147 79 147 79 57 116 c 1,9,10
 64 170 64 170 71.5 223.5 c 128,-1,11
 79 277 79 277 84 331 c 1,12,13
 166 276 166 276 262 248 c 128,-1,14
 358 220 358 220 461 218 c 1,15,16
 471 318 471 318 481.5 416 c 128,-1,17
 492 514 492 514 502 614 c 1,18,19
 464 621 464 621 426 631 c 128,-1,20
 388 641 388 641 352 655.5 c 128,-1,21
 316 670 316 670 283.5 690 c 128,-1,22
 251 710 251 710 224 738 c 0,23,24
 181 783 181 783 165.5 845 c 128,-1,25
 150 907 150 907 150 970 c 1,26,27
 152 1009 152 1009 164.5 1048 c 128,-1,28
 177 1087 177 1087 198.5 1121.5 c 128,-1,29
 220 1156 220 1156 250 1184 c 128,-1,30
 280 1212 280 1212 318 1230 c 0,31,32
 389 1263 389 1263 453.5 1274.5 c 128,-1,33
 518 1286 518 1286 581 1290 c 1,34,35
 587 1347 587 1347 593.5 1404.5 c 128,-1,36
 600 1462 600 1462 605 1519 c 1,37,38
 625 1519 625 1519 645 1518 c 128,-1,39
 665 1517 665 1517 685 1517 c 1,40,-1
 660 1292 l 1,41,42
 745 1289 745 1289 828 1279.5 c 128,-1,43
 911 1270 911 1270 992 1248 c 1,44,45
 987 1215 987 1215 982.5 1182 c 128,-1,46
 978 1149 978 1149 973 1116 c 1,47,48
 899 1154 899 1154 816 1170.5 c 128,-1,49
 733 1187 733 1187 648 1191 c 1,50,51
 635 1074 635 1074 623 958 c 128,-1,52
 611 842 611 842 599 725 c 1,53,54
 638 717 638 717 678.5 708.5 c 128,-1,55
 719 700 719 700 758 687 c 128,-1,56
 797 674 797 674 833 656 c 128,-1,57
 869 638 869 638 899 611 c 0,58,59
 943 571 943 571 960.5 512 c 128,-1,60
 978 453 978 453 978 393 c 0,61,62
 978 358 978 358 969.5 321.5 c 128,-1,63
 961 285 961 285 944.5 251 c 128,-1,64
 928 217 928 217 905 186.5 c 128,-1,65
 882 156 882 156 853 134 c 1,66,67
 787 87 787 87 710 66.5 c 128,-1,68
 633 46 633 46 556 42 c 1,69,70
 554 -31 554 -31 552 -104 c 128,-1,71
 550 -177 550 -177 549 -250 c 1,0,1
509 743 m 1,72,73
 520 855 520 855 532 964.5 c 128,-1,74
 544 1074 544 1074 555 1185 c 1,75,76
 500 1179 500 1179 444.5 1164.5 c 128,-1,77
 389 1150 389 1150 344 1113 c 0,78,79
 303 1080 303 1080 283 1035.5 c 128,-1,80
 263 991 263 991 263 941 c 0,81,82
 263 895 263 895 283.5 858.5 c 128,-1,83
 304 822 304 822 337.5 796 c 128,-1,84
 371 770 371 770 412.5 754 c 128,-1,85
 454 738 454 738 496 734 c 1,86,-1
 509 743 l 1,72,73
578 579 m 1,87,88
 571 486 571 486 566.5 394.5 c 128,-1,89
 562 303 562 303 556 210 c 1,90,91
 601 217 601 217 645.5 226 c 128,-1,92
 690 235 690 235 733 251 c 1,93,94
 757 258 757 258 772.5 274 c 128,-1,95
 788 290 788 290 796.5 310 c 128,-1,96
 805 330 805 330 808.5 352 c 128,-1,97
 812 374 812 374 812 394 c 0,98,99
 812 437 812 437 792 470.5 c 128,-1,100
 772 504 772 504 740 528.5 c 128,-1,101
 708 553 708 553 668.5 567.5 c 128,-1,102
 629 582 629 582 590 588 c 1,103,-1
 578 579 l 1,87,88
EndSplineSet
Validated: 1
EndChar

StartChar: percent
Encoding: 37 37 8
Width: 2030
Flags: W
LayerCount: 2
Fore
SplineSet
1405 669 m 0,0,1
 1346 669 1346 669 1306.5 639.5 c 128,-1,2
 1267 610 1267 610 1243.5 565.5 c 128,-1,3
 1220 521 1220 521 1210 469 c 128,-1,4
 1200 417 1200 417 1200 372 c 0,5,6
 1200 328 1200 328 1211.5 286.5 c 128,-1,7
 1223 245 1223 245 1246.5 213 c 128,-1,8
 1270 181 1270 181 1306 162 c 128,-1,9
 1342 143 1342 143 1391 143 c 0,10,11
 1448 143 1448 143 1483 174 c 128,-1,12
 1518 205 1518 205 1538 250 c 128,-1,13
 1558 295 1558 295 1565 345.5 c 128,-1,14
 1572 396 1572 396 1572 435 c 0,15,16
 1572 475 1572 475 1563.5 517 c 128,-1,17
 1555 559 1555 559 1535 592.5 c 128,-1,18
 1515 626 1515 626 1483 647.5 c 128,-1,19
 1451 669 1451 669 1405 669 c 0,0,1
1414 774 m 0,20,21
 1479 774 1479 774 1538 748.5 c 128,-1,22
 1597 723 1597 723 1632 670 c 1,23,24
 1674 613 1674 613 1688 542 c 128,-1,25
 1702 471 1702 471 1702 398 c 0,26,27
 1702 360 1702 360 1698.5 320 c 128,-1,28
 1695 280 1695 280 1686 240 c 128,-1,29
 1677 200 1677 200 1660 162.5 c 128,-1,30
 1643 125 1643 125 1616 93 c 1,31,32
 1597 67 1597 67 1571.5 49 c 128,-1,33
 1546 31 1546 31 1517.5 20 c 128,-1,34
 1489 9 1489 9 1459 4 c 128,-1,35
 1429 -1 1429 -1 1400 -1 c 0,36,37
 1363 -1 1363 -1 1326 5.5 c 128,-1,38
 1289 12 1289 12 1255.5 25.5 c 128,-1,39
 1222 39 1222 39 1192 60 c 128,-1,40
 1162 81 1162 81 1140 110 c 1,41,42
 1099 158 1099 158 1082.5 220 c 128,-1,43
 1066 282 1066 282 1066 348 c 0,44,45
 1066 390 1066 390 1071.5 433 c 128,-1,46
 1077 476 1077 476 1090 517.5 c 128,-1,47
 1103 559 1103 559 1124 598 c 128,-1,48
 1145 637 1145 637 1176 671 c 1,49,-1
 1176 670 l 1,50,51
 1223 723 1223 723 1285.5 748.5 c 128,-1,52
 1348 774 1348 774 1414 774 c 0,20,21
477 1385 m 1,53,-1
 466 1385 l 2,54,55
 417 1385 417 1385 382.5 1359.5 c 128,-1,56
 348 1334 348 1334 326 1295.5 c 128,-1,57
 304 1257 304 1257 293.5 1211 c 128,-1,58
 283 1165 283 1165 283 1124 c 2,59,-1
 283 1113 l 1,60,61
 282 1106 282 1106 282 1099.5 c 128,-1,62
 282 1093 282 1093 282 1086 c 0,63,64
 282 1043 282 1043 290 998 c 128,-1,65
 298 953 298 953 318 916.5 c 128,-1,66
 338 880 338 880 371 856.5 c 128,-1,67
 404 833 404 833 455 833 c 0,68,69
 495 833 495 833 525 848.5 c 128,-1,70
 555 864 555 864 577.5 889.5 c 128,-1,71
 600 915 600 915 615 947.5 c 128,-1,72
 630 980 630 980 639 1014.5 c 128,-1,73
 648 1049 648 1049 652 1083 c 128,-1,74
 656 1117 656 1117 656 1144 c 0,75,76
 656 1186 656 1186 645.5 1228 c 128,-1,77
 635 1270 635 1270 613 1304.5 c 128,-1,78
 591 1339 591 1339 557 1361 c 128,-1,79
 523 1383 523 1383 477 1385 c 1,53,-1
1398 1486 m 1,80,81
 1433 1488 1433 1488 1466.5 1489 c 128,-1,82
 1500 1490 1500 1490 1535 1492 c 1,83,84
 1393 1312 1393 1312 1261 1125 c 128,-1,85
 1129 938 1129 938 1000 749.5 c 128,-1,86
 871 561 871 561 740.5 373 c 128,-1,87
 610 185 610 185 471 4 c 1,88,89
 436 3 436 3 402 2 c 128,-1,90
 368 1 368 1 333 -1 c 1,91,92
 474 179 474 179 605.5 366.5 c 128,-1,93
 737 554 737 554 866 742.5 c 128,-1,94
 995 931 995 931 1126 1118 c 128,-1,95
 1257 1305 1257 1305 1398 1486 c 1,80,81
477 1490 m 0,96,97
 548 1488 548 1488 610 1460 c 128,-1,98
 672 1432 672 1432 716 1378 c 0,99,100
 756 1329 756 1329 772.5 1267 c 128,-1,101
 789 1205 789 1205 789 1139 c 0,102,103
 789 1098 789 1098 783 1055 c 128,-1,104
 777 1012 777 1012 764 970.5 c 128,-1,105
 751 929 751 929 730 890 c 128,-1,106
 709 851 709 851 679 818 c 0,107,108
 634 769 634 769 574 743 c 128,-1,109
 514 717 514 717 451 717 c 0,110,111
 417 717 417 717 384 722.5 c 128,-1,112
 351 728 351 728 321 740.5 c 128,-1,113
 291 753 291 753 266 773 c 128,-1,114
 241 793 241 793 222 821 c 0,115,116
 182 880 182 880 168 951.5 c 128,-1,117
 154 1023 154 1023 154 1095 c 0,118,119
 154 1133 154 1133 157.5 1173 c 128,-1,120
 161 1213 161 1213 170.5 1252.5 c 128,-1,121
 180 1292 180 1292 196.5 1329 c 128,-1,122
 213 1366 213 1366 239 1398 c 0,123,124
 279 1446 279 1446 337 1468 c 128,-1,125
 395 1490 395 1490 454 1491 c 0,126,127
 460 1491 460 1491 465.5 1490.5 c 128,-1,128
 471 1490 471 1490 477 1490 c 0,96,97
EndSplineSet
Validated: 1
EndChar

StartChar: ampersand
Encoding: 38 38 9
Width: 1620
Flags: W
LayerCount: 2
Fore
SplineSet
495 852 m 1,0,1
 450 815 450 815 411.5 772.5 c 128,-1,2
 373 730 373 730 345 681.5 c 128,-1,3
 317 633 317 633 301 579 c 128,-1,4
 285 525 285 525 285 466 c 0,5,6
 285 392 285 392 312 338 c 128,-1,7
 339 284 339 284 384.5 248.5 c 128,-1,8
 430 213 430 213 489.5 195.5 c 128,-1,9
 549 178 549 178 615 178 c 0,10,11
 709 178 709 178 800.5 213 c 128,-1,12
 892 248 892 248 967 311 c 1,13,14
 847 446 847 446 730 581 c 128,-1,15
 613 716 613 716 495 852 c 1,0,1
608 939 m 0,16,17
 729 807 729 807 847.5 675 c 128,-1,18
 966 543 966 543 1087 411 c 1,19,20
 1119 454 1119 454 1141 499.5 c 128,-1,21
 1163 545 1163 545 1178 593 c 128,-1,22
 1193 641 1193 641 1203 690 c 128,-1,23
 1213 739 1213 739 1220 790 c 1,24,25
 1258 790 1258 790 1297 790 c 128,-1,26
 1336 790 1336 790 1375 791 c 1,27,28
 1364 729 1364 729 1351 668 c 128,-1,29
 1338 607 1338 607 1323 546 c 0,30,31
 1306 478 1306 478 1273.5 415.5 c 128,-1,32
 1241 353 1241 353 1198 296 c 1,33,34
 1263 223 1263 223 1328 152.5 c 128,-1,35
 1393 82 1393 82 1457 10 c 1,36,37
 1402 15 1402 15 1346.5 19 c 128,-1,38
 1291 23 1291 23 1235 26 c 1,39,40
 1200 64 1200 64 1164.5 102.5 c 128,-1,41
 1129 141 1129 141 1094 180 c 1,42,43
 987 92 987 92 862.5 50.5 c 128,-1,44
 738 9 738 9 605 9 c 0,45,46
 557 9 557 9 509.5 15 c 128,-1,47
 462 21 462 21 417.5 34.5 c 128,-1,48
 373 48 373 48 333 70.5 c 128,-1,49
 293 93 293 93 260 126 c 0,50,51
 209 178 209 178 185.5 247.5 c 128,-1,52
 162 317 162 317 162 392 c 0,53,54
 162 471 162 471 184.5 544.5 c 128,-1,55
 207 618 207 618 247 683.5 c 128,-1,56
 287 749 287 749 342 804.5 c 128,-1,57
 397 860 397 860 462 905 c 1,58,59
 429 958 429 958 404.5 1016.5 c 128,-1,60
 380 1075 380 1075 380 1141 c 0,61,62
 380 1175 380 1175 387 1210 c 128,-1,63
 394 1245 394 1245 408 1278.5 c 128,-1,64
 422 1312 422 1312 443 1341.5 c 128,-1,65
 464 1371 464 1371 493 1394 c 0,66,67
 556 1445 556 1445 632 1463 c 128,-1,68
 708 1481 708 1481 784 1481 c 0,69,70
 866 1481 866 1481 944.5 1463 c 128,-1,71
 1023 1445 1023 1445 1096 1416 c 1,72,73
 1077 1386 1077 1386 1058.5 1356 c 128,-1,74
 1040 1326 1040 1326 1022 1296 c 1,75,76
 952 1333 952 1333 876.5 1359.5 c 128,-1,77
 801 1386 801 1386 716 1386 c 0,78,79
 669 1386 669 1386 626 1372 c 128,-1,80
 583 1358 583 1358 550 1331.5 c 128,-1,81
 517 1305 517 1305 497 1266 c 128,-1,82
 477 1227 477 1227 477 1176 c 0,83,84
 477 1141 477 1141 489 1109.5 c 128,-1,85
 501 1078 501 1078 520 1048.5 c 128,-1,86
 539 1019 539 1019 562.5 991.5 c 128,-1,87
 586 964 586 964 608 939 c 0,16,17
EndSplineSet
Validated: 1
EndChar

StartChar: quotesingle
Encoding: 39 39 10
Width: 713
Flags: W
LayerCount: 2
Fore
SplineSet
471 1484 m 1,0,1
 454 1349 454 1349 442.5 1216 c 128,-1,2
 431 1083 431 1083 424 948 c 1,3,4
 407 953 407 953 389.5 955.5 c 128,-1,5
 372 958 372 958 354 958 c 0,6,7
 334 958 334 958 314 955.5 c 128,-1,8
 294 953 294 953 274 948 c 1,9,10
 291 1083 291 1083 302.5 1216 c 128,-1,11
 314 1349 314 1349 321 1484 c 1,12,13
 353 1473 353 1473 393 1473 c 0,14,15
 432 1473 432 1473 471 1484 c 1,0,1
EndSplineSet
Validated: 1
EndChar

StartChar: parenleft
Encoding: 40 40 11
Width: 668
Flags: W
LayerCount: 2
Fore
SplineSet
669 1538 m 1,0,1
 599 1438 599 1438 533 1333.5 c 128,-1,2
 467 1229 467 1229 413 1119.5 c 128,-1,3
 359 1010 359 1010 321.5 895 c 128,-1,4
 284 780 284 780 271 660 c 1,5,6
 269 607 269 607 267.5 554.5 c 128,-1,7
 266 502 266 502 266 450 c 0,8,9
 266 390 266 390 268.5 332.5 c 128,-1,10
 271 275 271 275 275 216 c 0,11,12
 283 98 283 98 310 -13 c 128,-1,13
 337 -124 337 -124 378 -231 c 1,14,15
 332 -223 332 -223 286 -219 c 128,-1,16
 240 -215 240 -215 192 -214 c 1,17,18
 138 -56 138 -56 115 110.5 c 128,-1,19
 92 277 92 277 92 448 c 0,20,21
 92 562 92 562 101 678 c 1,22,23
 119 795 119 795 159.5 907 c 128,-1,24
 200 1019 200 1019 257 1125 c 128,-1,25
 314 1231 314 1231 384 1330.5 c 128,-1,26
 454 1430 454 1430 532 1522 c 1,27,28
 567 1522 567 1522 600.5 1527 c 128,-1,29
 634 1532 634 1532 669 1538 c 1,0,1
EndSplineSet
Validated: 1
EndChar

StartChar: parenright
Encoding: 41 41 12
Width: 670
Flags: W
LayerCount: 2
Fore
SplineSet
324 1547 m 1,0,1
 362 1539 362 1539 400.5 1534.5 c 128,-1,2
 439 1530 439 1530 478 1528 c 1,3,4
 548 1371 548 1371 577.5 1205 c 128,-1,5
 607 1039 607 1039 607 855 c 0,6,7
 607 770 607 770 601 687.5 c 128,-1,8
 595 605 595 605 580.5 525 c 128,-1,9
 566 445 566 445 541 366.5 c 128,-1,10
 516 288 516 288 477 212 c 0,11,12
 423 105 423 105 363 2 c 128,-1,13
 303 -101 303 -101 237 -201 c 1,14,15
 186 -201 186 -201 134 -205.5 c 128,-1,16
 82 -210 82 -210 31 -221 c 1,17,18
 102 -121 102 -121 167.5 -16.5 c 128,-1,19
 233 88 233 88 286.5 197.5 c 128,-1,20
 340 307 340 307 379.5 421.5 c 128,-1,21
 419 536 419 536 437 655 c 1,22,23
 443 721 443 721 445.5 786 c 128,-1,24
 448 851 448 851 448 917 c 0,25,26
 448 1092 448 1092 421.5 1249.5 c 128,-1,27
 395 1407 395 1407 335 1560 c 1,28,-1
 328 1551 l 1,29,-1
 324 1547 l 1,0,1
EndSplineSet
Validated: 5
EndChar

StartChar: asterisk
Encoding: 42 42 13
Width: 985
Flags: W
LayerCount: 2
Fore
SplineSet
904 1250 m 1,0,1
 813 1199 813 1199 722 1150 c 128,-1,2
 631 1101 631 1101 540 1052 c 1,3,4
 624 1003 624 1003 706 954.5 c 128,-1,5
 788 906 788 906 869 854 c 1,6,7
 858 834 858 834 846 815 c 128,-1,8
 834 796 834 796 821 777 c 1,9,10
 744 829 744 829 667 880.5 c 128,-1,11
 590 932 590 932 512 983 c 1,12,13
 504 890 504 890 496 798 c 128,-1,14
 488 706 488 706 483 613 c 1,15,-1
 389 613 l 1,16,17
 397 706 397 706 406 798 c 128,-1,18
 415 890 415 890 423 983 c 1,19,20
 335 932 335 932 249.5 880 c 128,-1,21
 164 828 164 828 76 777 c 1,22,23
 68 796 68 796 60 815.5 c 128,-1,24
 52 835 52 835 43 854 c 1,25,26
 134 906 134 906 224.5 954.5 c 128,-1,27
 315 1003 315 1003 408 1052 c 1,28,29
 240 1146 240 1146 78 1250 c 1,30,31
 91 1269 91 1269 101 1289 c 128,-1,32
 111 1309 111 1309 125 1328 c 1,33,34
 201 1274 201 1274 279.5 1223.5 c 128,-1,35
 358 1173 358 1173 436 1122 c 1,36,37
 444 1215 444 1215 451 1307 c 128,-1,38
 458 1399 458 1399 466 1492 c 1,39,-1
 560 1492 l 1,40,41
 550 1399 550 1399 541 1307 c 128,-1,42
 532 1215 532 1215 524 1122 c 1,43,44
 612 1173 612 1173 698 1224.5 c 128,-1,45
 784 1276 784 1276 871 1329 c 1,46,47
 879 1309 879 1309 887 1289.5 c 128,-1,48
 895 1270 895 1270 904 1250 c 1,0,1
EndSplineSet
Validated: 1
EndChar

StartChar: plus
Encoding: 43 43 14
Width: 1286
Flags: W
LayerCount: 2
Fore
SplineSet
728 1248 m 1,0,1
 712 1114 712 1114 699.5 980.5 c 128,-1,2
 687 847 687 847 675 712 c 1,3,4
 806 712 806 712 935.5 713 c 128,-1,5
 1065 714 1065 714 1196 716 c 1,6,-1
 1183 567 l 1,7,8
 1052 569 1052 569 922.5 569 c 128,-1,9
 793 569 793 569 662 569 c 1,10,11
 651 435 651 435 640 301.5 c 128,-1,12
 629 168 629 168 621 34 c 1,13,-1
 473 34 l 1,14,15
 486 168 486 168 499 301.5 c 128,-1,16
 512 435 512 435 523 569 c 1,17,18
 392 569 392 569 262.5 568 c 128,-1,19
 133 567 133 567 2 567 c 1,20,-1
 15 717 l 1,21,22
 146 714 146 714 275.5 713.5 c 128,-1,23
 405 713 405 713 536 713 c 1,24,25
 548 848 548 848 558.5 981 c 128,-1,26
 569 1114 569 1114 580 1248 c 1,27,-1
 728 1248 l 1,0,1
EndSplineSet
Validated: 1
EndChar

StartChar: comma
Encoding: 44 44 15
Width: 543
Flags: W
LayerCount: 2
Fore
SplineSet
246 225 m 1,0,1
 261 224 261 224 276 224 c 128,-1,2
 291 224 291 224 307 224 c 0,3,4
 350 224 350 224 392.5 226.5 c 128,-1,5
 435 229 435 229 479 234 c 1,6,7
 470 184 470 184 463 134.5 c 128,-1,8
 456 85 456 85 451 35 c 1,9,10
 393 -42 393 -42 335.5 -118.5 c 128,-1,11
 278 -195 278 -195 215 -269 c 1,12,13
 188 -271 188 -271 161 -272.5 c 128,-1,14
 134 -274 134 -274 106 -278 c 1,15,16
 141 -203 141 -203 171.5 -126.5 c 128,-1,17
 202 -50 202 -50 233 27 c 1,18,19
 237 77 237 77 240 126 c 128,-1,20
 243 175 243 175 246 225 c 1,0,1
EndSplineSet
Validated: 1
EndChar

StartChar: hyphen
Encoding: 45 45 16
Width: 1059
Flags: W
LayerCount: 2
Fore
SplineSet
284 633 m 1,0,1
 301 633 301 633 318.5 632.5 c 128,-1,2
 336 632 336 632 353 632 c 0,3,4
 465 632 465 632 576 635.5 c 128,-1,5
 687 639 687 639 800 643 c 1,6,7
 786 620 786 620 778 593.5 c 128,-1,8
 770 567 770 567 770 541 c 0,9,10
 770 519 770 519 776 498 c 1,11,12
 646 498 646 498 518.5 496 c 128,-1,13
 391 494 391 494 260 489 c 1,14,15
 274 513 274 513 281 539.5 c 128,-1,16
 288 566 288 566 288 592 c 0,17,18
 288 603 288 603 287 613 c 128,-1,19
 286 623 286 623 284 633 c 1,0,1
EndSplineSet
Validated: 1
EndChar

StartChar: period
Encoding: 46 46 17
Width: 846
Flags: W
LayerCount: 2
Fore
SplineSet
301 314 m 1,0,1
 365 308 365 308 431 308 c 0,2,3
 506 308 506 308 581 314 c 1,4,5
 553 184 553 184 553 51 c 0,6,7
 553 40 553 40 553 30 c 128,-1,8
 553 20 553 20 554 10 c 1,9,10
 485 16 485 16 415 16 c 0,11,12
 344 16 344 16 274 10 c 1,13,14
 301 142 301 142 301 276 c 2,15,-1
 301 314 l 1,0,1
EndSplineSet
Validated: 1
EndChar

StartChar: slash
Encoding: 47 47 18
Width: 741
Flags: W
LayerCount: 2
Fore
SplineSet
716 1443 m 1,0,1
 748 1446 748 1446 781 1450 c 128,-1,2
 814 1454 814 1454 846 1459 c 1,3,4
 761 1258 761 1258 682 1055.5 c 128,-1,5
 603 853 603 853 526 649.5 c 128,-1,6
 449 446 449 446 371 242.5 c 128,-1,7
 293 39 293 39 210 -162 c 1,8,9
 158 -164 158 -164 106 -168 c 128,-1,10
 54 -172 54 -172 2 -180 c 1,11,12
 95 21 95 21 183 224.5 c 128,-1,13
 271 428 271 428 358.5 631.5 c 128,-1,14
 446 835 446 835 534.5 1038.5 c 128,-1,15
 623 1242 623 1242 716 1443 c 1,0,1
EndSplineSet
Validated: 1
EndChar

StartChar: zero
Encoding: 48 48 19
Width: 1397
Flags: W
LayerCount: 2
Fore
SplineSet
733 1421 m 2,0,-1
 717 1421 l 2,1,2
 673 1421 673 1421 631.5 1406 c 128,-1,3
 590 1391 590 1391 555 1365 c 128,-1,4
 520 1339 520 1339 493 1303 c 128,-1,5
 466 1267 466 1267 451 1225 c 1,6,7
 425 1160 425 1160 409.5 1094.5 c 128,-1,8
 394 1029 394 1029 386 964.5 c 128,-1,9
 378 900 378 900 375.5 837.5 c 128,-1,10
 373 775 373 775 373 716 c 0,11,12
 373 653 373 653 380 592.5 c 128,-1,13
 387 532 387 532 408 475 c 0,14,15
 419 445 419 445 439 421 c 128,-1,16
 459 397 459 397 485.5 380.5 c 128,-1,17
 512 364 512 364 543 355.5 c 128,-1,18
 574 347 574 347 607 347 c 2,19,-1
 618 347 l 2,20,21
 621 347 621 347 624.5 346.5 c 128,-1,22
 628 346 628 346 631 346 c 0,23,24
 695 346 695 346 744.5 372.5 c 128,-1,25
 794 399 794 399 831.5 443 c 128,-1,26
 869 487 869 487 896 544.5 c 128,-1,27
 923 602 923 602 941.5 663.5 c 128,-1,28
 960 725 960 725 971 786.5 c 128,-1,29
 982 848 982 848 987.5 900 c 128,-1,30
 993 952 993 952 995 991 c 128,-1,31
 997 1030 997 1030 997 1047 c 0,32,33
 997 1087 997 1087 994 1127 c 128,-1,34
 991 1167 991 1167 983 1206 c 1,35,36
 976 1252 976 1252 956 1292 c 128,-1,37
 936 1332 936 1332 905 1360.5 c 128,-1,38
 874 1389 874 1389 835 1405.5 c 128,-1,39
 796 1422 796 1422 751 1422 c 0,40,41
 746 1422 746 1422 742 1421.5 c 128,-1,42
 738 1421 738 1421 733 1421 c 2,0,-1
738 1480 m 1,43,-1
 754 1480 l 2,44,45
 802 1480 802 1480 850 1469.5 c 128,-1,46
 898 1459 898 1459 940 1437.5 c 128,-1,47
 982 1416 982 1416 1016 1384 c 128,-1,48
 1050 1352 1050 1352 1071 1309 c 0,49,50
 1115 1218 1115 1218 1129.5 1121 c 128,-1,51
 1144 1024 1144 1024 1144 927 c 0,52,53
 1144 881 1144 881 1142 836 c 128,-1,54
 1140 791 1140 791 1137 746 c 1,55,56
 1127 677 1127 677 1115.5 607 c 128,-1,57
 1104 537 1104 537 1086 468 c 128,-1,58
 1068 399 1068 399 1041.5 333 c 128,-1,59
 1015 267 1015 267 975 206 c 1,60,61
 941 156 941 156 898 119.5 c 128,-1,62
 855 83 855 83 807 58.5 c 128,-1,63
 759 34 759 34 707 22 c 128,-1,64
 655 10 655 10 604 10 c 2,65,-1
 589 10 l 1,66,-1
 572 10 l 2,67,68
 524 10 524 10 476.5 20.5 c 128,-1,69
 429 31 429 31 387 52 c 128,-1,70
 345 73 345 73 310.5 105 c 128,-1,71
 276 137 276 137 254 180 c 0,72,73
 210 269 210 269 196 363 c 128,-1,74
 182 457 182 457 182 553 c 0,75,76
 182 602 182 602 184 649.5 c 128,-1,77
 186 697 186 697 189 745 c 1,78,79
 199 813 199 813 210 883 c 128,-1,80
 221 953 221 953 239 1022 c 128,-1,81
 257 1091 257 1091 283.5 1157 c 128,-1,82
 310 1223 310 1223 351 1284 c 0,83,84
 384 1334 384 1334 427.5 1371 c 128,-1,85
 471 1408 471 1408 520 1432 c 128,-1,86
 569 1456 569 1456 621.5 1468 c 128,-1,87
 674 1480 674 1480 725 1480 c 2,88,-1
 738 1480 l 1,43,-1
EndSplineSet
Validated: 1
EndChar

StartChar: one
Encoding: 49 49 20
Width: 1206
Flags: W
LayerCount: 2
Fore
SplineSet
267 273 m 1,0,1
 347 279 347 279 426.5 283 c 128,-1,2
 506 287 506 287 586 288 c 1,3,4
 609 542 609 542 630.5 792.5 c 128,-1,5
 652 1043 652 1043 672 1297 c 1,6,7
 498 1264 498 1264 323 1249 c 1,8,9
 325 1291 325 1291 325.5 1331 c 128,-1,10
 326 1371 326 1371 327 1413 c 1,11,12
 415 1417 415 1417 501 1429 c 128,-1,13
 587 1441 587 1441 675 1455 c 1,14,15
 699 1454 699 1454 723 1454 c 128,-1,16
 747 1454 747 1454 770 1454 c 0,17,18
 794 1454 794 1454 818 1454 c 128,-1,19
 842 1454 842 1454 866 1456 c 1,20,21
 834 1162 834 1162 807.5 872 c 128,-1,22
 781 582 781 582 759 288 c 1,23,24
 838 286 838 286 917 282.5 c 128,-1,25
 996 279 996 279 1074 271 c 1,26,27
 1072 214 1072 214 1070.5 158 c 128,-1,28
 1069 102 1069 102 1069 45 c 2,29,-1
 1069 10 l 1,30,31
 963 24 963 24 857 31.5 c 128,-1,32
 751 39 751 39 643 39 c 0,33,34
 539 39 539 39 436 32.5 c 128,-1,35
 333 26 333 26 229 14 c 1,36,37
 240 79 240 79 249 143 c 128,-1,38
 258 207 258 207 267 273 c 1,0,1
EndSplineSet
Validated: 1
EndChar

StartChar: two
Encoding: 50 50 21
Width: 1399
Flags: W
LayerCount: 2
Fore
SplineSet
711 299 m 1,0,1
 828 299 828 299 943 295.5 c 128,-1,2
 1058 292 1058 292 1174 281 c 1,3,4
 1171 213 1171 213 1170.5 145.5 c 128,-1,5
 1170 78 1170 78 1170 10 c 1,6,7
 1057 24 1057 24 943.5 31 c 128,-1,8
 830 38 830 38 715 38 c 0,9,10
 597 38 597 38 479 31 c 128,-1,11
 361 24 361 24 242 10 c 1,12,13
 253 79 253 79 264 148 c 128,-1,14
 275 217 275 217 286 286 c 1,15,16
 368 357 368 357 453.5 423.5 c 128,-1,17
 539 490 539 490 626 555 c 1,18,19
 688 598 688 598 747 643 c 128,-1,20
 806 688 806 688 860 741 c 1,21,-1
 859 741 l 1,22,23
 899 783 899 783 936.5 826.5 c 128,-1,24
 974 870 974 870 1003 921 c 1,25,-1
 1003 920 l 1,26,27
 1028 962 1028 962 1043 1007.5 c 128,-1,28
 1058 1053 1058 1053 1058 1100 c 0,29,30
 1058 1160 1058 1160 1035 1204 c 128,-1,31
 1012 1248 1012 1248 974 1277 c 128,-1,32
 936 1306 936 1306 886.5 1320 c 128,-1,33
 837 1334 837 1334 784 1334 c 0,34,35
 679 1334 679 1334 577 1305.5 c 128,-1,36
 475 1277 475 1277 377 1232 c 1,37,38
 379 1277 379 1277 380.5 1321.5 c 128,-1,39
 382 1366 382 1366 382 1411 c 1,40,41
 485 1437 485 1437 587 1458.5 c 128,-1,42
 689 1480 689 1480 793 1480 c 0,43,44
 840 1480 840 1480 887 1475.5 c 128,-1,45
 934 1471 934 1471 979 1459.5 c 128,-1,46
 1024 1448 1024 1448 1065.5 1429 c 128,-1,47
 1107 1410 1107 1410 1142 1380 c 0,48,49
 1192 1338 1192 1338 1213.5 1278.5 c 128,-1,50
 1235 1219 1235 1219 1235 1153 c 0,51,52
 1235 1092 1235 1092 1221 1036.5 c 128,-1,53
 1207 981 1207 981 1182 929 c 128,-1,54
 1157 877 1157 877 1122.5 828 c 128,-1,55
 1088 779 1088 779 1047 731 c 1,56,-1
 1049 732 l 1,57,58
 1008 691 1008 691 967.5 650.5 c 128,-1,59
 927 610 927 610 885 570 c 0,60,61
 828 515 828 515 778 450.5 c 128,-1,62
 728 386 728 386 702 311 c 1,63,64
 704 308 704 308 706.5 305 c 128,-1,65
 709 302 709 302 711 299 c 1,0,1
EndSplineSet
Validated: 1
EndChar

StartChar: three
Encoding: 51 51 22
Width: 1343
Flags: W
LayerCount: 2
Fore
SplineSet
895 793 m 1,0,1
 954 789 954 789 1006.5 764.5 c 128,-1,2
 1059 740 1059 740 1091 692 c 0,3,4
 1120 647 1120 647 1134.5 596.5 c 128,-1,5
 1149 546 1149 546 1149 491 c 0,6,7
 1149 443 1149 443 1142 391.5 c 128,-1,8
 1135 340 1135 340 1118 291 c 128,-1,9
 1101 242 1101 242 1072 198 c 128,-1,10
 1043 154 1043 154 1000 121 c 1,11,12
 946 83 946 83 887 60.5 c 128,-1,13
 828 38 828 38 767 26.5 c 128,-1,14
 706 15 706 15 646 11.5 c 128,-1,15
 586 8 586 8 529 8 c 0,16,17
 352 8 352 8 184 52 c 1,18,19
 208 197 208 197 226 343 c 1,20,21
 301 301 301 301 387.5 285.5 c 128,-1,22
 474 270 474 270 563 270 c 0,23,24
 602 270 602 270 643 273 c 128,-1,25
 684 276 684 276 724 284.5 c 128,-1,26
 764 293 764 293 802 309 c 128,-1,27
 840 325 840 325 873 352 c 1,28,-1
 872 352 l 1,29,30
 891 367 891 367 910.5 383.5 c 128,-1,31
 930 400 930 400 946 419 c 128,-1,32
 962 438 962 438 972 460.5 c 128,-1,33
 982 483 982 483 982 509 c 0,34,35
 982 558 982 558 960 599.5 c 128,-1,36
 938 641 938 641 904 671 c 256,37,38
 870 701 870 701 828.5 716.5 c 128,-1,39
 787 732 787 732 742 738 c 128,-1,40
 697 744 697 744 650.5 744 c 128,-1,41
 604 744 604 744 561 744 c 2,42,-1
 509 744 l 1,43,44
 512 779 512 779 515.5 814.5 c 128,-1,45
 519 850 519 850 521 885 c 1,46,47
 569 885 569 885 615.5 884 c 128,-1,48
 662 883 662 883 710 883 c 0,49,50
 768 883 768 883 822 901 c 128,-1,51
 876 919 876 919 917 953.5 c 128,-1,52
 958 988 958 988 983 1038 c 128,-1,53
 1008 1088 1008 1088 1008 1153 c 0,54,55
 1008 1217 1008 1217 978 1256.5 c 128,-1,56
 948 1296 948 1296 903.5 1317.5 c 128,-1,57
 859 1339 859 1339 808 1346.5 c 128,-1,58
 757 1354 757 1354 715 1354 c 0,59,60
 621 1354 621 1354 529 1340 c 128,-1,61
 437 1326 437 1326 345 1304 c 1,62,63
 347 1339 347 1339 347.5 1372.5 c 128,-1,64
 348 1406 348 1406 349 1441 c 1,65,66
 448 1457 448 1457 546 1468.5 c 128,-1,67
 644 1480 644 1480 743 1480 c 0,68,69
 817 1480 817 1480 895 1467.5 c 128,-1,70
 973 1455 973 1455 1037 1422 c 128,-1,71
 1101 1389 1101 1389 1142 1331 c 128,-1,72
 1183 1273 1183 1273 1183 1182 c 0,73,74
 1183 1119 1183 1119 1162.5 1058 c 128,-1,75
 1142 997 1142 997 1104.5 947 c 128,-1,76
 1067 897 1067 897 1014 861.5 c 128,-1,77
 961 826 961 826 896 813 c 1,78,79
 896 808 896 808 895.5 803 c 128,-1,80
 895 798 895 798 895 793 c 1,0,1
EndSplineSet
Validated: 1
EndChar

StartChar: four
Encoding: 52 52 23
Width: 1198
Flags: W
LayerCount: 2
Fore
SplineSet
737 1395 m 1,0,1
 585 1194 585 1194 441 991 c 128,-1,2
 297 788 297 788 152 582 c 1,3,4
 277 584 277 584 400.5 585 c 128,-1,5
 524 586 524 586 649 586 c 1,6,7
 668 790 668 790 689.5 990.5 c 128,-1,8
 711 1191 711 1191 737 1395 c 1,0,1
686 1455 m 1,9,10
 746 1456 746 1456 805.5 1458.5 c 128,-1,11
 865 1461 865 1461 926 1464 c 1,12,13
 894 1243 894 1243 873.5 1024 c 128,-1,14
 853 805 853 805 838 584 c 1,15,16
 886 584 886 584 932.5 583 c 128,-1,17
 979 582 979 582 1027 581 c 1,18,19
 1025 544 1025 544 1022.5 507 c 128,-1,20
 1020 470 1020 470 1018 433 c 1,21,22
 970 435 970 435 922.5 437 c 128,-1,23
 875 439 875 439 827 440 c 1,24,25
 826 405 826 405 825.5 371 c 128,-1,26
 825 337 825 337 825 302 c 0,27,28
 825 233 825 233 826.5 164.5 c 128,-1,29
 828 96 828 96 830 27 c 1,30,31
 767 32 767 32 705 34 c 128,-1,32
 643 36 643 36 580 37 c 1,33,34
 592 140 592 140 603 241 c 128,-1,35
 614 342 614 342 627 444 c 1,36,-1
 523 444 l 2,37,38
 394 444 394 444 266 441 c 128,-1,39
 138 438 138 438 8 433 c 1,40,41
 12 462 12 462 15 489.5 c 128,-1,42
 18 517 18 517 21 546 c 1,43,44
 185 777 185 777 349.5 1003 c 128,-1,45
 514 1229 514 1229 686 1455 c 1,9,10
EndSplineSet
Validated: 1
EndChar

StartChar: five
Encoding: 53 53 24
Width: 1298
Flags: W
LayerCount: 2
Fore
SplineSet
403 1474 m 1,0,1
 503 1463 503 1463 602.5 1457.5 c 128,-1,2
 702 1452 702 1452 803 1452 c 0,3,4
 989 1452 989 1452 1177 1470 c 1,5,6
 1172 1438 1172 1438 1167 1405 c 128,-1,7
 1162 1372 1162 1372 1157 1340 c 1,8,9
 1067 1332 1067 1332 978 1329 c 128,-1,10
 889 1326 889 1326 800 1326 c 0,11,12
 670 1326 670 1326 541 1332 c 1,13,14
 536 1232 536 1232 530 1133.5 c 128,-1,15
 524 1035 524 1035 516 935 c 1,16,17
 565 946 565 946 614 955.5 c 128,-1,18
 663 965 663 965 713 965 c 0,19,20
 762 965 762 965 811 958.5 c 128,-1,21
 860 952 860 952 906 937 c 128,-1,22
 952 922 952 922 993 898 c 128,-1,23
 1034 874 1034 874 1068 839 c 0,24,25
 1126 777 1126 777 1150 696.5 c 128,-1,26
 1174 616 1174 616 1174 529 c 0,27,28
 1174 477 1174 477 1166.5 421.5 c 128,-1,29
 1159 366 1159 366 1141 312 c 128,-1,30
 1123 258 1123 258 1092 210 c 128,-1,31
 1061 162 1061 162 1014 125 c 256,32,33
 967 88 967 88 913.5 65 c 128,-1,34
 860 42 860 42 803.5 29.5 c 128,-1,35
 747 17 747 17 689.5 12.5 c 128,-1,36
 632 8 632 8 577 8 c 0,37,38
 486 8 486 8 397.5 16 c 128,-1,39
 309 24 309 24 221 44 c 1,40,41
 234 116 234 116 244 188 c 128,-1,42
 254 260 254 260 264 332 c 1,43,44
 340 291 340 291 425.5 275 c 128,-1,45
 511 259 511 259 600 259 c 0,46,47
 636 259 636 259 674.5 263 c 128,-1,48
 713 267 713 267 750.5 277 c 128,-1,49
 788 287 788 287 823 304 c 128,-1,50
 858 321 858 321 888 348 c 0,51,52
 911 369 911 369 930.5 390.5 c 128,-1,53
 950 412 950 412 964.5 436.5 c 128,-1,54
 979 461 979 461 987 489 c 128,-1,55
 995 517 995 517 995 551 c 0,56,57
 995 610 995 610 975.5 665 c 128,-1,58
 956 720 956 720 910 756 c 1,59,60
 853 797 853 797 790.5 809.5 c 128,-1,61
 728 822 728 822 668 822 c 0,62,63
 591 822 591 822 514.5 806 c 128,-1,64
 438 790 438 790 366 758 c 1,65,66
 382 938 382 938 391.5 1116 c 128,-1,67
 401 1294 401 1294 403 1474 c 1,0,1
EndSplineSet
Validated: 1
EndChar

StartChar: six
Encoding: 54 54 25
Width: 1370
Flags: W
LayerCount: 2
Fore
SplineSet
676 832 m 0,0,1
 615 832 615 832 558.5 809.5 c 128,-1,2
 502 787 502 787 458 739 c 0,3,4
 433 711 433 711 413.5 677 c 128,-1,5
 394 643 394 643 381 606.5 c 128,-1,6
 368 570 368 570 361.5 532.5 c 128,-1,7
 355 495 355 495 355 460 c 0,8,9
 355 404 355 404 381 367.5 c 128,-1,10
 407 331 407 331 447.5 309 c 128,-1,11
 488 287 488 287 538 278.5 c 128,-1,12
 588 270 588 270 636 270 c 0,13,14
 685 270 685 270 737 282 c 128,-1,15
 789 294 789 294 832 320 c 128,-1,16
 875 346 875 346 903.5 387 c 128,-1,17
 932 428 932 428 934 486 c 0,18,19
 934 497 934 497 934.5 509 c 128,-1,20
 935 521 935 521 935 532 c 0,21,22
 935 589 935 589 923 642 c 128,-1,23
 911 695 911 695 878 740 c 1,24,25
 846 788 846 788 790.5 810 c 128,-1,26
 735 832 735 832 676 832 c 0,0,1
1120 1450 m 1,27,28
 1113 1408 1113 1408 1107 1366.5 c 128,-1,29
 1101 1325 1101 1325 1096 1283 c 1,30,31
 1034 1308 1034 1308 967.5 1321.5 c 128,-1,32
 901 1335 901 1335 832 1335 c 0,33,34
 788 1335 788 1335 743 1328.5 c 128,-1,35
 698 1322 698 1322 655 1307 c 128,-1,36
 612 1292 612 1292 573.5 1266.5 c 128,-1,37
 535 1241 535 1241 505 1204 c 0,38,39
 465 1155 465 1155 439 1101.5 c 128,-1,40
 413 1048 413 1048 395.5 992.5 c 128,-1,41
 378 937 378 937 367.5 881 c 128,-1,42
 357 825 357 825 348 770 c 1,43,44
 380 815 380 815 420.5 851 c 128,-1,45
 461 887 461 887 507.5 912.5 c 128,-1,46
 554 938 554 938 605 952 c 128,-1,47
 656 966 656 966 709 966 c 0,48,49
 752 966 752 966 795.5 959 c 128,-1,50
 839 952 839 952 879 937 c 128,-1,51
 919 922 919 922 953.5 898 c 128,-1,52
 988 874 988 874 1015 841 c 1,53,54
 1042 810 1042 810 1059.5 774 c 128,-1,55
 1077 738 1077 738 1088 699 c 128,-1,56
 1099 660 1099 660 1103.5 619 c 128,-1,57
 1108 578 1108 578 1108 537 c 0,58,59
 1108 485 1108 485 1101.5 429.5 c 128,-1,60
 1095 374 1095 374 1079 320.5 c 128,-1,61
 1063 267 1063 267 1034.5 218 c 128,-1,62
 1006 169 1006 169 963 129 c 1,63,64
 925 92 925 92 880.5 69 c 128,-1,65
 836 46 836 46 788 33 c 128,-1,66
 740 20 740 20 690 15 c 128,-1,67
 640 10 640 10 592 10 c 0,68,69
 539 10 539 10 487.5 20 c 128,-1,70
 436 30 436 30 390 51.5 c 128,-1,71
 344 73 344 73 306.5 106 c 128,-1,72
 269 139 269 139 244 186 c 0,73,74
 200 268 200 268 185 359 c 128,-1,75
 170 450 170 450 170 546 c 0,76,77
 170 631 170 631 176 728.5 c 128,-1,78
 182 826 182 826 203 924.5 c 128,-1,79
 224 1023 224 1023 263.5 1117 c 128,-1,80
 303 1211 303 1211 370 1288 c 1,81,82
 416 1343 416 1343 472.5 1380 c 128,-1,83
 529 1417 529 1417 591 1439.5 c 128,-1,84
 653 1462 653 1462 719.5 1471.5 c 128,-1,85
 786 1481 786 1481 851 1481 c 0,86,87
 922 1481 922 1481 991 1470 c 128,-1,88
 1060 1459 1060 1459 1127 1442 c 1,89,-1
 1120 1449 l 1,90,-1
 1120 1450 l 1,27,28
EndSplineSet
Validated: 5
EndChar

StartChar: seven
Encoding: 55 55 26
Width: 1077
Flags: W
LayerCount: 2
Fore
SplineSet
40 1484 m 1,0,1
 152 1468 152 1468 264.5 1460.5 c 128,-1,2
 377 1453 377 1453 491 1453 c 0,3,4
 612 1453 612 1453 731 1461 c 128,-1,5
 850 1469 850 1469 970 1484 c 1,6,7
 967 1465 967 1465 963.5 1447 c 128,-1,8
 960 1429 960 1429 958 1410 c 1,9,10
 887 1241 887 1241 824.5 1070 c 128,-1,11
 762 899 762 899 703.5 727 c 128,-1,12
 645 555 645 555 588.5 382 c 128,-1,13
 532 209 532 209 474 37 c 1,14,15
 448 38 448 38 423 38 c 128,-1,16
 398 38 398 38 372 38 c 0,17,18
 312 38 312 38 253 36.5 c 128,-1,19
 194 35 194 35 134 31 c 1,20,21
 221 192 221 192 303 356 c 128,-1,22
 385 520 385 520 465.5 684.5 c 128,-1,23
 546 849 546 849 626.5 1013 c 128,-1,24
 707 1177 707 1177 793 1339 c 1,25,26
 712 1334 712 1334 631.5 1330.5 c 128,-1,27
 551 1327 551 1327 470 1327 c 0,28,29
 361 1327 361 1327 253.5 1333 c 128,-1,30
 146 1339 146 1339 39 1353 c 1,31,32
 40 1386 40 1386 40 1418.5 c 128,-1,33
 40 1451 40 1451 40 1484 c 1,0,1
EndSplineSet
Validated: 1
EndChar

StartChar: eight
Encoding: 56 56 27
Width: 1399
Flags: W
LayerCount: 2
Fore
SplineSet
695 738 m 0,0,1
 635 738 635 738 575.5 720 c 128,-1,2
 516 702 516 702 468 660 c 0,3,4
 419 617 419 617 392.5 554 c 128,-1,5
 366 491 366 491 367 429 c 0,6,7
 367 390 367 390 386 357.5 c 128,-1,8
 405 325 405 325 432 299 c 0,9,10
 453 279 453 279 478.5 265.5 c 128,-1,11
 504 252 504 252 532.5 244.5 c 128,-1,12
 561 237 561 237 591 234 c 128,-1,13
 621 231 621 231 651 231 c 0,14,15
 680 231 680 231 710.5 234 c 128,-1,16
 741 237 741 237 771 244.5 c 128,-1,17
 801 252 801 252 829 265.5 c 128,-1,18
 857 279 857 279 881 299 c 0,19,20
 923 334 923 334 947.5 376 c 128,-1,21
 972 418 972 418 973 474 c 0,22,23
 973 527 973 527 957.5 575 c 128,-1,24
 942 623 942 623 907 661 c 0,25,26
 866 704 866 704 810.5 721.5 c 128,-1,27
 755 739 755 739 695 738 c 0,0,1
513 801 m 1,28,29
 462 811 462 811 422.5 838 c 128,-1,30
 383 865 383 865 356 904 c 128,-1,31
 329 943 329 943 314.5 990 c 128,-1,32
 300 1037 300 1037 300 1087 c 0,33,34
 300 1127 300 1127 306.5 1166 c 128,-1,35
 313 1205 313 1205 327 1242 c 128,-1,36
 341 1279 341 1279 364.5 1311.5 c 128,-1,37
 388 1344 388 1344 422 1371 c 1,38,-1
 423 1370 l 1,39,40
 459 1398 459 1398 500 1415.5 c 128,-1,41
 541 1433 541 1433 584.5 1443 c 128,-1,42
 628 1453 628 1453 672 1457 c 128,-1,43
 716 1461 716 1461 759 1461 c 256,44,45
 802 1461 802 1461 845.5 1458 c 128,-1,46
 889 1455 889 1455 930 1445 c 128,-1,47
 971 1435 971 1435 1009 1417.5 c 128,-1,48
 1047 1400 1047 1400 1079 1372 c 0,49,50
 1121 1335 1121 1335 1140 1283.5 c 128,-1,51
 1159 1232 1159 1232 1159 1175 c 0,52,53
 1159 1115 1159 1115 1141 1053.5 c 128,-1,54
 1123 992 1123 992 1088 940 c 128,-1,55
 1053 888 1053 888 1002.5 850.5 c 128,-1,56
 952 813 952 813 886 801 c 1,57,-1
 884 784 l 1,58,59
 944 770 944 770 995 740.5 c 128,-1,60
 1046 711 1046 711 1082.5 668.5 c 128,-1,61
 1119 626 1119 626 1140 571 c 128,-1,62
 1161 516 1161 516 1161 450 c 0,63,64
 1161 405 1161 405 1154 357 c 128,-1,65
 1147 309 1147 309 1130 263.5 c 128,-1,66
 1113 218 1113 218 1085.5 178 c 128,-1,67
 1058 138 1058 138 1016 108 c 256,68,69
 974 78 974 78 927 58.5 c 128,-1,70
 880 39 880 39 830.5 28 c 128,-1,71
 781 17 781 17 731 13 c 128,-1,72
 681 9 681 9 632 9 c 0,73,74
 582 9 582 9 532.5 13 c 128,-1,75
 483 17 483 17 436 27.5 c 128,-1,76
 389 38 389 38 345 57.5 c 128,-1,77
 301 77 301 77 263 107 c 0,78,79
 210 150 210 150 189 214 c 128,-1,80
 168 278 168 278 168 347 c 0,81,82
 168 387 168 387 174 428.5 c 128,-1,83
 180 470 180 470 193.5 510 c 128,-1,84
 207 550 207 550 228.5 587 c 128,-1,85
 250 624 250 624 281 655 c 1,86,87
 327 705 327 705 387 736.5 c 128,-1,88
 447 768 447 768 511 782 c 1,89,-1
 513 801 l 1,28,29
458 1159 m 1,90,91
 455 1141 455 1141 455 1124 c 0,92,93
 455 1077 455 1077 474 1037.5 c 128,-1,94
 493 998 493 998 525.5 969.5 c 128,-1,95
 558 941 558 941 600 924.5 c 128,-1,96
 642 908 642 908 688 908 c 0,97,98
 693 908 693 908 698.5 908 c 128,-1,99
 704 908 704 908 710 909 c 1,100,101
 715 908 715 908 721 908 c 128,-1,102
 727 908 727 908 732 908 c 0,103,104
 788 908 788 908 838 929.5 c 128,-1,105
 888 951 888 951 926 988.5 c 128,-1,106
 964 1026 964 1026 986 1076.5 c 128,-1,107
 1008 1127 1008 1127 1008 1184 c 0,108,109
 1008 1239 1008 1239 985 1277.5 c 128,-1,110
 962 1316 962 1316 924.5 1339 c 128,-1,111
 887 1362 887 1362 840.5 1372.5 c 128,-1,112
 794 1383 794 1383 746 1383 c 0,113,114
 696 1383 696 1383 646 1369 c 128,-1,115
 596 1355 596 1355 554.5 1327.5 c 128,-1,116
 513 1300 513 1300 486.5 1258 c 128,-1,117
 460 1216 460 1216 458 1159 c 1,90,91
EndSplineSet
Validated: 33
EndChar

StartChar: nine
Encoding: 57 57 28
Width: 1378
Flags: W
LayerCount: 2
Fore
SplineSet
183 40 m 1,0,1
 195 112 195 112 204.5 182.5 c 128,-1,2
 214 253 214 253 223 325 c 1,3,4
 348 270 348 270 487 270 c 0,5,6
 526 270 526 270 567.5 272.5 c 128,-1,7
 609 275 609 275 650 283 c 128,-1,8
 691 291 691 291 730 304.5 c 128,-1,9
 769 318 769 318 805 341 c 1,10,11
 848 376 848 376 873 421.5 c 128,-1,12
 898 467 898 467 913 517.5 c 128,-1,13
 928 568 928 568 936.5 620 c 128,-1,14
 945 672 945 672 954 721 c 1,15,16
 922 676 922 676 882 639.5 c 128,-1,17
 842 603 842 603 795.5 577.5 c 128,-1,18
 749 552 749 552 698 538 c 128,-1,19
 647 524 647 524 593 524 c 0,20,21
 549 524 549 524 506 531 c 128,-1,22
 463 538 463 538 423 553 c 128,-1,23
 383 568 383 568 348.5 591.5 c 128,-1,24
 314 615 314 615 287 649 c 1,25,26
 261 680 261 680 243.5 716.5 c 128,-1,27
 226 753 226 753 215.5 792.5 c 128,-1,28
 205 832 205 832 200.5 874 c 128,-1,29
 196 916 196 916 196 958 c 0,30,31
 196 1009 196 1009 202.5 1063.5 c 128,-1,32
 209 1118 209 1118 225.5 1171 c 128,-1,33
 242 1224 242 1224 269.5 1272.5 c 128,-1,34
 297 1321 297 1321 340 1360 c 0,35,36
 379 1396 379 1396 423.5 1419 c 128,-1,37
 468 1442 468 1442 515.5 1455.5 c 128,-1,38
 563 1469 563 1469 612.5 1474.5 c 128,-1,39
 662 1480 662 1480 711 1480 c 0,40,41
 762 1480 762 1480 812 1470.5 c 128,-1,42
 862 1461 862 1461 907.5 1440.5 c 128,-1,43
 953 1420 953 1420 990.5 1388.5 c 128,-1,44
 1028 1357 1028 1357 1053 1313 c 1,45,46
 1100 1224 1100 1224 1116 1127 c 128,-1,47
 1132 1030 1132 1030 1132 933 c 0,48,49
 1132 847 1132 847 1125 750.5 c 128,-1,50
 1118 654 1118 654 1097 557.5 c 128,-1,51
 1076 461 1076 461 1036.5 368.5 c 128,-1,52
 997 276 997 276 931 200 c 1,53,54
 886 146 886 146 830.5 109 c 128,-1,55
 775 72 775 72 713.5 49.5 c 128,-1,56
 652 27 652 27 586.5 17.5 c 128,-1,57
 521 8 521 8 457 8 c 0,58,59
 385 8 385 8 315.5 18.5 c 128,-1,60
 246 29 246 29 178 49 c 1,61,62
 180 47 180 47 181.5 45 c 128,-1,63
 183 43 183 43 183 41 c 2,64,-1
 183 40 l 1,0,1
623 793 m 0,65,66
 686 793 686 793 750.5 800.5 c 128,-1,67
 815 808 815 808 875 832 c 0,68,69
 914 847 914 847 937.5 879 c 128,-1,70
 961 911 961 911 974 948.5 c 128,-1,71
 987 986 987 986 991 1024.5 c 128,-1,72
 995 1063 995 1063 995 1093 c 0,73,74
 995 1148 995 1148 979.5 1198.5 c 128,-1,75
 964 1249 964 1249 926 1286 c 1,76,77
 901 1312 901 1312 870.5 1329.5 c 128,-1,78
 840 1347 840 1347 806 1357 c 128,-1,79
 772 1367 772 1367 735.5 1371 c 128,-1,80
 699 1375 699 1375 662 1375 c 0,81,82
 593 1375 593 1375 525.5 1355 c 128,-1,83
 458 1335 458 1335 403 1287 c 0,84,85
 373 1261 373 1261 351.5 1228 c 128,-1,86
 330 1195 330 1195 317 1158.5 c 128,-1,87
 304 1122 304 1122 298 1084 c 128,-1,88
 292 1046 292 1046 292 1009 c 0,89,90
 292 983 292 983 295.5 955.5 c 128,-1,91
 299 928 299 928 308 904 c 128,-1,92
 317 880 317 880 333 860.5 c 128,-1,93
 349 841 349 841 375 831 c 0,94,95
 433 807 433 807 496 800.5 c 128,-1,96
 559 794 559 794 623 793 c 0,65,66
EndSplineSet
Validated: 5
EndChar

StartChar: colon
Encoding: 58 58 29
Width: 807
Flags: W
LayerCount: 2
Fore
SplineSet
305 297 m 1,0,1
 334 301 334 301 364 303.5 c 128,-1,2
 394 306 394 306 424 306 c 0,3,4
 481 306 481 306 535 297 c 1,5,6
 530 225 530 225 525.5 153.5 c 128,-1,7
 521 82 521 82 516 10 c 1,8,9
 489 21 489 21 459.5 25.5 c 128,-1,10
 430 30 430 30 400 30 c 0,11,12
 337 30 337 30 274 10 c 1,13,14
 283 82 283 82 290.5 153.5 c 128,-1,15
 298 225 298 225 305 297 c 1,0,1
369 1092 m 1,16,17
 424 1069 424 1069 486 1069 c 0,18,19
 550 1069 550 1069 611 1092 c 1,20,21
 603 1025 603 1025 595.5 958.5 c 128,-1,22
 588 892 588 892 582 825 c 1,23,24
 522 813 522 813 463 813 c 0,25,26
 434 813 434 813 406 816 c 128,-1,27
 378 819 378 819 351 826 c 1,28,29
 357 893 357 893 360.5 959 c 128,-1,30
 364 1025 364 1025 369 1092 c 1,16,17
EndSplineSet
Validated: 1
EndChar

StartChar: semicolon
Encoding: 59 59 30
Width: 555
Flags: W
LayerCount: 2
Fore
SplineSet
299 1062 m 1,0,1
 316 1060 316 1060 332.5 1059 c 128,-1,2
 349 1058 349 1058 366 1058 c 0,3,4
 406 1058 406 1058 446 1064.5 c 128,-1,5
 486 1071 486 1071 525 1086 c 1,6,7
 517 1017 517 1017 509 948.5 c 128,-1,8
 501 880 501 880 494 811 c 1,9,10
 456 801 456 801 419 797.5 c 128,-1,11
 382 794 382 794 344 794 c 0,12,13
 327 794 327 794 311 794 c 128,-1,14
 295 794 295 794 279 796 c 1,15,16
 286 863 286 863 290 929 c 128,-1,17
 294 995 294 995 299 1062 c 1,0,1
234 213 m 1,18,19
 253 213 253 213 271.5 213.5 c 128,-1,20
 290 214 290 214 310 214 c 0,21,22
 341 214 341 214 371.5 213 c 128,-1,23
 402 212 402 212 434 209 c 1,24,25
 432 164 432 164 427.5 120.5 c 128,-1,26
 423 77 423 77 420 32 c 1,27,28
 370 -50 370 -50 320 -130.5 c 128,-1,29
 270 -211 270 -211 221 -293 c 1,30,31
 189 -295 189 -295 157.5 -301 c 128,-1,32
 126 -307 126 -307 96 -318 c 1,33,34
 126 -228 126 -228 156.5 -140.5 c 128,-1,35
 187 -53 187 -53 218 37 c 1,36,37
 221 82 221 82 226 125 c 128,-1,38
 231 168 231 168 234 213 c 1,18,19
EndSplineSet
Validated: 1
EndChar

StartChar: less
Encoding: 60 60 31
Width: 1569
Flags: W
LayerCount: 2
Fore
SplineSet
1275 992 m 1,0,1
 1010 912 1010 912 746.5 844 c 128,-1,2
 483 776 483 776 216 710 c 1,3,4
 448 595 448 595 679.5 484.5 c 128,-1,5
 911 374 911 374 1141 256 c 1,6,7
 1136 201 1136 201 1133.5 147 c 128,-1,8
 1131 93 1131 93 1131 38 c 1,9,10
 991 110 991 110 849.5 179 c 128,-1,11
 708 248 708 248 566 316.5 c 128,-1,12
 424 385 424 385 282.5 454.5 c 128,-1,13
 141 524 141 524 2 597 c 1,14,15
 11 650 11 650 19.5 702 c 128,-1,16
 28 754 28 754 33 807 c 1,17,18
 195 847 195 847 357.5 887.5 c 128,-1,19
 520 928 520 928 681.5 970 c 128,-1,20
 843 1012 843 1012 1004 1057.5 c 128,-1,21
 1165 1103 1165 1103 1325 1154 c 1,22,23
 1298 1073 1298 1073 1275 992 c 1,0,1
EndSplineSet
Validated: 1
EndChar

StartChar: equal
Encoding: 61 61 32
Width: 1831
Flags: W
LayerCount: 2
Fore
SplineSet
323 920 m 1,0,1
 475 914 475 914 627 911.5 c 128,-1,2
 779 909 779 909 932 909 c 0,3,4
 1097 909 1097 909 1258.5 912 c 128,-1,5
 1420 915 1420 915 1585 920 c 1,6,7
 1570 883 1570 883 1558 846 c 128,-1,8
 1546 809 1546 809 1538 771 c 1,9,10
 1227 765 1227 765 919 765 c 0,11,12
 629 765 629 765 341 771 c 1,13,14
 338 847 338 847 323 920 c 1,0,1
325 542 m 1,15,16
 489 544 489 544 651 545 c 128,-1,17
 813 546 813 546 977 546 c 0,18,19
 1112 546 1112 546 1245.5 545 c 128,-1,20
 1379 544 1379 544 1514 542 c 1,21,22
 1514 496 1514 496 1519 451 c 128,-1,23
 1524 406 1524 406 1536 362 c 1,24,25
 1381 367 1381 367 1226.5 370 c 128,-1,26
 1072 373 1072 373 917 373 c 0,27,28
 756 373 756 373 595.5 370 c 128,-1,29
 435 367 435 367 274 362 c 1,30,31
 292 406 292 406 304.5 451 c 128,-1,32
 317 496 317 496 325 542 c 1,15,16
EndSplineSet
Validated: 1
EndChar

StartChar: greater
Encoding: 62 62 33
Width: 1569
Flags: W
LayerCount: 2
Fore
SplineSet
411 1109 m 1,0,1
 413 1149 413 1149 416.5 1188.5 c 128,-1,2
 420 1228 420 1228 421 1268 c 1,3,4
 560 1195 560 1195 701.5 1125.5 c 128,-1,5
 843 1056 843 1056 984.5 987.5 c 128,-1,6
 1126 919 1126 919 1267.5 850 c 128,-1,7
 1409 781 1409 781 1549 709 c 1,8,9
 1539 656 1539 656 1530.5 603.5 c 128,-1,10
 1522 551 1522 551 1517 497 c 1,11,12
 1355 456 1355 456 1193 415.5 c 128,-1,13
 1031 375 1031 375 869.5 333 c 128,-1,14
 708 291 708 291 547.5 246 c 128,-1,15
 387 201 387 201 227 151 c 1,16,17
 246 205 246 205 261 260 c 128,-1,18
 276 315 276 315 290 371 c 1,19,20
 551 448 551 448 813.5 515 c 128,-1,21
 1076 582 1076 582 1339 651 c 1,22,23
 1108 767 1108 767 874 878 c 128,-1,24
 640 989 640 989 411 1109 c 1,0,1
EndSplineSet
Validated: 1
EndChar

StartChar: question
Encoding: 63 63 34
Width: 961
Flags: W
LayerCount: 2
Fore
SplineSet
213 278 m 1,0,1
 261 280 261 280 310 281.5 c 128,-1,2
 359 283 359 283 408 283 c 2,3,-1
 448 283 l 1,4,5
 443 219 443 219 438 155.5 c 128,-1,6
 433 92 433 92 428 28 c 1,7,-1
 388 28 l 2,8,9
 337 28 337 28 285.5 26.5 c 128,-1,10
 234 25 234 25 182 21 c 1,11,12
 190 86 190 86 197.5 149.5 c 128,-1,13
 205 213 205 213 213 278 c 1,0,1
464 424 m 1,14,15
 406 424 406 424 349 423 c 128,-1,16
 292 422 292 422 233 420 c 1,17,18
 237 459 237 459 240 497 c 128,-1,19
 243 535 243 535 248 572.5 c 128,-1,20
 253 610 253 610 262 647.5 c 128,-1,21
 271 685 271 685 287 721 c 1,22,23
 308 765 308 765 340.5 800.5 c 128,-1,24
 373 836 373 836 408 868 c 1,25,-1
 408 867 l 1,26,27
 435 887 435 887 459.5 909.5 c 128,-1,28
 484 932 484 932 511 952 c 1,29,-1
 510 952 l 1,30,31
 535 971 535 971 565 994.5 c 128,-1,32
 595 1018 595 1018 621 1045 c 128,-1,33
 647 1072 647 1072 664.5 1102 c 128,-1,34
 682 1132 682 1132 682 1164 c 0,35,36
 682 1212 682 1212 664.5 1249.5 c 128,-1,37
 647 1287 647 1287 617 1313.5 c 128,-1,38
 587 1340 587 1340 547 1354 c 128,-1,39
 507 1368 507 1368 462 1368 c 0,40,41
 374 1368 374 1368 287.5 1338 c 128,-1,42
 201 1308 201 1308 121 1266 c 1,43,44
 123 1300 123 1300 124 1333 c 128,-1,45
 125 1366 125 1366 127 1400 c 1,46,47
 219 1439 219 1439 314.5 1459 c 128,-1,48
 410 1479 410 1479 507 1479 c 0,49,50
 543 1479 543 1479 580 1476 c 128,-1,51
 617 1473 617 1473 652.5 1464.5 c 128,-1,52
 688 1456 688 1456 720 1441 c 128,-1,53
 752 1426 752 1426 779 1402 c 0,54,55
 817 1367 817 1367 834.5 1319.5 c 128,-1,56
 852 1272 852 1272 852 1220 c 0,57,58
 852 1166 852 1166 835.5 1119 c 128,-1,59
 819 1072 819 1072 792 1029 c 128,-1,60
 765 986 765 986 730 947 c 128,-1,61
 695 908 695 908 659 870 c 0,62,63
 638 848 638 848 617.5 827 c 128,-1,64
 597 806 597 806 576 785 c 1,65,66
 565 769 565 769 555 753.5 c 128,-1,67
 545 738 545 738 534 723 c 1,68,-1
 534 724 l 1,69,70
 523 709 523 709 512 694 c 128,-1,71
 501 679 501 679 495 662 c 0,72,73
 475 605 475 605 472 544 c 128,-1,74
 469 483 469 483 464 424 c 1,14,15
EndSplineSet
Validated: 1
EndChar

StartChar: at
Encoding: 64 64 35
Width: 2081
Flags: W
LayerCount: 2
Fore
SplineSet
714 615 m 0,0,1
 713 606 713 606 712.5 596.5 c 128,-1,2
 712 587 712 587 712 578 c 0,3,4
 712 521 712 521 730 477 c 128,-1,5
 748 433 748 433 780 403 c 128,-1,6
 812 373 812 373 856.5 357.5 c 128,-1,7
 901 342 901 342 954 342 c 0,8,9
 1005 342 1005 342 1055.5 359 c 128,-1,10
 1106 376 1106 376 1144 414 c 0,11,12
 1192 462 1192 462 1212 526 c 128,-1,13
 1232 590 1232 590 1232 653 c 0,14,15
 1232 708 1232 708 1213.5 751.5 c 128,-1,16
 1195 795 1195 795 1163 824.5 c 128,-1,17
 1131 854 1131 854 1087 869.5 c 128,-1,18
 1043 885 1043 885 991 885 c 256,19,20
 939 885 939 885 889 867.5 c 128,-1,21
 839 850 839 850 800 812 c 0,22,23
 758 772 758 772 738.5 720.5 c 128,-1,24
 719 669 719 669 714 615 c 0,0,1
1245 276 m 1,25,26
 1216 240 1216 240 1180.5 210.5 c 128,-1,27
 1145 181 1145 181 1104.5 159.5 c 128,-1,28
 1064 138 1064 138 1020.5 126.5 c 128,-1,29
 977 115 977 115 932 115 c 0,30,31
 854 115 854 115 786.5 141 c 128,-1,32
 719 167 719 167 674 229 c 1,33,34
 633 281 633 281 616.5 345 c 128,-1,35
 600 409 600 409 600 477 c 0,36,37
 600 524 600 524 606.5 573 c 128,-1,38
 613 622 613 622 628 669.5 c 128,-1,39
 643 717 643 717 667.5 760.5 c 128,-1,40
 692 804 692 804 728 841 c 1,41,42
 784 902 784 902 855.5 929.5 c 128,-1,43
 927 957 927 957 1005 957 c 0,44,45
 1050 957 1050 957 1091.5 945 c 128,-1,46
 1133 933 1133 933 1170 911.5 c 128,-1,47
 1207 890 1207 890 1237 860.5 c 128,-1,48
 1267 831 1267 831 1290 796 c 1,49,50
 1294 832 1294 832 1298.5 868 c 128,-1,51
 1303 904 1303 904 1306 940 c 1,52,53
 1335 940 1335 940 1364 940.5 c 128,-1,54
 1393 941 1393 941 1422 942 c 1,55,56
 1402 762 1402 762 1385.5 585 c 128,-1,57
 1369 408 1369 408 1357 228 c 1,58,59
 1427 238 1427 238 1490 270.5 c 128,-1,60
 1553 303 1553 303 1598 361 c 0,61,62
 1628 400 1628 400 1649 445 c 128,-1,63
 1670 490 1670 490 1682.5 536.5 c 128,-1,64
 1695 583 1695 583 1700.5 630.5 c 128,-1,65
 1706 678 1706 678 1706 723 c 0,66,67
 1706 803 1706 803 1686.5 879 c 128,-1,68
 1667 955 1667 955 1625 1021 c 1,69,70
 1581 1084 1581 1084 1521 1131.5 c 128,-1,71
 1461 1179 1461 1179 1391.5 1211 c 128,-1,72
 1322 1243 1322 1243 1244.5 1259 c 128,-1,73
 1167 1275 1167 1275 1088 1275 c 0,74,75
 972 1275 972 1275 856.5 1245.5 c 128,-1,76
 741 1216 741 1216 638 1153 c 1,77,-1
 639 1153 l 1,78,79
 546 1098 546 1098 478 1019 c 128,-1,80
 410 940 410 940 365 848 c 128,-1,81
 320 756 320 756 298.5 654.5 c 128,-1,82
 277 553 277 553 277 453 c 0,83,84
 277 408 277 408 283.5 365 c 128,-1,85
 290 322 290 322 308 283 c 0,86,87
 337 220 337 220 377.5 165 c 128,-1,88
 418 110 418 110 460 56 c 1,89,90
 506 4 506 4 562 -29.5 c 128,-1,91
 618 -63 618 -63 681 -82 c 128,-1,92
 744 -101 744 -101 812 -108.5 c 128,-1,93
 880 -116 880 -116 948 -117 c 1,94,95
 1070 -116 1070 -116 1192.5 -83 c 128,-1,96
 1315 -50 1315 -50 1420 25 c 1,97,98
 1437 -17 1437 -17 1454.5 -56.5 c 128,-1,99
 1472 -96 1472 -96 1492 -136 c 1,100,101
 1365 -226 1365 -226 1220.5 -269.5 c 128,-1,102
 1076 -313 1076 -313 928 -313 c 0,103,104
 845 -313 845 -313 762 -299.5 c 128,-1,105
 679 -286 679 -286 602.5 -257.5 c 128,-1,106
 526 -229 526 -229 458.5 -184.5 c 128,-1,107
 391 -140 391 -140 338 -79 c 1,108,109
 291 -28 291 -28 258 32.5 c 128,-1,110
 225 93 225 93 204 159 c 128,-1,111
 183 225 183 225 173.5 295.5 c 128,-1,112
 164 366 164 366 164 437 c 0,113,114
 164 531 164 531 180 629 c 128,-1,115
 196 727 196 727 230 820.5 c 128,-1,116
 264 914 264 914 317.5 1000 c 128,-1,117
 371 1086 371 1086 445 1157 c 1,118,119
 515 1217 515 1217 595 1262 c 128,-1,120
 675 1307 675 1307 760.5 1337 c 128,-1,121
 846 1367 846 1367 935 1381.5 c 128,-1,122
 1024 1396 1024 1396 1113 1396 c 0,123,124
 1206 1396 1206 1396 1294.5 1378 c 128,-1,125
 1383 1360 1383 1360 1462 1323.5 c 128,-1,126
 1541 1287 1541 1287 1607 1232.5 c 128,-1,127
 1673 1178 1673 1178 1721 1105 c 128,-1,128
 1769 1032 1769 1032 1795.5 941 c 128,-1,129
 1822 850 1822 850 1822 740 c 0,130,131
 1822 678 1822 678 1812.5 612 c 128,-1,132
 1803 546 1803 546 1782 482 c 128,-1,133
 1761 418 1761 418 1726.5 359 c 128,-1,134
 1692 300 1692 300 1641 253 c 0,135,136
 1599 214 1599 214 1550 187 c 128,-1,137
 1501 160 1501 160 1448.5 143 c 128,-1,138
 1396 126 1396 126 1341 118 c 128,-1,139
 1286 110 1286 110 1233 110 c 1,140,141
 1236 152 1236 152 1239 193 c 128,-1,142
 1242 234 1242 234 1245 276 c 1,25,26
EndSplineSet
Validated: 1
EndChar

StartChar: A
Encoding: 65 65 36
Width: 1507
Flags: W
LayerCount: 2
Fore
SplineSet
853 1314 m 1,0,1
 765 1105 765 1105 681 897 c 128,-1,2
 597 689 597 689 508 480 c 1,3,4
 577 481 577 481 644 481.5 c 128,-1,5
 711 482 711 482 780 482 c 256,6,7
 849 482 849 482 916 481.5 c 128,-1,8
 983 481 983 481 1052 481 c 1,9,10
 1000 690 1000 690 952 897.5 c 128,-1,11
 904 1105 904 1105 853 1314 c 1,0,1
780 1454 m 1,12,-1
 955 1454 l 1,13,14
 1009 1272 1009 1272 1059.5 1089 c 128,-1,15
 1110 906 1110 906 1163.5 724.5 c 128,-1,16
 1217 543 1217 543 1277 363.5 c 128,-1,17
 1337 184 1337 184 1410 10 c 1,18,19
 1344 16 1344 16 1278 21 c 128,-1,20
 1212 26 1212 26 1145 29 c 1,21,22
 1117 146 1117 146 1094 268 c 1,23,24
 1010 270 1010 270 928 271 c 128,-1,25
 846 272 846 272 762 272 c 256,26,27
 678 272 678 272 595.5 271 c 128,-1,28
 513 270 513 270 430 268 c 1,29,30
 405 207 405 207 377.5 147.5 c 128,-1,31
 350 88 350 88 321 28 c 1,32,33
 195 20 195 20 70 10 c 1,34,35
 172 185 172 185 262.5 364.5 c 128,-1,36
 353 544 353 544 439 726 c 128,-1,37
 525 908 525 908 608.5 1090.5 c 128,-1,38
 692 1273 692 1273 780 1454 c 1,12,-1
EndSplineSet
Validated: 1
EndChar

StartChar: B
Encoding: 66 66 37
Width: 1497
Flags: W
LayerCount: 2
Fore
SplineSet
539 723 m 1,0,1
 528 616 528 616 517.5 510 c 128,-1,2
 507 404 507 404 493 297 c 1,3,4
 574 300 574 300 654.5 302 c 128,-1,5
 735 304 735 304 816 304 c 0,6,7
 876 304 876 304 937 311 c 128,-1,8
 998 318 998 318 1055 347 c 1,9,10
 1079 361 1079 361 1096.5 383 c 128,-1,11
 1114 405 1114 405 1125.5 431 c 128,-1,12
 1137 457 1137 457 1142 484.5 c 128,-1,13
 1147 512 1147 512 1147 538 c 0,14,15
 1147 576 1147 576 1125 605 c 128,-1,16
 1103 634 1103 634 1079 657 c 1,17,-1
 1080 657 l 1,18,19
 1058 678 1058 678 1031 690.5 c 128,-1,20
 1004 703 1004 703 974.5 710 c 128,-1,21
 945 717 945 717 914 720 c 128,-1,22
 883 723 883 723 853 723 c 2,23,-1
 539 723 l 1,0,1
579 1351 m 1,24,25
 575 1229 575 1229 568 1107.5 c 128,-1,26
 561 986 561 986 551 863 c 1,27,28
 624 861 624 861 696.5 861 c 128,-1,29
 769 861 769 861 842 861 c 0,30,31
 895 861 895 861 949.5 870 c 128,-1,32
 1004 879 1004 879 1051 911 c 0,33,34
 1081 931 1081 931 1100.5 957.5 c 128,-1,35
 1120 984 1120 984 1131.5 1012.5 c 128,-1,36
 1143 1041 1143 1041 1147.5 1070 c 128,-1,37
 1152 1099 1152 1099 1152 1125 c 0,38,39
 1152 1187 1152 1187 1128.5 1228.5 c 128,-1,40
 1105 1270 1105 1270 1067 1295.5 c 128,-1,41
 1029 1321 1029 1321 980.5 1331.5 c 128,-1,42
 932 1342 932 1342 882 1342 c 0,43,44
 729 1342 729 1342 579 1351 c 1,24,25
403 1484 m 1,45,46
 515 1468 515 1468 628.5 1462 c 128,-1,47
 742 1456 742 1456 857 1454 c 0,48,49
 924 1453 924 1453 989.5 1445 c 128,-1,50
 1055 1437 1055 1437 1116 1414 c 0,51,52
 1158 1398 1158 1398 1189.5 1372.5 c 128,-1,53
 1221 1347 1221 1347 1241.5 1314.5 c 128,-1,54
 1262 1282 1262 1282 1272.5 1245.5 c 128,-1,55
 1283 1209 1283 1209 1283 1170 c 0,56,57
 1283 1111 1283 1111 1266.5 1050 c 128,-1,58
 1250 989 1250 989 1216.5 938 c 128,-1,59
 1183 887 1183 887 1132.5 852 c 128,-1,60
 1082 817 1082 817 1014 811 c 1,61,-1
 1013 794 l 1,62,63
 1079 789 1079 789 1139 762.5 c 128,-1,64
 1199 736 1199 736 1244.5 692.5 c 128,-1,65
 1290 649 1290 649 1316.5 590.5 c 128,-1,66
 1343 532 1343 532 1343 465 c 0,67,68
 1343 419 1343 419 1336 371.5 c 128,-1,69
 1329 324 1329 324 1312.5 280 c 128,-1,70
 1296 236 1296 236 1267 197 c 128,-1,71
 1238 158 1238 158 1195 130 c 0,72,73
 1150 101 1150 101 1102 83 c 128,-1,74
 1054 65 1054 65 1004.5 55 c 128,-1,75
 955 45 955 45 904 41.5 c 128,-1,76
 853 38 853 38 804 38 c 0,77,78
 671 38 671 38 539.5 31.5 c 128,-1,79
 408 25 408 25 274 10 c 1,80,81
 341 380 341 380 372 747 c 128,-1,82
 403 1114 403 1114 403 1484 c 1,45,46
EndSplineSet
Validated: 1
EndChar

StartChar: C
Encoding: 67 67 38
Width: 1587
Flags: W
LayerCount: 2
Fore
SplineSet
1356 1377 m 1,0,1
 1347 1329 1347 1329 1339.5 1282 c 128,-1,2
 1332 1235 1332 1235 1325 1187 c 1,3,4
 1250 1263 1250 1263 1147 1301 c 128,-1,5
 1044 1339 1044 1339 933 1339 c 0,6,7
 879 1339 879 1339 823.5 1332.5 c 128,-1,8
 768 1326 768 1326 714 1310 c 128,-1,9
 660 1294 660 1294 610.5 1266.5 c 128,-1,10
 561 1239 561 1239 519 1197 c 1,11,12
 467 1141 467 1141 433 1075.5 c 128,-1,13
 399 1010 399 1010 379.5 941 c 128,-1,14
 360 872 360 872 352 802.5 c 128,-1,15
 344 733 344 733 344 670 c 0,16,17
 344 630 344 630 348.5 590 c 128,-1,18
 353 550 353 550 364 513 c 128,-1,19
 375 476 375 476 394.5 443 c 128,-1,20
 414 410 414 410 444 384 c 1,21,22
 483 352 483 352 530 333 c 128,-1,23
 577 314 577 314 627 303 c 128,-1,24
 677 292 677 292 729.5 288.5 c 128,-1,25
 782 285 782 285 832 285 c 0,26,27
 888 285 888 285 944 295 c 128,-1,28
 1000 305 1000 305 1054 325.5 c 128,-1,29
 1108 346 1108 346 1158 375.5 c 128,-1,30
 1208 405 1208 405 1252 444 c 1,31,32
 1248 371 1248 371 1246 298.5 c 128,-1,33
 1244 226 1244 226 1244 154 c 2,34,-1
 1244 121 l 1,35,36
 1143 59 1143 59 1030.5 34 c 128,-1,37
 918 9 918 9 806 9 c 0,38,39
 734 9 734 9 661.5 18.5 c 128,-1,40
 589 28 589 28 521.5 49.5 c 128,-1,41
 454 71 454 71 393.5 107 c 128,-1,42
 333 143 333 143 286 197 c 1,43,44
 251 242 251 242 227 293 c 128,-1,45
 203 344 203 344 188.5 399 c 128,-1,46
 174 454 174 454 168 511.5 c 128,-1,47
 162 569 162 569 162 628 c 0,48,49
 162 707 162 707 171 796.5 c 128,-1,50
 180 886 180 886 204.5 974 c 128,-1,51
 229 1062 229 1062 271.5 1143.5 c 128,-1,52
 314 1225 314 1225 380 1290 c 0,53,54
 437 1347 437 1347 504.5 1384 c 128,-1,55
 572 1421 572 1421 645 1442.5 c 128,-1,56
 718 1464 718 1464 793.5 1472.5 c 128,-1,57
 869 1481 869 1481 942 1481 c 0,58,59
 997 1481 997 1481 1052.5 1475 c 128,-1,60
 1108 1469 1108 1469 1161.5 1456 c 128,-1,61
 1215 1443 1215 1443 1264.5 1421.5 c 128,-1,62
 1314 1400 1314 1400 1358 1369 c 1,63,64
 1358 1371 1358 1371 1356 1377 c 1,0,1
EndSplineSet
Validated: 5
EndChar

StartChar: D
Encoding: 68 68 39
Width: 1698
Flags: W
LayerCount: 2
Fore
SplineSet
589 1322 m 1,0,1
 581 1084 581 1084 563 848 c 128,-1,2
 545 612 545 612 516 374 c 1,3,4
 637 378 637 378 760 380 c 1,5,6
 812 382 812 382 865.5 384 c 128,-1,7
 919 386 919 386 972.5 393.5 c 128,-1,8
 1026 401 1026 401 1077.5 416 c 128,-1,9
 1129 431 1129 431 1178 459 c 1,10,11
 1217 486 1217 486 1246 521.5 c 128,-1,12
 1275 557 1275 557 1297 597.5 c 128,-1,13
 1319 638 1319 638 1335 681 c 128,-1,14
 1351 724 1351 724 1365 766 c 1,15,16
 1367 790 1367 790 1368 815 c 128,-1,17
 1369 840 1369 840 1369 865 c 0,18,19
 1369 907 1369 907 1365 948 c 128,-1,20
 1361 989 1361 989 1350.5 1028 c 128,-1,21
 1340 1067 1340 1067 1322.5 1103 c 128,-1,22
 1305 1139 1305 1139 1278 1170 c 1,23,24
 1235 1215 1235 1215 1182.5 1242.5 c 128,-1,25
 1130 1270 1130 1270 1072.5 1285 c 128,-1,26
 1015 1300 1015 1300 955 1306 c 128,-1,27
 895 1312 895 1312 837 1314 c 1,28,29
 775 1315 775 1315 713.5 1317 c 128,-1,30
 652 1319 652 1319 589 1322 c 1,0,1
403 1484 m 1,31,32
 503 1472 503 1472 603 1465.5 c 128,-1,33
 703 1459 703 1459 805 1457 c 1,34,35
 884 1453 884 1453 966.5 1446.5 c 128,-1,36
 1049 1440 1049 1440 1127.5 1423.5 c 128,-1,37
 1206 1407 1206 1407 1278.5 1376 c 128,-1,38
 1351 1345 1351 1345 1410 1291 c 1,39,40
 1449 1252 1449 1252 1474 1205.5 c 128,-1,41
 1499 1159 1499 1159 1514 1107.5 c 128,-1,42
 1529 1056 1529 1056 1534.5 1001 c 128,-1,43
 1540 946 1540 946 1540 891 c 0,44,45
 1540 814 1540 814 1532 720 c 128,-1,46
 1524 626 1524 626 1500 532 c 128,-1,47
 1476 438 1476 438 1431 351 c 128,-1,48
 1386 264 1386 264 1312 201 c 1,49,50
 1243 148 1243 148 1166 116.5 c 128,-1,51
 1089 85 1089 85 1008 68 c 128,-1,52
 927 51 927 51 844 44.5 c 128,-1,53
 761 38 761 38 681 35 c 0,54,55
 578 32 578 32 477.5 26.5 c 128,-1,56
 377 21 377 21 274 10 c 1,57,58
 340 347 340 347 372 682.5 c 128,-1,59
 404 1018 404 1018 404 1355 c 0,60,61
 404 1387 404 1387 404 1419.5 c 128,-1,62
 404 1452 404 1452 403 1484 c 1,31,32
EndSplineSet
Validated: 1
EndChar

StartChar: E
Encoding: 69 69 40
Width: 1407
Flags: W
LayerCount: 2
Fore
SplineSet
403 1484 m 1,0,1
 516 1468 516 1468 630 1460.5 c 128,-1,2
 744 1453 744 1453 860 1453 c 0,3,4
 977 1453 977 1453 1093 1460.5 c 128,-1,5
 1209 1468 1209 1468 1327 1482 c 1,6,7
 1321 1444 1321 1444 1314 1406 c 128,-1,8
 1307 1368 1307 1368 1302 1330 c 1,9,10
 1193 1319 1193 1319 1084.5 1313.5 c 128,-1,11
 976 1308 976 1308 867 1308 c 0,12,13
 721 1308 721 1308 577 1317 c 1,14,15
 572 1204 572 1204 564 1092 c 128,-1,16
 556 980 556 980 547 867 c 1,17,18
 610 866 610 866 672 865.5 c 128,-1,19
 734 865 734 865 797 865 c 0,20,21
 903 865 903 865 1006.5 866.5 c 128,-1,22
 1110 868 1110 868 1216 870 c 1,23,24
 1211 833 1211 833 1208 796 c 128,-1,25
 1205 759 1205 759 1202 722 c 1,26,27
 1034 722 1034 722 868.5 721.5 c 128,-1,28
 703 721 703 721 535 721 c 1,29,30
 526 618 526 618 515.5 516.5 c 128,-1,31
 505 415 505 415 494 312 c 1,32,33
 635 318 635 318 775 318 c 0,34,35
 887 318 887 318 998 314 c 128,-1,36
 1109 310 1109 310 1221 301 c 1,37,38
 1217 228 1217 228 1216.5 155.5 c 128,-1,39
 1216 83 1216 83 1216 10 c 1,40,41
 1101 24 1101 24 985 31 c 128,-1,42
 869 38 869 38 751 38 c 0,43,44
 632 38 632 38 513 31 c 128,-1,45
 394 24 394 24 274 10 c 1,46,47
 337 380 337 380 368 747 c 128,-1,48
 399 1114 399 1114 403 1484 c 1,0,1
EndSplineSet
Validated: 1
EndChar

StartChar: F
Encoding: 70 70 41
Width: 1108
Flags: W
LayerCount: 2
Fore
SplineSet
416 1478 m 1,0,1
 507 1465 507 1465 598.5 1459 c 128,-1,2
 690 1453 690 1453 783 1453 c 0,3,4
 892 1453 892 1453 999 1461 c 128,-1,5
 1106 1469 1106 1469 1215 1484 c 1,6,7
 1208 1443 1208 1443 1202 1403 c 128,-1,8
 1196 1363 1196 1363 1190 1322 c 1,9,10
 1084 1309 1084 1309 979.5 1303.5 c 128,-1,11
 875 1298 875 1298 769 1298 c 0,12,13
 723 1298 723 1298 677.5 1299 c 128,-1,14
 632 1300 632 1300 587 1302 c 1,15,16
 575 1193 575 1193 562.5 1085 c 128,-1,17
 550 977 550 977 536 868 c 1,18,19
 582 868 582 868 627 867.5 c 128,-1,20
 672 867 672 867 718 867 c 0,21,22
 810 867 810 867 901 868 c 128,-1,23
 992 869 992 869 1084 871 c 1,24,25
 1078 824 1078 824 1074.5 777.5 c 128,-1,26
 1071 731 1071 731 1066 684 c 1,27,28
 1021 685 1021 685 977 685 c 128,-1,29
 933 685 933 685 888 685 c 0,30,31
 798 685 798 685 709 684.5 c 128,-1,32
 620 684 620 684 530 684 c 1,33,34
 519 520 519 520 508 358.5 c 128,-1,35
 497 197 497 197 481 33 c 1,36,37
 423 29 423 29 364.5 24 c 128,-1,38
 306 19 306 19 248 10 c 1,39,40
 317 378 317 378 357.5 743.5 c 128,-1,41
 398 1109 398 1109 416 1478 c 1,0,1
EndSplineSet
Validated: 1
EndChar

StartChar: G
Encoding: 71 71 42
Width: 1692
Flags: W
LayerCount: 2
Fore
SplineSet
1155 382 m 0,0,1
 1157 424 1157 424 1160 465.5 c 128,-1,2
 1163 507 1163 507 1166 549 c 1,3,4
 1091 551 1091 551 1015.5 551 c 128,-1,5
 940 551 940 551 865 551 c 1,6,-1
 881 740 l 1,7,8
 1006 740 1006 740 1129 740.5 c 128,-1,9
 1252 741 1252 741 1377 741 c 1,10,11
 1364 591 1364 591 1356.5 442.5 c 128,-1,12
 1349 294 1349 294 1349 145 c 1,13,14
 1290 107 1290 107 1226.5 81 c 128,-1,15
 1163 55 1163 55 1096.5 39.5 c 128,-1,16
 1030 24 1030 24 962.5 17 c 128,-1,17
 895 10 895 10 828 10 c 0,18,19
 755 10 755 10 680.5 17.5 c 128,-1,20
 606 25 606 25 536 45.5 c 128,-1,21
 466 66 466 66 404 102 c 128,-1,22
 342 138 342 138 294 194 c 0,23,24
 258 236 258 236 234 285.5 c 128,-1,25
 210 335 210 335 195.5 389 c 128,-1,26
 181 443 181 443 175.5 500 c 128,-1,27
 170 557 170 557 170 614 c 0,28,29
 170 667 170 667 173.5 726 c 128,-1,30
 177 785 177 785 186 846 c 128,-1,31
 195 907 195 907 210.5 968 c 128,-1,32
 226 1029 226 1029 250.5 1086.5 c 128,-1,33
 275 1144 275 1144 309.5 1196.5 c 128,-1,34
 344 1249 344 1249 390 1293 c 1,35,36
 445 1348 445 1348 512 1384 c 128,-1,37
 579 1420 579 1420 651.5 1441.5 c 128,-1,38
 724 1463 724 1463 798.5 1472 c 128,-1,39
 873 1481 873 1481 945 1481 c 0,40,41
 1008 1481 1008 1481 1071 1475.5 c 128,-1,42
 1134 1470 1134 1470 1194.5 1457.5 c 128,-1,43
 1255 1445 1255 1445 1312 1423.5 c 128,-1,44
 1369 1402 1369 1402 1421 1369 c 1,45,46
 1414 1327 1414 1327 1407 1285 c 128,-1,47
 1400 1243 1400 1243 1395 1201 c 1,48,49
 1351 1241 1351 1241 1299.5 1270.5 c 128,-1,50
 1248 1300 1248 1300 1191 1319.5 c 128,-1,51
 1134 1339 1134 1339 1073.5 1348.5 c 128,-1,52
 1013 1358 1013 1358 952 1358 c 0,53,54
 898 1358 898 1358 841 1352 c 128,-1,55
 784 1346 784 1346 729 1330.5 c 128,-1,56
 674 1315 674 1315 623 1288 c 128,-1,57
 572 1261 572 1261 529 1220 c 1,58,59
 477 1166 477 1166 443.5 1101.5 c 128,-1,60
 410 1037 410 1037 390.5 969 c 128,-1,61
 371 901 371 901 363.5 832.5 c 128,-1,62
 356 764 356 764 356 702 c 0,63,64
 356 660 356 660 359.5 617 c 128,-1,65
 363 574 363 574 374 534.5 c 128,-1,66
 385 495 385 495 404.5 459.5 c 128,-1,67
 424 424 424 424 457 396 c 1,68,69
 497 367 497 367 543.5 349.5 c 128,-1,70
 590 332 590 332 639.5 322.5 c 128,-1,71
 689 313 689 313 740.5 309 c 128,-1,72
 792 305 792 305 843 304 c 1,73,74
 881 305 881 305 924 306 c 128,-1,75
 967 307 967 307 1009 314 c 128,-1,76
 1051 321 1051 321 1088 335 c 128,-1,77
 1125 349 1125 349 1151 375 c 0,78,79
 1152 377 1152 377 1153 378.5 c 128,-1,80
 1154 380 1154 380 1155 382 c 0,0,1
EndSplineSet
Validated: 1
EndChar

StartChar: H
Encoding: 72 72 43
Width: 1688
Flags: W
LayerCount: 2
Fore
SplineSet
413 1482 m 1,0,1
 460 1475 460 1475 507 1471 c 128,-1,2
 554 1467 554 1467 602 1464 c 1,3,4
 597 1290 597 1290 587 1117.5 c 128,-1,5
 577 945 577 945 562 770 c 1,6,7
 611 770 611 770 660 769.5 c 128,-1,8
 709 769 709 769 758 769 c 0,9,10
 877 769 877 769 995.5 769.5 c 128,-1,11
 1114 770 1114 770 1233 771 c 1,12,13
 1248 946 1248 946 1268.5 1118.5 c 128,-1,14
 1289 1291 1289 1291 1318 1465 c 1,15,16
 1366 1470 1366 1470 1414.5 1473.5 c 128,-1,17
 1463 1477 1463 1477 1511 1482 c 1,18,19
 1456 1167 1456 1167 1427 854 c 128,-1,20
 1398 541 1398 541 1398 226 c 0,21,22
 1398 172 1398 172 1399 118 c 128,-1,23
 1400 64 1400 64 1402 10 c 1,24,25
 1350 16 1350 16 1298 20 c 128,-1,26
 1246 24 1246 24 1192 28 c 1,27,28
 1193 151 1193 151 1198 272.5 c 128,-1,29
 1203 394 1203 394 1212 517 c 1,30,31
 1042 520 1042 520 875 520 c 0,32,33
 707 520 707 520 539 517 c 1,34,35
 513 272 513 272 476 28 c 1,36,37
 369 20 369 20 264 10 c 1,38,39
 339 378 339 378 374 745 c 128,-1,40
 409 1112 409 1112 413 1482 c 1,0,1
EndSplineSet
Validated: 1
EndChar

StartChar: I
Encoding: 73 73 44
Width: 672
Flags: W
LayerCount: 2
Fore
SplineSet
363 1468 m 1,0,1
 400 1454 400 1454 441 1454 c 0,2,3
 465 1454 465 1454 488.5 1458.5 c 128,-1,4
 512 1463 512 1463 535 1474 c 1,5,6
 502 1106 502 1106 474.5 742 c 128,-1,7
 447 378 447 378 427 10 c 1,8,9
 403 24 403 24 376 31 c 128,-1,10
 349 38 349 38 320 38 c 0,11,12
 261 38 261 38 205 10 c 1,13,14
 252 377 252 377 290 739 c 128,-1,15
 328 1101 328 1101 363 1468 c 1,0,1
EndSplineSet
Validated: 1
EndChar

StartChar: J
Encoding: 74 74 45
Width: 827
Flags: W
LayerCount: 2
Fore
SplineSet
586 1452 m 1,0,1
 634 1454 634 1454 682 1457.5 c 128,-1,2
 730 1461 730 1461 778 1472 c 1,3,4
 720 1122 720 1122 674.5 771.5 c 128,-1,5
 629 421 629 421 590 70 c 0,6,7
 585 24 585 24 578 -23.5 c 128,-1,8
 571 -71 571 -71 557.5 -117.5 c 128,-1,9
 544 -164 544 -164 521.5 -206.5 c 128,-1,10
 499 -249 499 -249 463 -284 c 1,11,12
 426 -316 426 -316 384.5 -334.5 c 128,-1,13
 343 -353 343 -353 299 -365 c 128,-1,14
 255 -377 255 -377 209.5 -384.5 c 128,-1,15
 164 -392 164 -392 121 -400 c 1,16,-1
 122 -400 l 1,17,18
 95 -402 95 -402 68 -404.5 c 128,-1,19
 41 -407 41 -407 14 -410 c 1,20,21
 24 -332 24 -332 32 -255.5 c 128,-1,22
 40 -179 40 -179 48 -101 c 1,23,24
 69 -103 69 -103 90.5 -104.5 c 128,-1,25
 112 -106 112 -106 133 -108 c 1,26,27
 175 -101 175 -101 220.5 -87.5 c 128,-1,28
 266 -74 266 -74 306 -50.5 c 128,-1,29
 346 -27 346 -27 374 8 c 128,-1,30
 402 43 402 43 410 93 c 1,31,32
 452 435 452 435 494 772.5 c 128,-1,33
 536 1110 536 1110 586 1452 c 1,0,1
EndSplineSet
Validated: 1
EndChar

StartChar: K
Encoding: 75 75 46
Width: 1599
Flags: W
LayerCount: 2
Fore
SplineSet
424 1479 m 1,0,1
 515 1470 515 1470 605 1464 c 1,2,3
 596 1306 596 1306 582.5 1149.5 c 128,-1,4
 569 993 569 993 552 835 c 1,5,6
 729 996 729 996 909 1150.5 c 128,-1,7
 1089 1305 1089 1305 1270 1462 c 1,8,9
 1329 1464 1329 1464 1386 1468.5 c 128,-1,10
 1443 1473 1443 1473 1502 1478 c 1,11,12
 1306 1306 1306 1306 1112 1137 c 128,-1,13
 918 968 918 968 723 795 c 1,14,15
 900 597 900 597 1074 401 c 128,-1,16
 1248 205 1248 205 1428 10 c 1,17,18
 1318 22 1318 22 1207 28.5 c 128,-1,19
 1096 35 1096 35 984 37 c 1,20,21
 867 213 867 213 759 391.5 c 128,-1,22
 651 570 651 570 543 752 c 1,23,24
 531 390 531 390 498 29 c 1,25,26
 438 25 438 25 377.5 21 c 128,-1,27
 317 17 317 17 256 10 c 1,28,29
 334 377 334 377 375.5 743.5 c 128,-1,30
 417 1110 417 1110 424 1479 c 1,0,1
EndSplineSet
Validated: 1
EndChar

StartChar: L
Encoding: 76 76 47
Width: 1204
Flags: W
LayerCount: 2
Fore
SplineSet
411 1481 m 1,0,1
 456 1474 456 1474 500.5 1469 c 128,-1,2
 545 1464 545 1464 590 1462 c 1,3,4
 561 886 561 886 491 312 c 1,5,6
 626 318 626 318 760 318 c 0,7,8
 868 318 868 318 974 314 c 128,-1,9
 1080 310 1080 310 1187 301 c 1,10,11
 1179 229 1179 229 1173 157 c 128,-1,12
 1167 85 1167 85 1163 13 c 1,13,14
 1054 26 1054 26 945.5 32 c 128,-1,15
 837 38 837 38 727 38 c 0,16,17
 610 38 610 38 494.5 31 c 128,-1,18
 379 24 379 24 262 10 c 1,19,20
 329 379 329 379 365 745 c 128,-1,21
 401 1111 401 1111 411 1481 c 1,0,1
EndSplineSet
Validated: 1
EndChar

StartChar: M
Encoding: 77 77 48
Width: 1929
Flags: W
LayerCount: 2
Fore
SplineSet
421 1481 m 1,0,1
 491 1474 491 1474 561.5 1469.5 c 128,-1,2
 632 1465 632 1465 702 1461 c 1,3,4
 787 1245 787 1245 860.5 1027.5 c 128,-1,5
 934 810 934 810 1004 588 c 1,6,7
 1119 808 1119 808 1234.5 1029 c 128,-1,8
 1350 1250 1350 1250 1480 1463 c 1,9,10
 1613 1470 1613 1470 1747 1481 c 1,11,12
 1694 1196 1694 1196 1665.5 912.5 c 128,-1,13
 1637 629 1637 629 1637 344 c 0,14,15
 1637 259 1637 259 1640 176.5 c 128,-1,16
 1643 94 1643 94 1648 10 c 1,17,18
 1589 15 1589 15 1531 19.5 c 128,-1,19
 1473 24 1473 24 1413 27 c 1,20,21
 1420 347 1420 347 1456 664.5 c 128,-1,22
 1492 982 1492 982 1549 1301 c 1,23,24
 1544 1302 1544 1302 1540.5 1302.5 c 128,-1,25
 1537 1303 1537 1303 1533 1304 c 1,26,27
 1409 1049 1409 1049 1301 788 c 128,-1,28
 1193 527 1193 527 1086 266 c 1,29,30
 1058 266 1058 266 1031 266.5 c 128,-1,31
 1004 267 1004 267 976 267 c 256,32,33
 948 267 948 267 920.5 266.5 c 128,-1,34
 893 266 893 266 866 266 c 1,35,36
 834 396 834 396 803.5 526.5 c 128,-1,37
 773 657 773 657 740.5 787 c 128,-1,38
 708 917 708 917 673.5 1046 c 128,-1,39
 639 1175 639 1175 600 1303 c 1,40,41
 595 1302 595 1302 591.5 1301 c 128,-1,42
 588 1300 588 1300 583 1300 c 1,43,-1
 583 1240 l 2,44,45
 583 936 583 936 562 634 c 128,-1,46
 541 332 541 332 499 26 c 1,47,48
 440 24 440 24 381 19.5 c 128,-1,49
 322 15 322 15 262 10 c 1,50,51
 346 378 346 378 383.5 744.5 c 128,-1,52
 421 1111 421 1111 421 1481 c 1,0,1
EndSplineSet
Validated: 1
EndChar

StartChar: N
Encoding: 78 78 49
Width: 1673
Flags: W
LayerCount: 2
Fore
SplineSet
418 1449 m 1,0,1
 476 1442 476 1442 534 1438.5 c 128,-1,2
 592 1435 592 1435 651 1431 c 1,3,4
 724 1287 724 1287 791 1140.5 c 128,-1,5
 858 994 858 994 923.5 846 c 128,-1,6
 989 698 989 698 1054.5 550.5 c 128,-1,7
 1120 403 1120 403 1190 258 c 1,8,9
 1212 563 1212 563 1248.5 864.5 c 128,-1,10
 1285 1166 1285 1166 1342 1469 c 1,11,12
 1384 1472 1384 1472 1425.5 1475.5 c 128,-1,13
 1467 1479 1467 1479 1509 1484 c 1,14,15
 1446 1144 1446 1144 1412.5 805.5 c 128,-1,16
 1379 467 1379 467 1379 127 c 0,17,18
 1379 98 1379 98 1379 68.5 c 128,-1,19
 1379 39 1379 39 1380 10 c 1,20,21
 1311 18 1311 18 1243 23 c 128,-1,22
 1175 28 1175 28 1106 32 c 1,23,24
 1032 180 1032 180 964 331.5 c 128,-1,25
 896 483 896 483 830 635.5 c 128,-1,26
 764 788 764 788 698 940.5 c 128,-1,27
 632 1093 632 1093 561 1243 c 1,28,-1
 545 1239 l 1,29,30
 545 935 545 935 530 634.5 c 128,-1,31
 515 334 515 334 486 29 c 1,32,33
 427 25 427 25 368.5 21 c 128,-1,34
 310 17 310 17 250 10 c 1,35,36
 327 370 327 370 367.5 728.5 c 128,-1,37
 408 1087 408 1087 418 1449 c 1,0,1
EndSplineSet
Validated: 1
EndChar

StartChar: O
Encoding: 79 79 50
Width: 1733
Flags: W
LayerCount: 2
Fore
SplineSet
873 1340 m 0,0,1
 823 1340 823 1340 773.5 1331 c 128,-1,2
 724 1322 724 1322 677.5 1302.5 c 128,-1,3
 631 1283 631 1283 589.5 1253.5 c 128,-1,4
 548 1224 548 1224 515 1182 c 1,5,6
 471 1129 471 1129 441 1066 c 128,-1,7
 411 1003 411 1003 393 936.5 c 128,-1,8
 375 870 375 870 367 802.5 c 128,-1,9
 359 735 359 735 359 673 c 0,10,11
 359 638 359 638 363 603.5 c 128,-1,12
 367 569 367 569 378 537.5 c 128,-1,13
 389 506 389 506 408 479.5 c 128,-1,14
 427 453 427 453 456 434 c 0,15,16
 492 411 492 411 532 397 c 128,-1,17
 572 383 572 383 614 375 c 128,-1,18
 656 367 656 367 699.5 364 c 128,-1,19
 743 361 743 361 786 361 c 0,20,21
 872 361 872 361 959.5 375.5 c 128,-1,22
 1047 390 1047 390 1127 436 c 1,23,-1
 1127 435 l 1,24,25
 1180 467 1180 467 1210.5 518.5 c 128,-1,26
 1241 570 1241 570 1256.5 627.5 c 128,-1,27
 1272 685 1272 685 1276 743 c 128,-1,28
 1280 801 1280 801 1280 846 c 0,29,30
 1280 937 1280 937 1263 1022.5 c 128,-1,31
 1246 1108 1246 1108 1200 1183 c 1,32,33
 1146 1262 1146 1262 1058.5 1301 c 128,-1,34
 971 1340 971 1340 873 1340 c 0,0,1
886 1480 m 0,35,36
 952 1480 952 1480 1018 1470.5 c 128,-1,37
 1084 1461 1084 1461 1144.5 1438.5 c 128,-1,38
 1205 1416 1205 1416 1257 1380 c 128,-1,39
 1309 1344 1309 1344 1348 1290 c 0,40,41
 1381 1246 1381 1246 1403 1196.5 c 128,-1,42
 1425 1147 1425 1147 1438 1094 c 128,-1,43
 1451 1041 1451 1041 1456.5 985.5 c 128,-1,44
 1462 930 1462 930 1462 874 c 0,45,46
 1462 791 1462 791 1452 701.5 c 128,-1,47
 1442 612 1442 612 1418 523.5 c 128,-1,48
 1394 435 1394 435 1353 352.5 c 128,-1,49
 1312 270 1312 270 1251 200 c 1,50,51
 1201 146 1201 146 1140.5 109.5 c 128,-1,52
 1080 73 1080 73 1014.5 51 c 128,-1,53
 949 29 949 29 879.5 19.5 c 128,-1,54
 810 10 810 10 742 10 c 0,55,56
 677 10 677 10 613 20.5 c 128,-1,57
 549 31 549 31 490.5 53.5 c 128,-1,58
 432 76 432 76 381 112 c 128,-1,59
 330 148 330 148 291 199 c 0,60,61
 258 243 258 243 235.5 292 c 128,-1,62
 213 341 213 341 200 394 c 128,-1,63
 187 447 187 447 181.5 502.5 c 128,-1,64
 176 558 176 558 176 615 c 0,65,66
 176 696 176 696 184.5 785.5 c 128,-1,67
 193 875 193 875 216 964.5 c 128,-1,68
 239 1054 239 1054 280 1137.5 c 128,-1,69
 321 1221 321 1221 386 1289 c 1,70,71
 435 1342 435 1342 494.5 1378.5 c 128,-1,72
 554 1415 554 1415 618.5 1437.5 c 128,-1,73
 683 1460 683 1460 751 1470 c 128,-1,74
 819 1480 819 1480 886 1480 c 0,35,36
EndSplineSet
Validated: 1
EndChar

StartChar: P
Encoding: 80 80 51
Width: 1276
Flags: W
LayerCount: 2
Fore
SplineSet
615 1395 m 1,0,1
 602 1253 602 1253 588.5 1113.5 c 128,-1,2
 575 974 575 974 558 832 c 1,3,4
 632 831 632 831 704.5 830.5 c 128,-1,5
 777 830 777 830 851 830 c 0,6,7
 909 830 909 830 964 852.5 c 128,-1,8
 1019 875 1019 875 1062 914 c 128,-1,9
 1105 953 1105 953 1132 1005.5 c 128,-1,10
 1159 1058 1159 1058 1160 1118 c 1,11,12
 1163 1140 1163 1140 1163 1165 c 0,13,14
 1163 1237 1163 1237 1134.5 1281 c 128,-1,15
 1106 1325 1106 1325 1063.5 1349 c 128,-1,16
 1021 1373 1021 1373 970.5 1381.5 c 128,-1,17
 920 1390 920 1390 875 1390 c 0,18,19
 809 1390 809 1390 744.5 1390.5 c 128,-1,20
 680 1391 680 1391 615 1395 c 1,0,1
427 1476 m 1,21,22
 535 1463 535 1463 643.5 1458.5 c 128,-1,23
 752 1454 752 1454 862 1454 c 0,24,25
 904 1454 904 1454 946 1451.5 c 128,-1,26
 988 1449 988 1449 1028.5 1442 c 128,-1,27
 1069 1435 1069 1435 1108 1422.5 c 128,-1,28
 1147 1410 1147 1410 1182 1389 c 1,29,30
 1216 1367 1216 1367 1239 1337.5 c 128,-1,31
 1262 1308 1262 1308 1276.5 1274 c 128,-1,32
 1291 1240 1291 1240 1297 1202.5 c 128,-1,33
 1303 1165 1303 1165 1303 1127 c 0,34,35
 1303 1075 1303 1075 1294.5 1018.5 c 128,-1,36
 1286 962 1286 962 1267 907 c 128,-1,37
 1248 852 1248 852 1218 801.5 c 128,-1,38
 1188 751 1188 751 1145 711 c 0,39,40
 1108 676 1108 676 1065 654 c 128,-1,41
 1022 632 1022 632 975.5 619 c 128,-1,42
 929 606 929 606 881 601 c 128,-1,43
 833 596 833 596 787 596 c 0,44,45
 727 596 727 596 667 596 c 128,-1,46
 607 596 607 596 546 594 c 1,47,48
 529 452 529 452 507.5 311.5 c 128,-1,49
 486 171 486 171 462 30 c 1,50,51
 407 26 407 26 351.5 21.5 c 128,-1,52
 296 17 296 17 240 10 c 1,53,54
 319 377 319 377 363.5 742 c 128,-1,55
 408 1107 408 1107 427 1476 c 1,21,22
EndSplineSet
Validated: 1
EndChar

StartChar: Q
Encoding: 81 81 52
Width: 1724
Flags: W
LayerCount: 2
Fore
SplineSet
813 1334 m 0,0,1
 712 1334 712 1334 618 1297 c 128,-1,2
 524 1260 524 1260 455 1178 c 0,3,4
 412 1127 412 1127 382.5 1065.5 c 128,-1,5
 353 1004 353 1004 334.5 939.5 c 128,-1,6
 316 875 316 875 308 809 c 128,-1,7
 300 743 300 743 300 683 c 0,8,9
 300 647 300 647 304 611 c 128,-1,10
 308 575 308 575 319 542 c 128,-1,11
 330 509 330 509 349.5 481 c 128,-1,12
 369 453 369 453 400 434 c 0,13,14
 468 391 468 391 540 372 c 128,-1,15
 612 353 612 353 699 341 c 1,16,17
 721 374 721 374 743 406.5 c 128,-1,18
 765 439 765 439 787 472 c 1,19,20
 888 423 888 423 1006 406 c 1,21,22
 1071 438 1071 438 1113.5 486.5 c 128,-1,23
 1156 535 1156 535 1180.5 593.5 c 128,-1,24
 1205 652 1205 652 1214.5 717 c 128,-1,25
 1224 782 1224 782 1224 847 c 0,26,27
 1224 935 1224 935 1206.5 1019.5 c 128,-1,28
 1189 1104 1189 1104 1142 1176 c 0,29,30
 1116 1216 1116 1216 1079.5 1246 c 128,-1,31
 1043 1276 1043 1276 1000 1295.5 c 128,-1,32
 957 1315 957 1315 909.5 1324.5 c 128,-1,33
 862 1334 862 1334 813 1334 c 0,0,1
1123 95 m 1,34,35
 1194 6 1194 6 1266.5 -80 c 128,-1,36
 1339 -166 1339 -166 1412 -254 c 1,37,38
 1301 -242 1301 -242 1190 -235 c 128,-1,39
 1079 -228 1079 -228 967 -225 c 1,40,41
 918 -166 918 -166 869.5 -108 c 128,-1,42
 821 -50 821 -50 773 10 c 1,43,44
 755 8 755 8 736.5 7 c 128,-1,45
 718 6 718 6 699 6 c 0,46,47
 633 6 633 6 568 16 c 128,-1,48
 503 26 503 26 443.5 48.5 c 128,-1,49
 384 71 384 71 332.5 107 c 128,-1,50
 281 143 281 143 241 196 c 1,51,52
 172 293 172 293 145.5 409 c 128,-1,53
 119 525 119 525 119 647 c 0,54,55
 119 725 119 725 128 810.5 c 128,-1,56
 137 896 137 896 160.5 980 c 128,-1,57
 184 1064 184 1064 223.5 1142.5 c 128,-1,58
 263 1221 263 1221 325 1286 c 0,59,60
 373 1336 373 1336 430 1371.5 c 128,-1,61
 487 1407 487 1407 549.5 1430 c 128,-1,62
 612 1453 612 1453 677.5 1463.5 c 128,-1,63
 743 1474 743 1474 807 1474 c 0,64,65
 876 1474 876 1474 945 1465.5 c 128,-1,66
 1014 1457 1014 1457 1077 1435 c 128,-1,67
 1140 1413 1140 1413 1195 1376.5 c 128,-1,68
 1250 1340 1250 1340 1291 1284 c 1,69,70
 1324 1242 1324 1242 1346.5 1193.5 c 128,-1,71
 1369 1145 1369 1145 1382.5 1092.5 c 128,-1,72
 1396 1040 1396 1040 1401.5 985 c 128,-1,73
 1407 930 1407 930 1407 875 c 0,74,75
 1407 814 1407 814 1402 746 c 128,-1,76
 1397 678 1397 678 1384 609 c 128,-1,77
 1371 540 1371 540 1349.5 472.5 c 128,-1,78
 1328 405 1328 405 1294 345 c 1,79,80
 1256 282 1256 282 1215 222.5 c 128,-1,81
 1174 163 1174 163 1123 109 c 1,82,-1
 1123 95 l 1,34,35
EndSplineSet
Validated: 1
EndChar

StartChar: R
Encoding: 82 82 53
Width: 1534
Flags: W
LayerCount: 2
Fore
SplineSet
1021 693 m 1,0,1
 1064 675 1064 675 1095 643.5 c 128,-1,2
 1126 612 1126 612 1150 574 c 128,-1,3
 1174 536 1174 536 1192.5 494.5 c 128,-1,4
 1211 453 1211 453 1229 413 c 1,5,6
 1272 310 1272 310 1317.5 210 c 128,-1,7
 1363 110 1363 110 1412 10 c 1,8,9
 1346 18 1346 18 1281 22.5 c 128,-1,10
 1216 27 1216 27 1150 31 c 1,11,12
 1115 123 1115 123 1084.5 214.5 c 128,-1,13
 1054 306 1054 306 1024 400 c 1,14,15
 1013 427 1013 427 1000.5 453.5 c 128,-1,16
 988 480 988 480 973.5 505.5 c 128,-1,17
 959 531 959 531 941.5 554 c 128,-1,18
 924 577 924 577 902 596 c 1,19,20
 863 624 863 624 817 634 c 128,-1,21
 771 644 771 644 722 644 c 0,22,23
 684 644 684 644 646.5 643.5 c 128,-1,24
 609 643 609 643 571 642 c 1,25,26
 557 487 557 487 538.5 335 c 128,-1,27
 520 183 520 183 497 28 c 1,28,29
 441 26 441 26 386 21 c 128,-1,30
 331 16 331 16 274 10 c 1,31,32
 340 364 340 364 371.5 715 c 128,-1,33
 403 1066 403 1066 403 1420 c 2,34,-1
 403 1484 l 1,35,36
 514 1470 514 1470 624.5 1463.5 c 128,-1,37
 735 1457 735 1457 847 1455 c 0,38,39
 923 1453 923 1453 997 1440 c 128,-1,40
 1071 1427 1071 1427 1136 1389 c 1,41,42
 1172 1365 1172 1365 1197 1333.5 c 128,-1,43
 1222 1302 1222 1302 1237.5 1267 c 128,-1,44
 1253 1232 1253 1232 1259.5 1194 c 128,-1,45
 1266 1156 1266 1156 1266 1117 c 0,46,47
 1266 1060 1266 1060 1252.5 996.5 c 128,-1,48
 1239 933 1239 933 1210 876 c 128,-1,49
 1181 819 1181 819 1135 774.5 c 128,-1,50
 1089 730 1089 730 1023 710 c 1,51,-1
 1022 699 l 1,52,-1
 1021 693 l 1,0,1
600 1380 m 1,53,54
 595 1240 595 1240 587.5 1102 c 128,-1,55
 580 964 580 964 569 824 c 1,56,57
 632 823 632 823 695 823 c 128,-1,58
 758 823 758 823 821 823 c 0,59,60
 870 823 870 823 925 839 c 128,-1,61
 980 855 980 855 1027 885 c 128,-1,62
 1074 915 1074 915 1107 957 c 128,-1,63
 1140 999 1140 999 1144 1051 c 0,64,65
 1145 1067 1145 1067 1146 1083 c 128,-1,66
 1147 1099 1147 1099 1147 1116 c 0,67,68
 1147 1171 1147 1171 1132 1221.5 c 128,-1,69
 1117 1272 1117 1272 1071 1304 c 1,70,-1
 1072 1304 l 1,71,72
 1026 1336 1026 1336 972 1353 c 128,-1,73
 918 1370 918 1370 860 1371 c 0,74,75
 795 1372 795 1372 730.5 1373.5 c 128,-1,76
 666 1375 666 1375 600 1380 c 1,53,54
EndSplineSet
Validated: 1
EndChar

StartChar: S
Encoding: 83 83 54
Width: 1430
Flags: W
LayerCount: 2
Fore
SplineSet
1251 1435 m 1,0,1
 1244 1390 1244 1390 1237 1345 c 128,-1,2
 1230 1300 1230 1300 1224 1255 c 1,3,4
 1133 1293 1133 1293 1038 1316.5 c 128,-1,5
 943 1340 943 1340 842 1340 c 0,6,7
 779 1340 779 1340 715.5 1329.5 c 128,-1,8
 652 1319 652 1319 593 1287 c 1,9,10
 531 1247 531 1247 506.5 1192.5 c 128,-1,11
 482 1138 482 1138 482 1081 c 0,12,13
 482 1043 482 1043 492.5 1006.5 c 128,-1,14
 503 970 503 970 530 944 c 1,15,16
 575 908 575 908 630 891.5 c 128,-1,17
 685 875 685 875 742 863 c 0,18,19
 786 853 786 853 831.5 844 c 128,-1,20
 877 835 877 835 921 823 c 128,-1,21
 965 811 965 811 1007.5 794 c 128,-1,22
 1050 777 1050 777 1088 751 c 0,23,24
 1163 698 1163 698 1196 618.5 c 128,-1,25
 1229 539 1229 539 1229 452 c 0,26,27
 1229 407 1229 407 1222.5 359 c 128,-1,28
 1216 311 1216 311 1200 266 c 128,-1,29
 1184 221 1184 221 1157 181 c 128,-1,30
 1130 141 1130 141 1088 111 c 1,31,32
 1037 77 1037 77 984 57.5 c 128,-1,33
 931 38 931 38 876.5 28 c 128,-1,34
 822 18 822 18 767 14.5 c 128,-1,35
 712 11 712 11 659 10 c 1,36,37
 543 10 543 10 430.5 26 c 128,-1,38
 318 42 318 42 209 74 c 1,39,40
 221 148 221 148 232 220.5 c 128,-1,41
 243 293 243 293 252 367 c 1,42,43
 349 310 349 310 457.5 282.5 c 128,-1,44
 566 255 566 255 682 255 c 0,45,46
 750 255 750 255 818.5 268 c 128,-1,47
 887 281 887 281 947 320 c 0,48,49
 965 332 965 332 983.5 347 c 128,-1,50
 1002 362 1002 362 1017 380 c 128,-1,51
 1032 398 1032 398 1041 418.5 c 128,-1,52
 1050 439 1050 439 1050 462 c 0,53,54
 1050 506 1050 506 1029 539.5 c 128,-1,55
 1008 573 1008 573 975 597 c 128,-1,56
 942 621 942 621 900 638 c 128,-1,57
 858 655 858 655 816.5 666 c 128,-1,58
 775 677 775 677 737 684 c 128,-1,59
 699 691 699 691 674 697 c 0,60,61
 634 705 634 705 594.5 716.5 c 128,-1,62
 555 728 555 728 517.5 743.5 c 128,-1,63
 480 759 480 759 446 781 c 128,-1,64
 412 803 412 803 384 832 c 1,65,66
 342 879 342 879 325.5 940.5 c 128,-1,67
 309 1002 309 1002 309 1067 c 0,68,69
 309 1110 309 1110 316.5 1154.5 c 128,-1,70
 324 1199 324 1199 340.5 1241 c 128,-1,71
 357 1283 357 1283 384 1319.5 c 128,-1,72
 411 1356 411 1356 451 1384 c 0,73,74
 493 1413 493 1413 539.5 1432 c 128,-1,75
 586 1451 586 1451 635 1461.5 c 128,-1,76
 684 1472 684 1472 733.5 1476 c 128,-1,77
 783 1480 783 1480 832 1480 c 0,78,79
 1050 1480 1050 1480 1256 1426 c 1,80,81
 1255 1428 1255 1428 1253.5 1430.5 c 128,-1,82
 1252 1433 1252 1433 1251 1435 c 1,0,1
EndSplineSet
Validated: 5
EndChar

StartChar: T
Encoding: 84 84 55
Width: 1356
Flags: W
LayerCount: 2
Fore
SplineSet
47 1484 m 1,0,1
 198 1468 198 1468 348.5 1460.5 c 128,-1,2
 499 1453 499 1453 651 1453 c 0,3,4
 812 1453 812 1453 971 1461 c 128,-1,5
 1130 1469 1130 1469 1291 1484 c 1,6,7
 1283 1446 1283 1446 1275.5 1408 c 128,-1,8
 1268 1370 1268 1370 1262 1332 c 1,9,10
 1184 1329 1184 1329 1106 1327 c 128,-1,11
 1028 1325 1028 1325 950 1325 c 0,12,13
 898 1325 898 1325 847 1326 c 128,-1,14
 796 1327 796 1327 745 1329 c 1,15,16
 722 1004 722 1004 702.5 682.5 c 128,-1,17
 683 361 683 361 675 37 c 1,18,19
 647 38 647 38 619.5 38 c 128,-1,20
 592 38 592 38 563 38 c 0,21,22
 525 38 525 38 487 37.5 c 128,-1,23
 449 37 449 37 411 37 c 1,24,25
 455 361 455 361 493 682.5 c 128,-1,26
 531 1004 531 1004 565 1328 c 1,27,28
 448 1325 448 1325 333 1325 c 0,29,30
 261 1325 261 1325 190.5 1326.5 c 128,-1,31
 120 1328 120 1328 49 1333 c 1,32,33
 49 1371 49 1371 48.5 1408.5 c 128,-1,34
 48 1446 48 1446 47 1484 c 1,0,1
EndSplineSet
Validated: 1
EndChar

StartChar: U
Encoding: 85 85 56
Width: 1624
Flags: W
LayerCount: 2
Fore
SplineSet
295 1483 m 1,0,1
 340 1477 340 1477 385 1472.5 c 128,-1,2
 430 1468 430 1468 476 1464 c 1,3,4
 472 1278 472 1278 461 1094.5 c 128,-1,5
 450 911 450 911 434 725 c 0,6,7
 432 698 432 698 430.5 670.5 c 128,-1,8
 429 643 429 643 429 616 c 0,9,10
 429 553 429 553 440 494 c 128,-1,11
 451 435 451 435 484 384 c 1,12,13
 506 353 506 353 536.5 333.5 c 128,-1,14
 567 314 567 314 602.5 302.5 c 128,-1,15
 638 291 638 291 676.5 287 c 128,-1,16
 715 283 715 283 752 283 c 256,17,18
 789 283 789 283 828 287.5 c 128,-1,19
 867 292 867 292 904 303 c 128,-1,20
 941 314 941 314 974.5 334 c 128,-1,21
 1008 354 1008 354 1035 384 c 1,22,23
 1065 420 1065 420 1084.5 461.5 c 128,-1,24
 1104 503 1104 503 1116 547.5 c 128,-1,25
 1128 592 1128 592 1134.5 637 c 128,-1,26
 1141 682 1141 682 1145 726 c 0,27,28
 1162 912 1162 912 1183 1096 c 128,-1,29
 1204 1280 1204 1280 1235 1466 c 1,30,31
 1281 1468 1281 1468 1327 1473 c 128,-1,32
 1373 1478 1373 1478 1419 1483 c 1,33,34
 1374 1252 1374 1252 1347 1022.5 c 128,-1,35
 1320 793 1320 793 1303 561 c 0,36,37
 1299 507 1299 507 1290.5 452 c 128,-1,38
 1282 397 1282 397 1265.5 343.5 c 128,-1,39
 1249 290 1249 290 1223 240 c 128,-1,40
 1197 190 1197 190 1157 148 c 1,41,42
 1111 104 1111 104 1058.5 77 c 128,-1,43
 1006 50 1006 50 951 35 c 128,-1,44
 896 20 896 20 839.5 14.5 c 128,-1,45
 783 9 783 9 729 9 c 0,46,47
 676 9 676 9 621.5 13.5 c 128,-1,48
 567 18 567 18 515.5 31.5 c 128,-1,49
 464 45 464 45 418 68.5 c 128,-1,50
 372 92 372 92 336 131 c 1,51,52
 308 163 308 163 289.5 199 c 128,-1,53
 271 235 271 235 260.5 273.5 c 128,-1,54
 250 312 250 312 246 352 c 128,-1,55
 242 392 242 392 242 433 c 0,56,57
 242 465 242 465 244 497 c 128,-1,58
 246 529 246 529 249 561 c 0,59,60
 271 776 271 776 283 987.5 c 128,-1,61
 295 1199 295 1199 295 1413 c 2,62,-1
 295 1483 l 1,0,1
EndSplineSet
Validated: 1
EndChar

StartChar: V
Encoding: 86 86 57
Width: 1538
Flags: W
LayerCount: 2
Fore
SplineSet
472 37 m 1,0,1
 427 219 427 219 384.5 402 c 128,-1,2
 342 585 342 585 296.5 767 c 128,-1,3
 251 949 251 949 200 1128.5 c 128,-1,4
 149 1308 149 1308 86 1484 c 1,5,6
 133 1479 133 1479 179 1475 c 128,-1,7
 225 1471 225 1471 273 1468 c 1,8,9
 328 1333 328 1333 378 1196 c 128,-1,10
 428 1059 428 1059 474.5 921 c 128,-1,11
 521 783 521 783 566 644 c 128,-1,12
 611 505 611 505 657 367 c 1,13,14
 727 505 727 505 796.5 644.5 c 128,-1,15
 866 784 866 784 936.5 922.5 c 128,-1,16
 1007 1061 1007 1061 1081 1198 c 128,-1,17
 1155 1335 1155 1335 1235 1469 c 1,18,19
 1283 1472 1283 1472 1330.5 1476 c 128,-1,20
 1378 1480 1378 1480 1426 1484 c 1,21,22
 1331 1309 1331 1309 1247.5 1129.5 c 128,-1,23
 1164 950 1164 950 1086.5 768 c 128,-1,24
 1009 586 1009 586 935.5 403 c 128,-1,25
 862 220 862 220 788 37 c 1,26,27
 754 38 754 38 721 38 c 128,-1,28
 688 38 688 38 654 38 c 0,29,30
 608 38 608 38 562.5 37.5 c 128,-1,31
 517 37 517 37 472 37 c 1,0,1
EndSplineSet
Validated: 1
EndChar

StartChar: W
Encoding: 87 87 58
Width: 2226
Flags: W
LayerCount: 2
Fore
SplineSet
172 1484 m 1,0,1
 215 1481 215 1481 258 1478 c 128,-1,2
 301 1475 301 1475 343 1472 c 1,3,4
 386 1343 386 1343 420 1210.5 c 128,-1,5
 454 1078 454 1078 482.5 944 c 128,-1,6
 511 810 511 810 535 675 c 128,-1,7
 559 540 559 540 580 404 c 1,8,9
 686 574 686 574 784.5 745 c 128,-1,10
 883 916 883 916 986 1087 c 1,11,-1
 1143 1087 l 1,12,13
 1206 910 1206 910 1267 734.5 c 128,-1,14
 1328 559 1328 559 1397 385 c 1,15,16
 1497 662 1497 662 1609.5 936.5 c 128,-1,17
 1722 1211 1722 1211 1864 1474 c 1,18,19
 1909 1476 1909 1476 1951.5 1479 c 128,-1,20
 1994 1482 1994 1482 2038 1484 c 1,21,22
 1951 1310 1951 1310 1878.5 1130.5 c 128,-1,23
 1806 951 1806 951 1745.5 768 c 128,-1,24
 1685 585 1685 585 1635 400 c 128,-1,25
 1585 215 1585 215 1542 29 c 1,26,27
 1472 31 1472 31 1402 32.5 c 128,-1,28
 1332 34 1332 34 1263 36 c 1,29,30
 1198 230 1198 230 1147.5 430 c 128,-1,31
 1097 630 1097 630 1047 830 c 1,32,33
 957 629 957 629 865.5 430.5 c 128,-1,34
 774 232 774 232 674 35 c 1,35,36
 598 34 598 34 523 32 c 128,-1,37
 448 30 448 30 373 27 c 1,38,39
 366 212 366 212 352.5 397 c 128,-1,40
 339 582 339 582 316 765 c 128,-1,41
 293 948 293 948 258 1128 c 128,-1,42
 223 1308 223 1308 172 1484 c 1,0,1
EndSplineSet
Validated: 1
EndChar

StartChar: X
Encoding: 88 88 59
Width: 1645
Flags: W
LayerCount: 2
Fore
SplineSet
367 1477 m 1,0,1
 415 1472 415 1472 463 1469 c 128,-1,2
 511 1466 511 1466 559 1462 c 1,3,4
 644 1307 644 1307 723 1150 c 128,-1,5
 802 993 802 993 880 833 c 1,6,7
 987 994 987 994 1095 1152 c 128,-1,8
 1203 1310 1203 1310 1318 1466 c 1,9,10
 1366 1468 1366 1468 1415 1472.5 c 128,-1,11
 1464 1477 1464 1477 1512 1481 c 1,12,13
 1370 1289 1370 1289 1239.5 1093 c 128,-1,14
 1109 897 1109 897 979 698 c 1,15,16
 1085 523 1085 523 1191.5 350.5 c 128,-1,17
 1298 178 1298 178 1414 10 c 1,18,19
 1339 18 1339 18 1264.5 23 c 128,-1,20
 1190 28 1190 28 1114 32 c 1,21,22
 1041 163 1041 163 974.5 295.5 c 128,-1,23
 908 428 908 428 843 563 c 1,24,25
 754 427 754 427 663 294.5 c 128,-1,26
 572 162 572 162 477 31 c 1,27,28
 402 28 402 28 326 23 c 128,-1,29
 250 18 250 18 174 10 c 1,30,31
 321 180 321 180 462.5 351.5 c 128,-1,32
 604 523 604 523 746 698 c 1,33,34
 654 896 654 896 562 1090.5 c 128,-1,35
 470 1285 470 1285 367 1477 c 1,0,1
EndSplineSet
Validated: 1
EndChar

StartChar: Y
Encoding: 89 89 60
Width: 1384
Flags: W
LayerCount: 2
Fore
SplineSet
63 1484 m 1,0,1
 111 1478 111 1478 159 1474 c 128,-1,2
 207 1470 207 1470 255 1466 c 1,3,4
 351 1279 351 1279 437.5 1089.5 c 128,-1,5
 524 900 524 900 609 708 c 1,6,7
 727 901 727 901 846 1091 c 128,-1,8
 965 1281 965 1281 1094 1468 c 1,9,10
 1143 1470 1143 1470 1191.5 1474.5 c 128,-1,11
 1240 1479 1240 1479 1289 1484 c 1,12,13
 1131 1251 1131 1251 989.5 1008.5 c 128,-1,14
 848 766 848 766 706 523 c 1,15,16
 695 401 695 401 687 280 c 128,-1,17
 679 159 679 159 672 37 c 1,18,19
 645 38 645 38 618 38 c 128,-1,20
 591 38 591 38 564 38 c 0,21,22
 528 38 528 38 491.5 37.5 c 128,-1,23
 455 37 455 37 418 37 c 1,24,25
 431 159 431 159 443 279.5 c 128,-1,26
 455 400 455 400 467 522 c 1,27,28
 370 766 370 766 272.5 1006.5 c 128,-1,29
 175 1247 175 1247 63 1484 c 1,0,1
EndSplineSet
Validated: 1
EndChar

StartChar: Z
Encoding: 90 90 61
Width: 1642
Flags: W
LayerCount: 2
Fore
SplineSet
320 1481 m 1,0,1
 460 1467 460 1467 599 1460.5 c 128,-1,2
 738 1454 738 1454 879 1454 c 0,3,4
 1028 1454 1028 1454 1176.5 1461 c 128,-1,5
 1325 1468 1325 1468 1474 1482 c 1,6,7
 1467 1447 1467 1447 1461 1411 c 128,-1,8
 1455 1375 1455 1375 1448 1340 c 1,9,10
 1190 1080 1190 1080 937.5 820.5 c 128,-1,11
 685 561 685 561 427 301 c 1,12,13
 524 304 524 304 619.5 306 c 128,-1,14
 715 308 715 308 812 308 c 0,15,16
 952 308 952 308 1089.5 304 c 128,-1,17
 1227 300 1227 300 1366 291 c 1,18,19
 1365 266 1365 266 1365 241 c 128,-1,20
 1365 216 1365 216 1365 191 c 0,21,22
 1365 100 1365 100 1368 10 c 1,23,24
 1219 24 1219 24 1070.5 31 c 128,-1,25
 922 38 922 38 771 38 c 256,26,27
 620 38 620 38 470 31 c 128,-1,28
 320 24 320 24 168 10 c 1,29,30
 182 78 182 78 193.5 145.5 c 128,-1,31
 205 213 205 213 216 281 c 1,32,33
 468 544 468 544 720 801.5 c 128,-1,34
 972 1059 972 1059 1231 1316 c 1,35,36
 1137 1312 1137 1312 1045.5 1310 c 128,-1,37
 954 1308 954 1308 861 1308 c 0,38,39
 724 1308 724 1308 589.5 1313 c 128,-1,40
 455 1318 455 1318 320 1330 c 1,41,-1
 320 1431 l 1,42,-1
 320 1481 l 1,0,1
EndSplineSet
Validated: 1
EndChar

StartChar: bracketleft
Encoding: 91 91 62
Width: 786
Flags: W
LayerCount: 2
Fore
SplineSet
432 1546 m 1,0,1
 477 1526 477 1526 525 1517 c 128,-1,2
 573 1508 573 1508 624 1508 c 0,3,4
 678 1508 678 1508 731.5 1518 c 128,-1,5
 785 1528 785 1528 836 1546 c 1,6,7
 832 1514 832 1514 828 1483.5 c 128,-1,8
 824 1453 824 1453 821 1421 c 1,9,10
 770 1404 770 1404 719 1396.5 c 128,-1,11
 668 1389 668 1389 616 1389 c 0,12,13
 608 1389 608 1389 599 1389 c 128,-1,14
 590 1389 590 1389 582 1390 c 1,15,16
 553 1033 553 1033 522.5 679.5 c 128,-1,17
 492 326 492 326 459 -31 c 1,18,-1
 496 -31 l 2,19,20
 546 -31 546 -31 595 -36 c 128,-1,21
 644 -41 644 -41 690 -56 c 1,22,23
 686 -107 686 -107 683.5 -158 c 128,-1,24
 681 -209 681 -209 678 -260 c 1,25,26
 631 -243 631 -243 581.5 -234.5 c 128,-1,27
 532 -226 532 -226 481 -226 c 0,28,29
 429 -226 429 -226 377 -234.5 c 128,-1,30
 325 -243 325 -243 274 -260 c 1,31,32
 327 194 327 194 366 643 c 128,-1,33
 405 1092 405 1092 432 1546 c 1,0,1
EndSplineSet
Validated: 1
EndChar

StartChar: backslash
Encoding: 92 92 63
Width: 649
Flags: W
LayerCount: 2
Fore
SplineSet
157 1450 m 1,0,1
 200 1244 200 1244 238 1037 c 128,-1,2
 276 830 276 830 313 622.5 c 128,-1,3
 350 415 350 415 388.5 208 c 128,-1,4
 427 1 427 1 471 -204 c 1,5,6
 424 -193 424 -193 378.5 -182.5 c 128,-1,7
 333 -172 333 -172 285 -168 c 1,8,9
 248 37 248 37 215 243.5 c 128,-1,10
 182 450 182 450 149.5 657 c 128,-1,11
 117 864 117 864 83.5 1070 c 128,-1,12
 50 1276 50 1276 12 1482 c 1,13,14
 47 1470 47 1470 83.5 1462.5 c 128,-1,15
 120 1455 120 1455 157 1450 c 1,0,1
EndSplineSet
Validated: 1
EndChar

StartChar: bracketright
Encoding: 93 93 64
Width: 780
Flags: W
LayerCount: 2
Fore
SplineSet
646 1546 m 1,0,1
 593 1092 593 1092 553 643 c 128,-1,2
 513 194 513 194 488 -260 c 1,3,4
 441 -243 441 -243 391.5 -234.5 c 128,-1,5
 342 -226 342 -226 291 -226 c 0,6,7
 239 -226 239 -226 187 -234.5 c 128,-1,8
 135 -243 135 -243 84 -260 c 1,9,10
 89 -211 89 -211 95 -163 c 128,-1,11
 101 -115 101 -115 106 -66 c 1,12,13
 157 -52 157 -52 207 -46 c 128,-1,14
 257 -40 257 -40 308 -40 c 2,15,-1
 340 -40 l 1,16,17
 370 320 370 320 401.5 675 c 128,-1,18
 433 1030 433 1030 466 1390 c 1,19,20
 455 1389 455 1389 445 1389 c 128,-1,21
 435 1389 435 1389 425 1389 c 0,22,23
 375 1389 375 1389 327 1395.5 c 128,-1,24
 279 1402 279 1402 234 1421 c 1,25,26
 236 1453 236 1453 238 1483.5 c 128,-1,27
 240 1514 240 1514 242 1546 c 1,28,29
 287 1526 287 1526 335 1517 c 128,-1,30
 383 1508 383 1508 434 1508 c 0,31,32
 488 1508 488 1508 541.5 1518 c 128,-1,33
 595 1528 595 1528 646 1546 c 1,0,1
EndSplineSet
Validated: 1
EndChar

StartChar: asciicircum
Encoding: 94 94 65
Width: 1419
Flags: W
LayerCount: 2
Fore
SplineSet
807 1473 m 1,0,1
 868 1406 868 1406 926.5 1336.5 c 128,-1,2
 985 1267 985 1267 1045.5 1199.5 c 128,-1,3
 1106 1132 1106 1132 1169.5 1067.5 c 128,-1,4
 1233 1003 1233 1003 1304 946 c 1,5,6
 1234 949 1234 949 1164 950.5 c 128,-1,7
 1094 952 1094 952 1023 954 c 1,8,9
 979 1005 979 1005 941 1059.5 c 128,-1,10
 903 1114 903 1114 867 1171 c 128,-1,11
 831 1228 831 1228 796.5 1286 c 128,-1,12
 762 1344 762 1344 726 1400 c 1,13,14
 679 1344 679 1344 634 1286.5 c 128,-1,15
 589 1229 589 1229 543.5 1172 c 128,-1,16
 498 1115 498 1115 450.5 1060 c 128,-1,17
 403 1005 403 1005 351 953 c 1,18,19
 281 952 281 952 211 950 c 128,-1,20
 141 948 141 948 70 946 c 1,21,22
 150 1005 150 1005 224.5 1069.5 c 128,-1,23
 299 1134 299 1134 371 1201.5 c 128,-1,24
 443 1269 443 1269 514.5 1338 c 128,-1,25
 586 1407 586 1407 659 1473 c 1,26,-1
 807 1473 l 1,0,1
EndSplineSet
Validated: 1
EndChar

StartChar: underscore
Encoding: 95 95 66
Width: 1614
Flags: W
LayerCount: 2
Fore
SplineSet
1332 -313 m 1,0,1
 1312 -330 1312 -330 1301 -355 c 128,-1,2
 1290 -380 1290 -380 1290 -405 c 0,3,4
 1290 -425 1290 -425 1296.5 -442.5 c 128,-1,5
 1303 -460 1303 -460 1317 -473 c 1,6,7
 1056 -470 1056 -470 795 -470 c 0,8,9
 533 -470 533 -470 274 -473 c 1,10,11
 294 -455 294 -455 303.5 -431.5 c 128,-1,12
 313 -408 313 -408 313 -384 c 0,13,14
 313 -364 313 -364 306.5 -345.5 c 128,-1,15
 300 -327 300 -327 287 -313 c 1,16,17
 411 -315 411 -315 533.5 -316 c 128,-1,18
 656 -317 656 -317 780 -317 c 0,19,20
 919 -317 919 -317 1056 -316 c 128,-1,21
 1193 -315 1193 -315 1332 -313 c 1,0,1
EndSplineSet
Validated: 1
EndChar

StartChar: grave
Encoding: 96 96 67
Width: 578
Flags: W
LayerCount: 2
Fore
SplineSet
244 1621 m 1,0,1
 275 1578 275 1578 303 1533.5 c 128,-1,2
 331 1489 331 1489 359.5 1445 c 128,-1,3
 388 1401 388 1401 418 1357.5 c 128,-1,4
 448 1314 448 1314 481 1274 c 1,5,6
 427 1277 427 1277 374 1279 c 128,-1,7
 321 1281 321 1281 267 1281 c 2,8,-1
 235 1281 l 1,9,10
 194 1367 194 1367 156.5 1456 c 128,-1,11
 119 1545 119 1545 70 1628 c 1,12,13
 113 1624 113 1624 156.5 1623 c 128,-1,14
 200 1622 200 1622 244 1621 c 1,0,1
EndSplineSet
Validated: 1
EndChar

StartChar: a
Encoding: 97 97 68
Width: 1360
Flags: W
LayerCount: 2
Fore
SplineSet
660 581 m 1,0,1
 627 580 627 580 593.5 579 c 128,-1,2
 560 578 560 578 526.5 573.5 c 128,-1,3
 493 569 493 569 460 560 c 128,-1,4
 427 551 427 551 397 534 c 1,5,6
 358 508 358 508 338 465 c 128,-1,7
 318 422 318 422 313 377 c 1,8,9
 313 359 313 359 317.5 341.5 c 128,-1,10
 322 324 322 324 331 309 c 128,-1,11
 340 294 340 294 353.5 283.5 c 128,-1,12
 367 273 367 273 385 269 c 0,13,14
 420 261 420 261 456.5 257 c 128,-1,15
 493 253 493 253 530 253 c 0,16,17
 556 253 556 253 584 254.5 c 128,-1,18
 612 256 612 256 639.5 261 c 128,-1,19
 667 266 667 266 693.5 275.5 c 128,-1,20
 720 285 720 285 743 302 c 1,21,22
 767 325 767 325 780.5 352.5 c 128,-1,23
 794 380 794 380 801.5 410 c 128,-1,24
 809 440 809 440 812.5 471 c 128,-1,25
 816 502 816 502 820 531 c 1,26,-1
 824 581 l 1,27,-1
 660 581 l 1,0,1
1080 638 m 0,28,29
 1066 502 1066 502 1058 368.5 c 128,-1,30
 1050 235 1050 235 1050 100 c 0,31,32
 1050 77 1050 77 1050 55 c 128,-1,33
 1050 33 1050 33 1051 10 c 1,34,35
 1011 15 1011 15 970.5 17.5 c 128,-1,36
 930 20 930 20 889 22 c 1,37,38
 891 67 891 67 892 111.5 c 128,-1,39
 893 156 893 156 895 201 c 1,40,41
 859 146 859 146 811 108 c 128,-1,42
 763 70 763 70 708 46.5 c 128,-1,43
 653 23 653 23 593 12.5 c 128,-1,44
 533 2 533 2 474 2 c 0,45,46
 408 2 408 2 346.5 19 c 128,-1,47
 285 36 285 36 240 81 c 1,48,49
 206 118 206 118 192 166.5 c 128,-1,50
 178 215 178 215 178 266 c 0,51,52
 178 315 178 315 188 368 c 128,-1,53
 198 421 198 421 220.5 470.5 c 128,-1,54
 243 520 243 520 279 561 c 128,-1,55
 315 602 315 602 366 627 c 0,56,57
 447 666 447 666 525 678.5 c 128,-1,58
 603 691 603 691 681 691 c 0,59,60
 744 691 744 691 806.5 691 c 128,-1,61
 869 691 869 691 932 692 c 1,62,-1
 934 720 l 2,63,64
 935 731 935 731 936 742.5 c 128,-1,65
 937 754 937 754 937 766 c 0,66,67
 937 809 937 809 924.5 849.5 c 128,-1,68
 912 890 912 890 881 920 c 1,69,70
 855 942 855 942 827 957 c 128,-1,71
 799 972 799 972 769.5 981 c 128,-1,72
 740 990 740 990 710 995 c 128,-1,73
 680 1000 680 1000 650 1002 c 1,74,75
 562 1002 562 1002 474.5 984.5 c 128,-1,76
 387 967 387 967 305 929 c 1,77,78
 307 961 307 961 307 991.5 c 128,-1,79
 307 1022 307 1022 309 1053 c 1,80,81
 400 1080 400 1080 492.5 1097 c 128,-1,82
 585 1114 585 1114 679 1114 c 0,83,84
 722 1114 722 1114 767 1110 c 128,-1,85
 812 1106 812 1106 854 1095.5 c 128,-1,86
 896 1085 896 1085 934 1066 c 128,-1,87
 972 1047 972 1047 1002 1017 c 1,88,89
 1052 959 1052 959 1069 889.5 c 128,-1,90
 1086 820 1086 820 1086 748 c 0,91,92
 1086 720 1086 720 1084 692.5 c 128,-1,93
 1082 665 1082 665 1080 638 c 0,28,29
EndSplineSet
Validated: 1
EndChar

StartChar: b
Encoding: 98 98 69
Width: 1309
Flags: W
LayerCount: 2
Fore
SplineSet
1170 604 m 2,0,1
 1170 616 1170 616 1170.5 627.5 c 128,-1,2
 1171 639 1171 639 1171 651 c 0,3,4
 1171 715 1171 715 1160.5 780 c 128,-1,5
 1150 845 1150 845 1122.5 897 c 128,-1,6
 1095 949 1095 949 1047.5 981.5 c 128,-1,7
 1000 1014 1000 1014 926 1014 c 0,8,9
 857 1014 857 1014 792.5 987.5 c 128,-1,10
 728 961 728 961 683 904 c 0,11,12
 630 836 630 836 606.5 755.5 c 128,-1,13
 583 675 583 675 576 595 c 1,14,15
 578 540 578 540 588.5 485.5 c 128,-1,16
 599 431 599 431 633 388 c 1,17,18
 656 363 656 363 682.5 347 c 128,-1,19
 709 331 709 331 738 322 c 128,-1,20
 767 313 767 313 797 309.5 c 128,-1,21
 827 306 827 306 856 306 c 1,22,23
 909 309 909 309 960 324 c 128,-1,24
 1011 339 1011 339 1056 370 c 1,25,26
 1083 392 1083 392 1101.5 419.5 c 128,-1,27
 1120 447 1120 447 1132.5 477.5 c 128,-1,28
 1145 508 1145 508 1154 540 c 128,-1,29
 1163 572 1163 572 1170 603 c 1,30,-1
 1170 604 l 2,0,1
523 939 m 1,31,32
 531 937 531 937 534 936.5 c 128,-1,33
 537 936 537 936 539 935 c 1,34,35
 564 979 564 979 601 1013.5 c 128,-1,36
 638 1048 638 1048 681.5 1071.5 c 128,-1,37
 725 1095 725 1095 773 1107.5 c 128,-1,38
 821 1120 821 1120 869 1120 c 2,39,-1
 885 1120 l 1,40,-1
 900 1120 l 2,41,42
 995 1120 995 1120 1063.5 1079.5 c 128,-1,43
 1132 1039 1132 1039 1176 972.5 c 128,-1,44
 1220 906 1220 906 1240.5 821 c 128,-1,45
 1261 736 1261 736 1261 648 c 0,46,47
 1261 588 1261 588 1255 522.5 c 128,-1,48
 1249 457 1249 457 1233 392 c 128,-1,49
 1217 327 1217 327 1189 265 c 128,-1,50
 1161 203 1161 203 1117 151 c 0,51,52
 1058 82 1058 82 976 45.5 c 128,-1,53
 894 9 894 9 807 10 c 1,54,-1
 791 10 l 2,55,56
 786 10 786 10 782 9.5 c 128,-1,57
 778 9 778 9 773 9 c 0,58,59
 720 9 720 9 670.5 23.5 c 128,-1,60
 621 38 621 38 578.5 65.5 c 128,-1,61
 536 93 536 93 503 132 c 128,-1,62
 470 171 470 171 451 219 c 1,63,64
 445 171 445 171 438.5 122.5 c 128,-1,65
 432 74 432 74 425 26 c 1,66,67
 383 23 383 23 342.5 19 c 128,-1,68
 302 15 302 15 260 10 c 1,69,70
 329 395 329 395 366.5 776.5 c 128,-1,71
 404 1158 404 1158 413 1544 c 1,72,73
 453 1537 453 1537 493 1533.5 c 128,-1,74
 533 1530 533 1530 575 1525 c 1,75,76
 564 1378 564 1378 552 1232 c 128,-1,77
 540 1086 540 1086 523 939 c 1,31,32
EndSplineSet
Validated: 33
EndChar

StartChar: c
Encoding: 99 99 70
Width: 1284
Flags: W
LayerCount: 2
Fore
SplineSet
1041 1075 m 1,0,1
 1033 1038 1033 1038 1027.5 1002 c 128,-1,2
 1022 966 1022 966 1016 929 c 1,3,4
 953 961 953 961 884 977 c 128,-1,5
 815 993 815 993 743 993 c 0,6,7
 704 993 704 993 663 987 c 128,-1,8
 622 981 622 981 583.5 966.5 c 128,-1,9
 545 952 545 952 510.5 929.5 c 128,-1,10
 476 907 476 907 448 874 c 0,11,12
 419 841 419 841 398.5 802.5 c 128,-1,13
 378 764 378 764 365 723.5 c 128,-1,14
 352 683 352 683 344.5 640.5 c 128,-1,15
 337 598 337 598 333 557 c 1,16,17
 333 529 333 529 336.5 500 c 128,-1,18
 340 471 340 471 348.5 444.5 c 128,-1,19
 357 418 357 418 371.5 394.5 c 128,-1,20
 386 371 386 371 409 354 c 1,21,22
 463 317 463 317 527 305 c 128,-1,23
 591 293 591 293 657 288 c 1,24,-1
 809 285 l 1,25,-1
 821 285 l 2,26,27
 854 285 854 285 887.5 292.5 c 128,-1,28
 921 300 921 300 952 315 c 1,29,30
 950 274 950 274 949 234.5 c 128,-1,31
 948 195 948 195 948 154 c 0,32,33
 948 128 948 128 948.5 102 c 128,-1,34
 949 76 949 76 950 50 c 1,35,36
 878 24 878 24 805 12.5 c 128,-1,37
 732 1 732 1 659 1 c 0,38,39
 603 1 603 1 546 7 c 128,-1,40
 489 13 489 13 435.5 29 c 128,-1,41
 382 45 382 45 334.5 73.5 c 128,-1,42
 287 102 287 102 252 146 c 1,43,44
 197 212 197 212 177.5 295 c 128,-1,45
 158 378 158 378 158 466 c 0,46,47
 158 526 158 526 165 594 c 128,-1,48
 172 662 172 662 190.5 729 c 128,-1,49
 209 796 209 796 241.5 858.5 c 128,-1,50
 274 921 274 921 325 970 c 0,51,52
 371 1014 371 1014 424.5 1042 c 128,-1,53
 478 1070 478 1070 536 1086.5 c 128,-1,54
 594 1103 594 1103 653.5 1109.5 c 128,-1,55
 713 1116 713 1116 770 1116 c 0,56,57
 842 1116 842 1116 910.5 1104 c 128,-1,58
 979 1092 979 1092 1045 1067 c 1,59,60
 1042 1071 1042 1071 1041 1075 c 1,0,1
EndSplineSet
Validated: 5
EndChar

StartChar: d
Encoding: 100 100 71
Width: 1325
Flags: W
LayerCount: 2
Fore
SplineSet
852 945 m 1,0,1
 870 1092 870 1092 893.5 1237.5 c 128,-1,2
 917 1383 917 1383 943 1529 c 1,3,4
 985 1532 985 1532 1026 1537 c 128,-1,5
 1067 1542 1067 1542 1109 1547 c 1,6,7
 1039 1162 1039 1162 998.5 780 c 128,-1,8
 958 398 958 398 952 12 c 1,9,10
 911 18 911 18 871 21 c 128,-1,11
 831 24 831 24 790 28 c 1,12,13
 792 76 792 76 793 124 c 128,-1,14
 794 172 794 172 797 220 c 1,15,16
 769 171 769 171 729.5 132 c 128,-1,17
 690 93 690 93 642.5 66 c 128,-1,18
 595 39 595 39 542.5 24.5 c 128,-1,19
 490 10 490 10 436 10 c 2,20,-1
 421 10 l 2,21,22
 416 10 416 10 411 9.5 c 128,-1,23
 406 9 406 9 401 9 c 0,24,25
 315 9 315 9 239.5 45 c 128,-1,26
 164 81 164 81 118 150 c 0,27,28
 75 215 75 215 59 289.5 c 128,-1,29
 43 364 43 364 43 443 c 0,30,31
 43 506 43 506 50.5 576 c 128,-1,32
 58 646 58 646 76 716 c 128,-1,33
 94 786 94 786 125 852 c 128,-1,34
 156 918 156 918 203 974 c 1,35,36
 231 1009 231 1009 266 1036 c 128,-1,37
 301 1063 301 1063 340.5 1082 c 128,-1,38
 380 1101 380 1101 422.5 1110.5 c 128,-1,39
 465 1120 465 1120 507 1120 c 2,40,-1
 519 1120 l 1,41,-1
 536 1120 l 2,42,43
 584 1120 584 1120 629.5 1108.5 c 128,-1,44
 675 1097 675 1097 714.5 1074 c 128,-1,45
 754 1051 754 1051 785 1017.5 c 128,-1,46
 816 984 816 984 834 940 c 1,47,48
 839 942 839 942 843 942.5 c 128,-1,49
 847 943 847 943 852 945 c 1,0,1
153 579 m 1,50,51
 155 523 155 523 169 468.5 c 128,-1,52
 183 414 183 414 221 373 c 1,53,54
 241 353 241 353 265.5 341.5 c 128,-1,55
 290 330 290 330 317 324 c 128,-1,56
 344 318 344 318 372 315.5 c 128,-1,57
 400 313 400 313 428 313 c 1,58,59
 483 315 483 315 540 323.5 c 128,-1,60
 597 332 597 332 646 364 c 1,61,62
 680 389 680 389 699 427 c 128,-1,63
 718 465 718 465 728 506.5 c 128,-1,64
 738 548 738 548 740.5 588 c 128,-1,65
 743 628 743 628 743 658 c 0,66,67
 743 700 743 700 739 741 c 128,-1,68
 735 782 735 782 727 822 c 0,69,70
 718 865 718 865 697.5 900 c 128,-1,71
 677 935 677 935 648.5 960 c 128,-1,72
 620 985 620 985 584.5 998 c 128,-1,73
 549 1011 549 1011 509 1011 c 2,74,-1
 495 1011 l 1,75,-1
 484 1011 l 2,76,77
 428 1011 428 1011 383 992 c 128,-1,78
 338 973 338 973 303 941 c 128,-1,79
 268 909 268 909 242 866.5 c 128,-1,80
 216 824 216 824 198 776 c 128,-1,81
 180 728 180 728 169 678 c 128,-1,82
 158 628 158 628 153 581 c 1,83,-1
 153 579 l 1,50,51
EndSplineSet
Validated: 1
EndChar

StartChar: e
Encoding: 101 101 72
Width: 1378
Flags: W
LayerCount: 2
Fore
SplineSet
1125 675 m 1,0,1
 1124 660 1124 660 1122 645.5 c 128,-1,2
 1120 631 1120 631 1118 616 c 1,3,4
 869 613 869 613 621 613 c 0,5,6
 549 613 549 613 477.5 613.5 c 128,-1,7
 406 614 406 614 334 614 c 1,8,9
 333 595 333 595 332 575.5 c 128,-1,10
 331 556 331 556 331 536 c 0,11,12
 331 504 331 504 334 473 c 128,-1,13
 337 442 337 442 346 413.5 c 128,-1,14
 355 385 355 385 370.5 360 c 128,-1,15
 386 335 386 335 412 316 c 1,16,17
 445 295 445 295 482.5 281.5 c 128,-1,18
 520 268 520 268 559.5 260 c 128,-1,19
 599 252 599 252 639.5 249 c 128,-1,20
 680 246 680 246 718 246 c 0,21,22
 762 246 762 246 806 246.5 c 128,-1,23
 850 247 850 247 893.5 251 c 128,-1,24
 937 255 937 255 979 265 c 128,-1,25
 1021 275 1021 275 1061 295 c 1,26,27
 1060 266 1060 266 1060 238 c 128,-1,28
 1060 210 1060 210 1060 181 c 256,29,30
 1060 152 1060 152 1060 124 c 128,-1,31
 1060 96 1060 96 1062 67 c 1,32,33
 964 34 964 34 863 18.5 c 128,-1,34
 762 3 762 3 661 3 c 1,35,36
 607 7 607 7 552 15 c 128,-1,37
 497 23 497 23 445.5 39 c 128,-1,38
 394 55 394 55 348 81 c 128,-1,39
 302 107 302 107 266 148 c 0,40,41
 237 180 237 180 217.5 217.5 c 128,-1,42
 198 255 198 255 186.5 296.5 c 128,-1,43
 175 338 175 338 170.5 381.5 c 128,-1,44
 166 425 166 425 166 469 c 0,45,46
 166 528 166 528 175 594.5 c 128,-1,47
 184 661 184 661 204 727.5 c 128,-1,48
 224 794 224 794 256 856 c 128,-1,49
 288 918 288 918 334 967 c 1,50,51
 373 1007 373 1007 420 1035 c 128,-1,52
 467 1063 467 1063 518 1080 c 128,-1,53
 569 1097 569 1097 622.5 1105 c 128,-1,54
 676 1113 676 1113 727 1114 c 1,55,56
 769 1112 769 1112 812.5 1106.5 c 128,-1,57
 856 1101 856 1101 897 1089 c 128,-1,58
 938 1077 938 1077 975.5 1058 c 128,-1,59
 1013 1039 1013 1039 1043 1009 c 1,60,61
 1069 980 1069 980 1085 946 c 128,-1,62
 1101 912 1101 912 1110 875 c 128,-1,63
 1119 838 1119 838 1122 798.5 c 128,-1,64
 1125 759 1125 759 1125 720 c 0,65,66
 1125 709 1125 709 1124.5 697 c 128,-1,67
 1124 685 1124 685 1124 674 c 1,68,-1
 1125 675 l 1,0,1
1003 751 m 1,69,70
 1001 810 1001 810 980 862.5 c 128,-1,71
 959 915 959 915 922 954 c 128,-1,72
 885 993 885 993 834 1016 c 128,-1,73
 783 1039 783 1039 720 1039 c 0,74,75
 653 1039 653 1039 585.5 1018.5 c 128,-1,76
 518 998 518 998 466 949 c 1,77,78
 421 910 421 910 393.5 858 c 128,-1,79
 366 806 366 806 363 749 c 1,80,81
 418 747 418 747 473 747 c 128,-1,82
 528 747 528 747 584 747 c 0,83,84
 690 747 690 747 793.5 748 c 128,-1,85
 897 749 897 749 1003 751 c 1,69,70
EndSplineSet
Validated: 1
EndChar

StartChar: f
Encoding: 102 102 73
Width: 774
Flags: W
LayerCount: 2
Fore
SplineSet
721 1505 m 1,0,1
 716 1471 716 1471 711 1437.5 c 128,-1,2
 706 1404 706 1404 702 1370 c 1,3,4
 688 1369 688 1369 673.5 1369 c 128,-1,5
 659 1369 659 1369 645 1369 c 0,6,7
 622 1369 622 1369 598.5 1369.5 c 128,-1,8
 575 1370 575 1370 552 1371 c 1,9,10
 524 1369 524 1369 495.5 1361.5 c 128,-1,11
 467 1354 467 1354 444 1334 c 1,12,13
 420 1305 420 1305 413 1268.5 c 128,-1,14
 406 1232 406 1232 402 1197 c 1,15,16
 402 1171 402 1171 402 1145.5 c 128,-1,17
 402 1120 402 1120 403 1094 c 1,18,19
 472 1095 472 1095 542 1098 c 128,-1,20
 612 1101 612 1101 681 1108 c 1,21,22
 676 1067 676 1067 672 1027 c 128,-1,23
 668 987 668 987 664 946 c 1,24,25
 595 942 595 942 526.5 940.5 c 128,-1,26
 458 939 458 939 389 938 c 1,27,28
 375 712 375 712 362.5 488 c 128,-1,29
 350 264 350 264 342 38 c 1,30,31
 326 39 326 39 310.5 39 c 128,-1,32
 295 39 295 39 279 39 c 0,33,34
 188 39 188 39 95 30 c 1,35,36
 130 259 130 259 159 485 c 128,-1,37
 188 711 188 711 214 940 c 1,38,39
 175 941 175 941 136.5 942.5 c 128,-1,40
 98 944 98 944 59 947 c 1,41,42
 62 988 62 988 65.5 1028 c 128,-1,43
 69 1068 69 1068 71 1109 c 1,44,45
 109 1104 109 1104 148 1101.5 c 128,-1,46
 187 1099 187 1099 225 1097 c 1,47,48
 234 1134 234 1134 239.5 1179 c 128,-1,49
 245 1224 245 1224 255.5 1268.5 c 128,-1,50
 266 1313 266 1313 286.5 1353.5 c 128,-1,51
 307 1394 307 1394 347 1424 c 0,52,53
 396 1460 396 1460 452.5 1478.5 c 128,-1,54
 509 1497 509 1497 568 1502 c 1,55,-1
 567 1502 l 1,56,57
 583 1501 583 1501 598.5 1501 c 128,-1,58
 614 1501 614 1501 630 1501 c 0,59,60
 653 1501 653 1501 675.5 1502 c 128,-1,61
 698 1503 698 1503 721 1505 c 1,0,1
EndSplineSet
Validated: 5
EndChar

StartChar: g
Encoding: 103 103 74
Width: 1413
Flags: W
LayerCount: 2
Fore
SplineSet
871 575 m 0,0,1
 873 595 873 595 874 614 c 128,-1,2
 875 633 875 633 875 653 c 0,3,4
 875 740 875 740 854 802.5 c 128,-1,5
 833 865 833 865 795.5 906 c 128,-1,6
 758 947 758 947 705.5 966.5 c 128,-1,7
 653 986 653 986 590 986 c 0,8,9
 526 986 526 986 463 961 c 128,-1,10
 400 936 400 936 358 884 c 0,11,12
 331 851 331 851 313.5 813.5 c 128,-1,13
 296 776 296 776 285 737 c 128,-1,14
 274 698 274 698 268.5 657.5 c 128,-1,15
 263 617 263 617 260 578 c 1,16,17
 262 546 262 546 264 512 c 128,-1,18
 266 478 266 478 271.5 445.5 c 128,-1,19
 277 413 277 413 289 383.5 c 128,-1,20
 301 354 301 354 324 331 c 1,21,22
 367 302 367 302 420.5 295.5 c 128,-1,23
 474 289 474 289 527 289 c 0,24,25
 585 289 585 289 644 298.5 c 128,-1,26
 703 308 703 308 758 331 c 1,27,28
 790 350 790 350 810.5 378.5 c 128,-1,29
 831 407 831 407 843 440 c 128,-1,30
 855 473 855 473 861 508 c 128,-1,31
 867 543 867 543 871 575 c 0,0,1
1052 141 m 1,32,33
 1044 81 1044 81 1035.5 18 c 128,-1,34
 1027 -45 1027 -45 1011.5 -106.5 c 128,-1,35
 996 -168 996 -168 969.5 -226 c 128,-1,36
 943 -284 943 -284 898 -333 c 1,37,38
 856 -375 856 -375 805.5 -399 c 128,-1,39
 755 -423 755 -423 701 -435.5 c 128,-1,40
 647 -448 647 -448 591.5 -451.5 c 128,-1,41
 536 -455 536 -455 484 -455 c 0,42,43
 406 -455 406 -455 329 -447 c 128,-1,44
 252 -439 252 -439 178 -419 c 1,45,46
 190 -344 190 -344 199.5 -268.5 c 128,-1,47
 209 -193 209 -193 218 -118 c 1,48,49
 284 -154 284 -154 357.5 -169.5 c 128,-1,50
 431 -185 431 -185 509 -185 c 1,51,52
 544 -184 544 -184 581 -179.5 c 128,-1,53
 618 -175 618 -175 653.5 -163.5 c 128,-1,54
 689 -152 689 -152 721.5 -133 c 128,-1,55
 754 -114 754 -114 780 -85 c 1,56,57
 820 -43 820 -43 850.5 6 c 128,-1,58
 881 55 881 55 896 110 c 1,59,60
 897 133 897 133 899.5 156.5 c 128,-1,61
 902 180 902 180 902 203 c 1,62,63
 835 111 835 111 741.5 66.5 c 128,-1,64
 648 22 648 22 537 22 c 0,65,66
 452 22 452 22 377 58.5 c 128,-1,67
 302 95 302 95 257 165 c 1,68,69
 208 237 208 237 191 322.5 c 128,-1,70
 174 408 174 408 174 497 c 0,71,72
 174 554 174 554 179.5 616.5 c 128,-1,73
 185 679 185 679 200 741.5 c 128,-1,74
 215 804 215 804 242 862.5 c 128,-1,75
 269 921 269 921 313 970 c 1,76,77
 343 1005 343 1005 379.5 1030.5 c 128,-1,78
 416 1056 416 1056 457 1072.5 c 128,-1,79
 498 1089 498 1089 541.5 1097 c 128,-1,80
 585 1105 585 1105 627 1105 c 2,81,-1
 642 1105 l 1,82,-1
 658 1105 l 2,83,84
 710 1105 710 1105 760 1091 c 128,-1,85
 810 1077 810 1077 852.5 1051 c 128,-1,86
 895 1025 895 1025 928 987.5 c 128,-1,87
 961 950 961 950 981 902 c 1,88,89
 993 950 993 950 1005 997.5 c 128,-1,90
 1017 1045 1017 1045 1029 1093 c 1,91,92
 1071 1098 1071 1098 1112 1101.5 c 128,-1,93
 1153 1105 1153 1105 1195 1111 c 1,94,95
 1146 868 1146 868 1112 626.5 c 128,-1,96
 1078 385 1078 385 1052 141 c 1,32,33
EndSplineSet
Validated: 1
EndChar

StartChar: h
Encoding: 104 104 75
Width: 1296
Flags: W
LayerCount: 2
Fore
SplineSet
1216 676 m 0,0,1
 1204 460 1204 460 1204 247 c 0,2,3
 1204 187 1204 187 1205 128.5 c 128,-1,4
 1206 70 1206 70 1208 10 c 1,5,6
 1107 24 1107 24 1006 31 c 1,7,8
 1016 192 1016 192 1030.5 351.5 c 128,-1,9
 1045 511 1045 511 1062 672 c 0,10,11
 1065 703 1065 703 1065 737 c 0,12,13
 1065 781 1065 781 1058 823 c 128,-1,14
 1051 865 1051 865 1034 903 c 1,15,16
 1002 960 1002 960 952.5 982.5 c 128,-1,17
 903 1005 903 1005 846 1005 c 0,18,19
 783 1005 783 1005 720 979.5 c 128,-1,20
 657 954 657 954 612 902 c 0,21,22
 563 845 563 845 537 775.5 c 128,-1,23
 511 706 511 706 506 635 c 0,24,25
 494 483 494 483 483.5 332.5 c 128,-1,26
 473 182 473 182 456 30 c 1,27,28
 405 26 405 26 353.5 21.5 c 128,-1,29
 302 17 302 17 250 10 c 1,30,31
 324 393 324 393 366.5 774 c 128,-1,32
 409 1155 409 1155 423 1540 c 1,33,34
 465 1535 465 1535 505 1530.5 c 128,-1,35
 545 1526 545 1526 587 1523 c 1,36,37
 575 1368 575 1368 561 1215 c 128,-1,38
 547 1062 547 1062 529 907 c 1,39,40
 559 952 559 952 599 991 c 128,-1,41
 639 1030 639 1030 685.5 1058.5 c 128,-1,42
 732 1087 732 1087 783 1103.5 c 128,-1,43
 834 1120 834 1120 888 1120 c 2,44,-1
 899 1120 l 1,45,-1
 915 1120 l 2,46,47
 953 1120 953 1120 991 1113 c 128,-1,48
 1029 1106 1029 1106 1063 1090.5 c 128,-1,49
 1097 1075 1097 1075 1125 1050.5 c 128,-1,50
 1153 1026 1153 1026 1170 992 c 0,51,52
 1199 933 1199 933 1209 873.5 c 128,-1,53
 1219 814 1219 814 1219 757 c 0,54,55
 1219 716 1219 716 1216 676 c 0,0,1
EndSplineSet
Validated: 1
EndChar

StartChar: i
Encoding: 105 105 76
Width: 643
Flags: W
LayerCount: 2
Fore
SplineSet
341 1104 m 1,0,1
 372 1093 372 1093 405 1093 c 0,2,3
 423 1093 423 1093 441 1096.5 c 128,-1,4
 459 1100 459 1100 477 1105 c 1,5,6
 454 830 454 830 433.5 557.5 c 128,-1,7
 413 285 413 285 395 10 c 1,8,9
 363 39 363 39 318 39 c 0,10,11
 295 39 295 39 272.5 31.5 c 128,-1,12
 250 24 250 24 231 10 c 1,13,14
 261 285 261 285 288.5 557 c 128,-1,15
 316 829 316 829 341 1104 c 1,0,1
375 1538 m 1,16,17
 389 1526 389 1526 406.5 1520.5 c 128,-1,18
 424 1515 424 1515 443 1515 c 0,19,20
 484 1515 484 1515 519 1539 c 1,21,22
 516 1486 516 1486 514 1434.5 c 128,-1,23
 512 1383 512 1383 508 1330 c 1,24,25
 488 1319 488 1319 467 1313 c 128,-1,26
 446 1307 446 1307 424 1307 c 0,27,28
 381 1307 381 1307 350 1331 c 1,29,30
 356 1383 356 1383 362.5 1434.5 c 128,-1,31
 369 1486 369 1486 375 1538 c 1,16,17
EndSplineSet
Validated: 1
EndChar

StartChar: j
Encoding: 106 106 77
Width: 651
Flags: W
LayerCount: 2
Fore
SplineSet
444 1080 m 1,0,1
 481 1081 481 1081 518 1084 c 128,-1,2
 555 1087 555 1087 592 1092 c 1,3,4
 517 542 517 542 457 -14 c 0,5,6
 453 -50 453 -50 447.5 -87.5 c 128,-1,7
 442 -125 442 -125 431 -161.5 c 128,-1,8
 420 -198 420 -198 402 -231.5 c 128,-1,9
 384 -265 384 -265 355 -293 c 1,10,11
 317 -327 317 -327 273 -345 c 128,-1,12
 229 -363 229 -363 183 -374 c 128,-1,13
 137 -385 137 -385 90 -393 c 128,-1,14
 43 -401 43 -401 0 -416 c 1,15,16
 9 -351 9 -351 18.5 -287 c 128,-1,17
 28 -223 28 -223 36 -158 c 1,18,19
 62 -152 62 -152 91 -147.5 c 128,-1,20
 120 -143 120 -143 148.5 -135.5 c 128,-1,21
 177 -128 177 -128 204 -115.5 c 128,-1,22
 231 -103 231 -103 254 -82 c 1,23,-1
 253 -82 l 1,24,25
 269 -61 269 -61 279.5 -37 c 128,-1,26
 290 -13 290 -13 296 12 c 128,-1,27
 302 37 302 37 306 62.5 c 128,-1,28
 310 88 310 88 313 113 c 0,29,30
 346 356 346 356 378 596.5 c 128,-1,31
 410 837 410 837 444 1080 c 1,0,1
528 1512 m 1,32,33
 565 1517 565 1517 601.5 1524.5 c 128,-1,34
 638 1532 638 1532 674 1543 c 1,35,36
 669 1489 669 1489 666 1436.5 c 128,-1,37
 663 1384 663 1384 659 1330 c 1,38,39
 619 1319 619 1319 578.5 1313 c 128,-1,40
 538 1307 538 1307 496 1303 c 1,41,42
 504 1356 504 1356 512 1407.5 c 128,-1,43
 520 1459 520 1459 528 1512 c 1,32,33
EndSplineSet
Validated: 1
EndChar

StartChar: k
Encoding: 107 107 78
Width: 1276
Flags: W
LayerCount: 2
Fore
SplineSet
425 1540 m 1,0,1
 467 1535 467 1535 507 1530.5 c 128,-1,2
 547 1526 547 1526 589 1524 c 1,3,4
 566 1087 566 1087 520 651 c 1,5,6
 623 763 623 763 724.5 873.5 c 128,-1,7
 826 984 826 984 931 1094 c 1,8,9
 981 1095 981 1095 1030 1096 c 128,-1,10
 1079 1097 1079 1097 1130 1099 c 1,11,12
 1019 974 1019 974 910.5 850 c 128,-1,13
 802 726 802 726 692 601 c 1,14,15
 832 453 832 453 969 307 c 128,-1,16
 1106 161 1106 161 1242 10 c 1,17,18
 1071 32 1071 32 895 37 c 1,19,20
 796 168 796 168 700 298.5 c 128,-1,21
 604 429 604 429 510 563 c 1,22,23
 505 429 505 429 495.5 297 c 128,-1,24
 486 165 486 165 477 31 c 1,25,26
 421 26 421 26 365 21.5 c 128,-1,27
 309 17 309 17 252 10 c 1,28,29
 327 393 327 393 369.5 774 c 128,-1,30
 412 1155 412 1155 425 1540 c 1,0,1
EndSplineSet
Validated: 1
EndChar

StartChar: l
Encoding: 108 108 79
Width: 625
Flags: W
LayerCount: 2
Fore
SplineSet
391 1537 m 1,0,1
 419 1524 419 1524 449.5 1519.5 c 128,-1,2
 480 1515 480 1515 511 1515 c 0,3,4
 519 1515 519 1515 527.5 1515 c 128,-1,5
 536 1515 536 1515 544 1516 c 1,6,7
 515 1195 515 1195 486.5 877.5 c 128,-1,8
 458 560 458 560 431 239 c 1,9,10
 462 239 462 239 491.5 233 c 128,-1,11
 521 227 521 227 550 218 c 1,12,13
 546 166 546 166 542.5 114 c 128,-1,14
 539 62 539 62 536 10 c 1,15,16
 502 25 502 25 466 32 c 128,-1,17
 430 39 430 39 392 39 c 0,18,19
 314 39 314 39 238 10 c 1,20,21
 286 394 286 394 324 773.5 c 128,-1,22
 362 1153 362 1153 391 1537 c 1,0,1
EndSplineSet
Validated: 1
EndChar

StartChar: m
Encoding: 109 109 80
Width: 2181
Flags: W
LayerCount: 2
Fore
SplineSet
1248 886 m 1,0,1
 1281 937 1281 937 1323 983 c 128,-1,2
 1365 1029 1365 1029 1417 1061 c 1,3,4
 1471 1097 1471 1097 1535.5 1110 c 128,-1,5
 1600 1123 1600 1123 1660 1123 c 0,6,7
 1697 1123 1697 1123 1733.5 1113.5 c 128,-1,8
 1770 1104 1770 1104 1800.5 1085.5 c 128,-1,9
 1831 1067 1831 1067 1854 1039 c 128,-1,10
 1877 1011 1877 1011 1888 974 c 0,11,12
 1900 932 1900 932 1904.5 891.5 c 128,-1,13
 1909 851 1909 851 1909 810 c 0,14,15
 1909 776 1909 776 1906.5 742.5 c 128,-1,16
 1904 709 1904 709 1901 676 c 0,17,18
 1893 599 1893 599 1889 522.5 c 128,-1,19
 1885 446 1885 446 1885 370 c 0,20,21
 1885 278 1885 278 1892 188.5 c 128,-1,22
 1899 99 1899 99 1914 10 c 1,23,24
 1856 13 1856 13 1798.5 16 c 128,-1,25
 1741 19 1741 19 1682 21 c 1,26,-1
 1682 52 l 2,27,28
 1682 214 1682 214 1701 374.5 c 128,-1,29
 1720 535 1720 535 1748 697 c 1,30,31
 1751 731 1751 731 1754.5 765 c 128,-1,32
 1758 799 1758 799 1758 834 c 0,33,34
 1758 927 1758 927 1722.5 970 c 128,-1,35
 1687 1013 1687 1013 1611 1013 c 0,36,37
 1540 1013 1540 1013 1472.5 986 c 128,-1,38
 1405 959 1405 959 1357 899 c 1,39,40
 1308 841 1308 841 1284 771.5 c 128,-1,41
 1260 702 1260 702 1255 630 c 1,42,43
 1220 329 1220 329 1201 31 c 1,44,-1
 966 31 l 1,45,46
 1001 200 1001 200 1033.5 367 c 128,-1,47
 1066 534 1066 534 1096 703 c 1,48,49
 1099 734 1099 734 1099 768 c 0,50,51
 1099 811 1099 811 1092 852 c 128,-1,52
 1085 893 1085 893 1065 930 c 1,53,54
 1047 957 1047 957 1024.5 974.5 c 128,-1,55
 1002 992 1002 992 976.5 1002 c 128,-1,56
 951 1012 951 1012 923.5 1016 c 128,-1,57
 896 1020 896 1020 869 1020 c 0,58,59
 795 1020 795 1020 738 984.5 c 128,-1,60
 681 949 681 949 641 892.5 c 128,-1,61
 601 836 601 836 579 767 c 128,-1,62
 557 698 557 698 554 632 c 0,63,64
 546 478 546 478 530 325.5 c 128,-1,65
 514 173 514 173 482 20 c 1,66,67
 426 18 426 18 370.5 15.5 c 128,-1,68
 315 13 315 13 258 10 c 1,69,70
 331 243 331 243 366 480.5 c 128,-1,71
 401 718 401 718 401 956 c 0,72,73
 401 1031 401 1031 398 1108 c 1,74,75
 439 1106 439 1106 479 1104.5 c 128,-1,76
 519 1103 519 1103 560 1101 c 1,77,78
 558 1059 558 1059 554 1018.5 c 128,-1,79
 550 978 550 978 545 936 c 1,80,81
 550 934 550 934 553.5 933 c 128,-1,82
 557 932 557 932 562 930 c 1,83,84
 585 974 585 974 620 1009 c 128,-1,85
 655 1044 655 1044 697.5 1068 c 128,-1,86
 740 1092 740 1092 787 1105 c 128,-1,87
 834 1118 834 1118 881 1118 c 0,88,89
 941 1118 941 1118 998.5 1105 c 128,-1,90
 1056 1092 1056 1092 1103.5 1064 c 128,-1,91
 1151 1036 1151 1036 1185 992.5 c 128,-1,92
 1219 949 1219 949 1231 888 c 1,93,94
 1236 888 1236 888 1239.5 887.5 c 128,-1,95
 1243 887 1243 887 1248 886 c 1,0,1
EndSplineSet
Validated: 1
EndChar

StartChar: n
Encoding: 110 110 81
Width: 1481
Flags: W
LayerCount: 2
Fore
SplineSet
1244 675 m 0,0,1
 1238 584 1238 584 1234.5 494 c 128,-1,2
 1231 404 1231 404 1231 313 c 0,3,4
 1231 236 1231 236 1234 160.5 c 128,-1,5
 1237 85 1237 85 1244 10 c 1,6,7
 1184 16 1184 16 1124.5 20 c 128,-1,8
 1065 24 1065 24 1004 26 c 1,9,10
 1016 190 1016 190 1036 351.5 c 128,-1,11
 1056 513 1056 513 1081 676 c 1,12,13
 1083 699 1083 699 1084.5 722.5 c 128,-1,14
 1086 746 1086 746 1086 769 c 0,15,16
 1086 804 1086 804 1080.5 838 c 128,-1,17
 1075 872 1075 872 1061 904 c 1,18,19
 1048 929 1048 929 1029 945 c 128,-1,20
 1010 961 1010 961 988.5 971 c 128,-1,21
 967 981 967 981 943 985 c 128,-1,22
 919 989 919 989 895 989 c 0,23,24
 861 989 861 989 825 985 c 128,-1,25
 789 981 789 981 754.5 971 c 128,-1,26
 720 961 720 961 688 943 c 128,-1,27
 656 925 656 925 630 897 c 0,28,29
 581 843 581 843 559.5 775.5 c 128,-1,30
 538 708 538 708 533 640 c 1,31,32
 523 334 523 334 491 26 c 1,33,34
 431 23 431 23 373.5 19.5 c 128,-1,35
 316 16 316 16 256 10 c 1,36,37
 319 287 319 287 350 563.5 c 128,-1,38
 381 840 381 840 385 1118 c 1,39,40
 426 1113 426 1113 466 1110 c 128,-1,41
 506 1107 506 1107 547 1105 c 1,42,43
 546 1070 546 1070 545 1034.5 c 128,-1,44
 544 999 544 999 543 964 c 1,45,46
 635 1032 635 1032 734 1074 c 128,-1,47
 833 1116 833 1116 944 1116 c 0,48,49
 983 1116 983 1116 1021 1109 c 128,-1,50
 1059 1102 1059 1102 1093 1086.5 c 128,-1,51
 1127 1071 1127 1071 1155 1047 c 128,-1,52
 1183 1023 1183 1023 1201 989 c 1,53,54
 1228 929 1228 929 1237 869.5 c 128,-1,55
 1246 810 1246 810 1246 750 c 0,56,57
 1246 731 1246 731 1245.5 712.5 c 128,-1,58
 1245 694 1245 694 1244 675 c 0,0,1
EndSplineSet
Validated: 1
EndChar

StartChar: o
Encoding: 111 111 82
Width: 1386
Flags: W
LayerCount: 2
Fore
SplineSet
696 1002 m 1,0,1
 628 1002 628 1002 563.5 975 c 128,-1,2
 499 948 499 948 454 891 c 0,3,4
 422 850 422 850 401 803 c 128,-1,5
 380 756 380 756 368 707 c 128,-1,6
 356 658 356 658 351.5 608 c 128,-1,7
 347 558 347 558 347 512 c 0,8,9
 347 487 347 487 349.5 462.5 c 128,-1,10
 352 438 352 438 358.5 415.5 c 128,-1,11
 365 393 365 393 377.5 373.5 c 128,-1,12
 390 354 390 354 410 339 c 1,13,14
 459 308 459 308 517 298.5 c 128,-1,15
 575 289 575 289 634 289 c 0,16,17
 692 289 692 289 751 299.5 c 128,-1,18
 810 310 810 310 863 340 c 1,19,20
 901 366 901 366 923 407.5 c 128,-1,21
 945 449 945 449 955.5 494.5 c 128,-1,22
 966 540 966 540 968.5 583.5 c 128,-1,23
 971 627 971 627 971 658 c 0,24,25
 971 719 971 719 959 779 c 128,-1,26
 947 839 947 839 917 890 c 0,27,28
 883 947 883 947 823 974 c 128,-1,29
 763 1001 763 1001 696 1002 c 1,0,1
707 1114 m 0,30,31
 756 1114 756 1114 805 1107 c 128,-1,32
 854 1100 854 1100 899 1084 c 128,-1,33
 944 1068 944 1068 983.5 1041 c 128,-1,34
 1023 1014 1023 1014 1052 974 c 0,35,36
 1100 908 1100 908 1117 830 c 128,-1,37
 1134 752 1134 752 1134 669 c 0,38,39
 1134 607 1134 607 1128 537.5 c 128,-1,40
 1122 468 1122 468 1104.5 398.5 c 128,-1,41
 1087 329 1087 329 1056.5 263 c 128,-1,42
 1026 197 1026 197 978 143 c 0,43,44
 942 101 942 101 898 74 c 128,-1,45
 854 47 854 47 805 31.5 c 128,-1,46
 756 16 756 16 704.5 9.5 c 128,-1,47
 653 3 653 3 604 3 c 0,48,49
 556 3 556 3 506.5 9.5 c 128,-1,50
 457 16 457 16 412 32 c 128,-1,51
 367 48 367 48 328.5 75 c 128,-1,52
 290 102 290 102 262 142 c 0,53,54
 214 208 214 208 197 287.5 c 128,-1,55
 180 367 180 367 180 451 c 0,56,57
 180 512 180 512 186 581 c 128,-1,58
 192 650 192 650 209 720 c 128,-1,59
 226 790 226 790 256 855.5 c 128,-1,60
 286 921 286 921 335 974 c 0,61,62
 371 1014 371 1014 415.5 1040.5 c 128,-1,63
 460 1067 460 1067 508 1083.5 c 128,-1,64
 556 1100 556 1100 606.5 1107 c 128,-1,65
 657 1114 657 1114 707 1114 c 0,30,31
EndSplineSet
Validated: 1
EndChar

StartChar: p
Encoding: 112 112 83
Width: 1315
Flags: W
LayerCount: 2
Fore
SplineSet
502 172 m 1,0,1
 484 29 484 29 461.5 -113.5 c 128,-1,2
 439 -256 439 -256 414 -399 c 1,3,4
 372 -403 372 -403 331 -407 c 128,-1,5
 290 -411 290 -411 248 -416 c 1,6,7
 322 -35 322 -35 364.5 343.5 c 128,-1,8
 407 722 407 722 423 1105 c 1,9,10
 464 1100 464 1100 503.5 1096 c 128,-1,11
 543 1092 543 1092 584 1090 c 1,12,13
 578 1050 578 1050 571.5 1010 c 128,-1,14
 565 970 565 970 559 930 c 1,15,16
 564 928 564 928 567.5 927 c 128,-1,17
 571 926 571 926 574 924 c 1,18,19
 601 970 601 970 640 1004.5 c 128,-1,20
 679 1039 679 1039 725 1061.5 c 128,-1,21
 771 1084 771 1084 821 1095.5 c 128,-1,22
 871 1107 871 1107 921 1107 c 2,23,-1
 934 1107 l 1,24,-1
 951 1107 l 2,25,26
 1037 1107 1037 1107 1113.5 1072 c 128,-1,27
 1190 1037 1190 1037 1235 967 c 1,28,29
 1278 904 1278 904 1294.5 829 c 128,-1,30
 1311 754 1311 754 1311 676 c 0,31,32
 1311 611 1311 611 1303.5 541 c 128,-1,33
 1296 471 1296 471 1277.5 401 c 128,-1,34
 1259 331 1259 331 1228 265 c 128,-1,35
 1197 199 1197 199 1150 144 c 1,36,37
 1093 74 1093 74 1012 35 c 128,-1,38
 931 -4 931 -4 845 -4 c 2,39,-1
 833 -4 l 1,40,-1
 818 -4 l 2,41,42
 770 -4 770 -4 724 7.5 c 128,-1,43
 678 19 678 19 638 42 c 128,-1,44
 598 65 598 65 567.5 98.5 c 128,-1,45
 537 132 537 132 520 177 c 1,46,47
 515 175 515 175 511 174.5 c 128,-1,48
 507 174 507 174 502 172 c 1,0,1
1216 587 m 1,49,50
 1218 610 1218 610 1219.5 634 c 128,-1,51
 1221 658 1221 658 1221 682 c 0,52,53
 1221 746 1221 746 1206.5 805.5 c 128,-1,54
 1192 865 1192 865 1160.5 910 c 128,-1,55
 1129 955 1129 955 1080.5 982 c 128,-1,56
 1032 1009 1032 1009 964 1009 c 0,57,58
 892 1009 892 1009 825 981.5 c 128,-1,59
 758 954 758 954 711 893 c 1,60,61
 678 853 678 853 657 806 c 128,-1,62
 636 759 636 759 624.5 709 c 128,-1,63
 613 659 613 659 608.5 609 c 128,-1,64
 604 559 604 559 604 513 c 0,65,66
 604 486 604 486 607 459.5 c 128,-1,67
 610 433 610 433 617.5 408 c 128,-1,68
 625 383 625 383 638.5 361.5 c 128,-1,69
 652 340 652 340 673 324 c 1,70,71
 721 292 721 292 777 279.5 c 128,-1,72
 833 267 833 267 892 267 c 0,73,74
 949 267 949 267 1006 278.5 c 128,-1,75
 1063 290 1063 290 1113 324 c 1,76,77
 1143 348 1143 348 1161 379.5 c 128,-1,78
 1179 411 1179 411 1189.5 445.5 c 128,-1,79
 1200 480 1200 480 1205.5 516.5 c 128,-1,80
 1211 553 1211 553 1216 587 c 1,49,50
EndSplineSet
Validated: 1
EndChar

StartChar: q
Encoding: 113 113 84
Width: 1319
Flags: W
LayerCount: 2
Fore
SplineSet
148 580 m 0,0,1
 147 563 147 563 146 544.5 c 128,-1,2
 145 526 145 526 145 508 c 0,3,4
 145 455 145 455 157 406 c 128,-1,5
 169 357 169 357 208 322 c 1,6,7
 253 290 253 290 308.5 280.5 c 128,-1,8
 364 271 364 271 421 271 c 256,9,10
 478 271 478 271 537 282 c 128,-1,11
 596 293 596 293 649 323 c 1,12,13
 689 352 689 352 712 396.5 c 128,-1,14
 735 441 735 441 746 489.5 c 128,-1,15
 757 538 757 538 760 584.5 c 128,-1,16
 763 631 763 631 763 664 c 0,17,18
 763 724 763 724 751 780.5 c 128,-1,19
 739 837 739 837 709 888 c 0,20,21
 672 949 672 949 608.5 976 c 128,-1,22
 545 1003 545 1003 472 1002 c 0,23,24
 409 1002 409 1002 348.5 973.5 c 128,-1,25
 288 945 288 945 248 893 c 0,26,27
 221 858 221 858 203.5 820 c 128,-1,28
 186 782 186 782 174.5 742 c 128,-1,29
 163 702 163 702 157 661 c 128,-1,30
 151 620 151 620 148 580 c 0,0,1
786 178 m 1,31,32
 782 179 782 179 778 180 c 128,-1,33
 774 181 774 181 771 183 c 1,34,35
 745 138 745 138 708.5 103.5 c 128,-1,36
 672 69 672 69 628 45 c 128,-1,37
 584 21 584 21 535.5 8.5 c 128,-1,38
 487 -4 487 -4 439 -4 c 2,39,-1
 423 -4 l 1,40,-1
 411 -4 l 2,41,42
 325 -4 325 -4 250.5 34 c 128,-1,43
 176 72 176 72 132 142 c 1,44,45
 83 216 83 216 66 303 c 128,-1,46
 49 390 49 390 49 481 c 0,47,48
 49 540 49 540 55 604.5 c 128,-1,49
 61 669 61 669 77 732.5 c 128,-1,50
 93 796 93 796 120.5 855.5 c 128,-1,51
 148 915 148 915 191 966 c 0,52,53
 250 1035 250 1035 332.5 1071.5 c 128,-1,54
 415 1108 415 1108 501 1107 c 1,55,-1
 518 1107 l 1,56,-1
 536 1107 l 2,57,58
 588 1107 588 1107 637.5 1093 c 128,-1,59
 687 1079 687 1079 729 1052.5 c 128,-1,60
 771 1026 771 1026 804 988 c 128,-1,61
 837 950 837 950 857 903 c 1,62,63
 868 951 868 951 880.5 998.5 c 128,-1,64
 893 1046 893 1046 905 1094 c 1,65,66
 947 1098 947 1098 988 1102 c 128,-1,67
 1029 1106 1029 1106 1071 1111 c 1,68,69
 997 730 997 730 954 351 c 128,-1,70
 911 -28 911 -28 900 -411 c 1,71,72
 858 -406 858 -406 818.5 -402 c 128,-1,73
 779 -398 779 -398 737 -396 c 1,74,75
 745 -252 745 -252 757 -109 c 128,-1,76
 769 34 769 34 786 178 c 1,31,32
EndSplineSet
Validated: 33
EndChar

StartChar: r
Encoding: 114 114 85
Width: 887
Flags: W
LayerCount: 2
Fore
SplineSet
920 944 m 1,0,1
 905 950 905 950 889 952 c 128,-1,2
 873 954 873 954 856 954 c 0,3,4
 817 954 817 954 776 949.5 c 128,-1,5
 735 945 735 945 696 932.5 c 128,-1,6
 657 920 657 920 622 897.5 c 128,-1,7
 587 875 587 875 562 839 c 0,8,9
 517 776 517 776 498 703.5 c 128,-1,10
 479 631 479 631 472 559 c 1,11,12
 465 425 465 425 457.5 294 c 128,-1,13
 450 163 450 163 439 29 c 1,14,15
 385 27 385 27 331 22.5 c 128,-1,16
 277 18 277 18 223 10 c 1,17,18
 278 281 278 281 313.5 550.5 c 128,-1,19
 349 820 349 820 369 1093 c 1,20,21
 405 1088 405 1088 440 1086 c 128,-1,22
 475 1084 475 1084 511 1082 c 1,23,24
 509 1051 509 1051 507 1021 c 128,-1,25
 505 991 505 991 503 960 c 1,26,27
 537 983 537 983 573 1002.5 c 128,-1,28
 609 1022 609 1022 645 1043 c 0,29,30
 675 1061 675 1061 709 1073.5 c 128,-1,31
 743 1086 743 1086 778 1094.5 c 128,-1,32
 813 1103 813 1103 848 1106.5 c 128,-1,33
 883 1110 883 1110 915 1110 c 2,34,-1
 944 1110 l 1,35,36
 937 1068 937 1068 931 1027 c 128,-1,37
 925 986 925 986 920 944 c 1,0,1
EndSplineSet
Validated: 1
EndChar

StartChar: s
Encoding: 115 115 86
Width: 1237
Flags: W
LayerCount: 2
Fore
SplineSet
1065 1080 m 1,0,1
 1060 1045 1060 1045 1054 1011 c 128,-1,2
 1048 977 1048 977 1043 942 c 1,3,4
 967 977 967 977 885.5 990 c 128,-1,5
 804 1003 804 1003 718 1003 c 0,6,7
 673 1003 673 1003 623.5 994.5 c 128,-1,8
 574 986 574 986 532.5 964 c 128,-1,9
 491 942 491 942 464.5 904.5 c 128,-1,10
 438 867 438 867 438 810 c 0,11,12
 438 773 438 773 453.5 746 c 128,-1,13
 469 719 469 719 494 699.5 c 128,-1,14
 519 680 519 680 550.5 666 c 128,-1,15
 582 652 582 652 615 643 c 128,-1,16
 648 634 648 634 678 628 c 128,-1,17
 708 622 708 622 731 618 c 1,18,19
 764 610 764 610 797 601 c 128,-1,20
 830 592 830 592 861.5 579 c 128,-1,21
 893 566 893 566 922 549 c 128,-1,22
 951 532 951 532 976 509 c 0,23,24
 1011 475 1011 475 1025 428.5 c 128,-1,25
 1039 382 1039 382 1039 333 c 0,26,27
 1039 297 1039 297 1032 261 c 128,-1,28
 1025 225 1025 225 1010 191.5 c 128,-1,29
 995 158 995 158 971.5 129 c 128,-1,30
 948 100 948 100 914 79 c 0,31,32
 874 54 874 54 831 39 c 128,-1,33
 788 24 788 24 743 16 c 128,-1,34
 698 8 698 8 652.5 5.5 c 128,-1,35
 607 3 607 3 564 3 c 0,36,37
 473 3 473 3 384 15.5 c 128,-1,38
 295 28 295 28 209 49 c 1,39,40
 220 111 220 111 228.5 171.5 c 128,-1,41
 237 232 237 232 245 294 c 1,42,43
 322 253 322 253 407 231.5 c 128,-1,44
 492 210 492 210 582 210 c 2,45,-1
 604 210 l 1,46,47
 611 209 611 209 617.5 209 c 128,-1,48
 624 209 624 209 631 209 c 0,49,50
 668 209 668 209 708 216.5 c 128,-1,51
 748 224 748 224 782 241.5 c 128,-1,52
 816 259 816 259 838.5 288.5 c 128,-1,53
 861 318 861 318 863 363 c 1,54,55
 852 386 852 386 840.5 408.5 c 128,-1,56
 829 431 829 431 814 451 c 1,57,58
 790 470 790 470 758.5 483 c 128,-1,59
 727 496 727 496 694 505 c 128,-1,60
 661 514 661 514 629 520.5 c 128,-1,61
 597 527 597 527 572 533 c 0,62,63
 543 540 543 540 513.5 547.5 c 128,-1,64
 484 555 484 555 455.5 566 c 128,-1,65
 427 577 427 577 401 592 c 128,-1,66
 375 607 375 607 353 628 c 0,67,68
 320 660 320 660 309.5 705 c 128,-1,69
 299 750 299 750 299 797 c 0,70,71
 299 837 299 837 307.5 878 c 128,-1,72
 316 919 316 919 334.5 955 c 128,-1,73
 353 991 353 991 383 1020 c 128,-1,74
 413 1049 413 1049 455 1066 c 0,75,76
 529 1095 529 1095 594 1104.5 c 128,-1,77
 659 1114 659 1114 724 1114 c 0,78,79
 812 1114 812 1114 899 1106 c 128,-1,80
 986 1098 986 1098 1069 1072 c 1,81,-1
 1065 1080 l 1,0,1
EndSplineSet
Validated: 5
EndChar

StartChar: t
Encoding: 116 116 87
Width: 842
Flags: W
LayerCount: 2
Fore
SplineSet
420 1360 m 1,0,1
 412 1292 412 1292 404 1225 c 128,-1,2
 396 1158 396 1158 388 1091 c 1,3,-1
 428 1091 l 2,4,5
 481 1091 481 1091 533 1092.5 c 128,-1,6
 585 1094 585 1094 638 1098 c 1,7,8
 634 1068 634 1068 631.5 1038 c 128,-1,9
 629 1008 629 1008 624 978 c 1,10,11
 573 976 573 976 522 974.5 c 128,-1,12
 471 973 471 973 420 973 c 2,13,-1
 378 973 l 1,14,15
 365 853 365 853 353 734.5 c 128,-1,16
 341 616 341 616 327 496 c 0,17,18
 326 479 326 479 325 461.5 c 128,-1,19
 324 444 324 444 324 426 c 0,20,21
 324 397 324 397 329 370.5 c 128,-1,22
 334 344 334 344 350 321 c 1,23,24
 364 307 364 307 381.5 299 c 128,-1,25
 399 291 399 291 419 286.5 c 128,-1,26
 439 282 439 282 459.5 280.5 c 128,-1,27
 480 279 480 279 500 278 c 0,28,29
 543 276 543 276 585 273 c 128,-1,30
 627 270 627 270 670 265 c 1,31,32
 667 201 667 201 665 137.5 c 128,-1,33
 663 74 663 74 662 10 c 1,34,35
 618 18 618 18 574 22 c 128,-1,36
 530 26 530 26 485 31 c 1,37,38
 448 34 448 34 410 37 c 128,-1,39
 372 40 372 40 335 47.5 c 128,-1,40
 298 55 298 55 263.5 68.5 c 128,-1,41
 229 82 229 82 201 106 c 1,42,43
 166 141 166 141 155 187.5 c 128,-1,44
 144 234 144 234 144 285 c 0,45,46
 144 308 144 308 145.5 331.5 c 128,-1,47
 147 355 147 355 149 377 c 0,48,49
 166 528 166 528 182.5 677 c 128,-1,50
 199 826 199 826 212 977 c 1,51,52
 180 979 180 979 148.5 980.5 c 128,-1,53
 117 982 117 982 86 986 c 1,54,55
 87 1017 87 1017 89 1047.5 c 128,-1,56
 91 1078 91 1078 93 1109 c 1,57,58
 125 1105 125 1105 156 1101.5 c 128,-1,59
 187 1098 187 1098 219 1096 c 1,60,61
 226 1164 226 1164 232.5 1231.5 c 128,-1,62
 239 1299 239 1299 245 1367 c 1,63,64
 290 1363 290 1363 332.5 1361.5 c 128,-1,65
 375 1360 375 1360 420 1360 c 1,0,1
EndSplineSet
Validated: 1
EndChar

StartChar: u
Encoding: 117 117 88
Width: 1450
Flags: W
LayerCount: 2
Fore
SplineSet
251 442 m 0,0,1
 267 588 267 588 275 732 c 128,-1,2
 283 876 283 876 283 1021 c 0,3,4
 283 1044 283 1044 282.5 1066 c 128,-1,5
 282 1088 282 1088 282 1111 c 1,6,7
 314 1106 314 1106 347.5 1104 c 128,-1,8
 381 1102 381 1102 414 1098 c 1,9,10
 412 974 412 974 406 852 c 128,-1,11
 400 730 400 730 391 606 c 0,12,13
 391 598 391 598 390.5 589.5 c 128,-1,14
 390 581 390 581 390 572 c 0,15,16
 390 523 390 523 397 474.5 c 128,-1,17
 404 426 404 426 425 383 c 1,18,19
 454 332 454 332 499.5 311.5 c 128,-1,20
 545 291 545 291 594 291 c 0,21,22
 660 291 660 291 724 311.5 c 128,-1,23
 788 332 788 332 837 385 c 0,24,25
 886 439 886 439 911.5 505.5 c 128,-1,26
 937 572 937 572 948 641 c 1,27,28
 960 756 960 756 977 869 c 128,-1,29
 994 982 994 982 1014 1096 c 1,30,31
 1112 1100 1112 1100 1210 1111 c 1,32,33
 1151 836 1151 836 1121 562 c 128,-1,34
 1091 288 1091 288 1090 12 c 1,35,36
 1049 16 1049 16 1008.5 18.5 c 128,-1,37
 968 21 968 21 928 23 c 1,38,39
 931 72 931 72 935.5 120 c 128,-1,40
 940 168 940 168 945 217 c 1,41,42
 915 170 915 170 874.5 130 c 128,-1,43
 834 90 834 90 786 61.5 c 128,-1,44
 738 33 738 33 685 17 c 128,-1,45
 632 1 632 1 577 1 c 2,46,-1
 568 1 l 1,47,-1
 550 1 l 2,48,49
 511 1 511 1 471.5 7.5 c 128,-1,50
 432 14 432 14 397 29 c 128,-1,51
 362 44 362 44 333 68 c 128,-1,52
 304 92 304 92 286 127 c 1,53,54
 263 181 263 181 254.5 233.5 c 128,-1,55
 246 286 246 286 246 338 c 0,56,57
 246 364 246 364 247.5 390 c 128,-1,58
 249 416 249 416 251 442 c 0,0,1
EndSplineSet
Validated: 1
EndChar

StartChar: v
Encoding: 118 118 89
Width: 1264
Flags: W
LayerCount: 2
Fore
SplineSet
86 1110 m 1,0,1
 129 1106 129 1106 171.5 1102 c 128,-1,2
 214 1098 214 1098 257 1096 c 1,3,4
 340 898 340 898 407.5 694.5 c 128,-1,5
 475 491 475 491 544 286 c 1,6,7
 648 491 648 491 750.5 695 c 128,-1,8
 853 899 853 899 972 1097 c 1,9,10
 1017 1100 1017 1100 1060 1103 c 128,-1,11
 1103 1106 1103 1106 1148 1110 c 1,12,13
 1074 980 1074 980 1008.5 846 c 128,-1,14
 943 712 943 712 883 576.5 c 128,-1,15
 823 441 823 441 765.5 303.5 c 128,-1,16
 708 166 708 166 650 30 c 1,17,18
 623 31 623 31 595.5 31 c 128,-1,19
 568 31 568 31 541 31 c 0,20,21
 504 31 504 31 467.5 30.5 c 128,-1,22
 431 30 431 30 393 30 c 1,23,24
 357 166 357 166 323 302.5 c 128,-1,25
 289 439 289 439 253 575 c 128,-1,26
 217 711 217 711 176 845 c 128,-1,27
 135 979 135 979 86 1110 c 1,0,1
EndSplineSet
Validated: 1
EndChar

StartChar: w
Encoding: 119 119 90
Width: 1831
Flags: W
LayerCount: 2
Fore
SplineSet
164 1110 m 1,0,1
 204 1107 204 1107 244 1104.5 c 128,-1,2
 284 1102 284 1102 325 1100 c 1,3,4
 390 909 390 909 432.5 713 c 128,-1,5
 475 517 475 517 507 316 c 1,6,7
 571 419 571 419 631 523 c 128,-1,8
 691 627 691 627 753 732 c 1,9,-1
 805 732 l 1,10,-1
 897 732 l 2,11,12
 919 732 919 732 940 732 c 128,-1,13
 961 732 961 732 983 733 c 1,14,15
 1025 627 1025 627 1067.5 523.5 c 128,-1,16
 1110 420 1110 420 1155 316 c 1,17,18
 1224 517 1224 517 1300.5 714 c 128,-1,19
 1377 911 1377 911 1478 1101 c 1,20,21
 1519 1103 1519 1103 1559.5 1105 c 128,-1,22
 1600 1107 1600 1107 1642 1110 c 1,23,24
 1574 981 1574 981 1517.5 847 c 128,-1,25
 1461 713 1461 713 1414.5 576.5 c 128,-1,26
 1368 440 1368 440 1329.5 301.5 c 128,-1,27
 1291 163 1291 163 1259 24 c 1,28,29
 1198 26 1198 26 1138 27 c 128,-1,30
 1078 28 1078 28 1017 30 c 1,31,32
 970 155 970 155 929 281 c 128,-1,33
 888 407 888 407 851 535 c 1,34,35
 788 407 788 407 723.5 280.5 c 128,-1,36
 659 154 659 154 589 29 c 1,37,38
 530 29 530 29 472.5 27 c 128,-1,39
 415 25 415 25 356 24 c 1,40,41
 345 163 345 163 330 301 c 128,-1,42
 315 439 315 439 292.5 575.5 c 128,-1,43
 270 712 270 712 238.5 846 c 128,-1,44
 207 980 207 980 164 1110 c 1,0,1
EndSplineSet
Validated: 1
EndChar

StartChar: x
Encoding: 120 120 91
Width: 1491
Flags: W
LayerCount: 2
Fore
SplineSet
1319 1107 m 1,0,1
 1201 965 1201 965 1091 819.5 c 128,-1,2
 981 674 981 674 871 525 c 1,3,4
 967 393 967 393 1063 264.5 c 128,-1,5
 1159 136 1159 136 1262 10 c 1,6,7
 1195 16 1195 16 1128 20 c 128,-1,8
 1061 24 1061 24 993 26 c 1,9,10
 932 121 932 121 875 217 c 128,-1,11
 818 313 818 313 764 412 c 1,12,13
 686 313 686 313 608.5 217 c 128,-1,14
 531 121 531 121 449 26 c 1,15,16
 381 24 381 24 314 19.5 c 128,-1,17
 247 15 247 15 178 10 c 1,18,19
 303 140 303 140 424.5 270 c 128,-1,20
 546 400 546 400 665 535 c 1,21,22
 584 681 584 681 501 823 c 128,-1,23
 418 965 418 965 327 1105 c 1,24,25
 371 1101 371 1101 413 1098.5 c 128,-1,26
 455 1096 455 1096 499 1094 c 1,27,28
 571 982 571 982 638.5 869 c 128,-1,29
 706 756 706 756 772 640 c 1,30,31
 866 757 866 757 960.5 870.5 c 128,-1,32
 1055 984 1055 984 1155 1096 c 1,33,34
 1197 1098 1197 1098 1237.5 1100.5 c 128,-1,35
 1278 1103 1278 1103 1319 1107 c 1,0,1
EndSplineSet
Validated: 1
EndChar

StartChar: y
Encoding: 121 121 92
Width: 1325
Flags: W
LayerCount: 2
Fore
SplineSet
773 -83 m 1,0,1
 753 -119 753 -119 732.5 -156 c 128,-1,2
 712 -193 712 -193 688.5 -227.5 c 128,-1,3
 665 -262 665 -262 637 -293.5 c 128,-1,4
 609 -325 609 -325 575 -351 c 1,5,6
 534 -380 534 -380 489 -393.5 c 128,-1,7
 444 -407 444 -407 397 -413.5 c 128,-1,8
 350 -420 350 -420 302 -422.5 c 128,-1,9
 254 -425 254 -425 207 -430 c 1,10,11
 217 -374 217 -374 225 -318.5 c 128,-1,12
 233 -263 233 -263 242 -207 c 1,13,14
 273 -204 273 -204 304.5 -203.5 c 128,-1,15
 336 -203 336 -203 366.5 -199.5 c 128,-1,16
 397 -196 397 -196 426.5 -187 c 128,-1,17
 456 -178 456 -178 482 -158 c 1,18,19
 509 -135 509 -135 534.5 -109 c 128,-1,20
 560 -83 560 -83 584 -57 c 1,21,22
 607 -17 607 -17 630 22 c 128,-1,23
 653 61 653 61 676 101 c 1,24,25
 582 356 582 356 487.5 608 c 128,-1,26
 393 860 393 860 287 1110 c 1,27,28
 329 1104 329 1104 371.5 1099 c 128,-1,29
 414 1094 414 1094 458 1091 c 1,30,31
 547 929 547 929 633 768 c 128,-1,32
 719 607 719 607 802 442 c 1,33,34
 893 607 893 607 983.5 769 c 128,-1,35
 1074 931 1074 931 1172 1092 c 1,36,37
 1216 1096 1216 1096 1260 1100.5 c 128,-1,38
 1304 1105 1304 1105 1349 1110 c 1,39,40
 1269 964 1269 964 1195.5 815.5 c 128,-1,41
 1122 667 1122 667 1051.5 517.5 c 128,-1,42
 981 368 981 368 912 217.5 c 128,-1,43
 843 67 843 67 773 -83 c 1,0,1
EndSplineSet
Validated: 1
EndChar

StartChar: z
Encoding: 122 122 93
Width: 1350
Flags: W
LayerCount: 2
Fore
SplineSet
315 1105 m 1,0,1
 510 1087 510 1087 708 1087 c 0,2,3
 821 1087 821 1087 934 1093 c 128,-1,4
 1047 1099 1047 1099 1161 1110 c 1,5,6
 1153 1071 1153 1071 1146 1032.5 c 128,-1,7
 1139 994 1139 994 1132 955 c 1,8,9
 959 777 959 777 790.5 600.5 c 128,-1,10
 622 424 622 424 448 248 c 1,11,12
 556 251 556 251 663 251 c 0,13,14
 859 251 859 251 1053 239 c 1,15,16
 1052 217 1052 217 1052 195.5 c 128,-1,17
 1052 174 1052 174 1052 152 c 0,18,19
 1052 117 1052 117 1052.5 81.5 c 128,-1,20
 1053 46 1053 46 1054 11 c 1,21,22
 947 22 947 22 840 26.5 c 128,-1,23
 733 31 733 31 624 31 c 0,24,25
 399 31 399 31 174 10 c 1,26,27
 188 73 188 73 198 136.5 c 128,-1,28
 208 200 208 200 218 264 c 1,29,30
 406 447 406 447 596 625 c 128,-1,31
 786 803 786 803 978 981 c 1,32,33
 904 978 904 978 831.5 976 c 128,-1,34
 759 974 759 974 685 974 c 0,35,36
 591 974 591 974 499 977 c 128,-1,37
 407 980 407 980 315 988 c 1,38,-1
 315 1066 l 1,39,-1
 315 1105 l 1,0,1
EndSplineSet
Validated: 1
EndChar

StartChar: braceleft
Encoding: 123 123 94
Width: 938
Flags: W
LayerCount: 2
Fore
SplineSet
668 -148 m 1,0,1
 666 -194 666 -194 663 -240 c 128,-1,2
 660 -286 660 -286 659 -332 c 1,3,4
 618 -325 618 -325 569 -318.5 c 128,-1,5
 520 -312 520 -312 471 -301.5 c 128,-1,6
 422 -291 422 -291 376 -273.5 c 128,-1,7
 330 -256 330 -256 296 -226 c 1,8,9
 260 -184 260 -184 249.5 -131 c 128,-1,10
 239 -78 239 -78 239 -21 c 0,11,12
 239 20 239 20 243 62 c 128,-1,13
 247 104 247 104 252.5 146 c 128,-1,14
 258 188 258 188 262 229.5 c 128,-1,15
 266 271 266 271 266 313 c 0,16,17
 266 358 266 358 260 403 c 128,-1,18
 254 448 254 448 231 486 c 1,19,20
 216 505 216 505 195 517 c 128,-1,21
 174 529 174 529 150 536 c 128,-1,22
 126 543 126 543 100.5 545.5 c 128,-1,23
 75 548 75 548 51 549 c 1,24,-1
 45 549 l 2,25,26
 37 549 37 549 29.5 549.5 c 128,-1,27
 22 550 22 550 14 550 c 2,28,-1
 4 550 l 1,29,30
 6 581 6 581 10 611.5 c 128,-1,31
 14 642 14 642 16 673 c 1,32,33
 27 673 27 673 37 671.5 c 128,-1,34
 47 670 47 670 58 670 c 0,35,36
 83 670 83 670 110 672.5 c 128,-1,37
 137 675 137 675 163 681 c 128,-1,38
 189 687 189 687 214 698 c 128,-1,39
 239 709 239 709 260 726 c 1,40,41
 280 746 280 746 293 770 c 128,-1,42
 306 794 306 794 314 820 c 128,-1,43
 322 846 322 846 326.5 873 c 128,-1,44
 331 900 331 900 334 926 c 0,45,46
 339 984 339 984 345.5 1041 c 128,-1,47
 352 1098 352 1098 357 1156 c 1,48,49
 362 1191 362 1191 368 1228.5 c 128,-1,50
 374 1266 374 1266 385 1301.5 c 128,-1,51
 396 1337 396 1337 415 1369.5 c 128,-1,52
 434 1402 434 1402 464 1427 c 1,53,54
 509 1454 509 1454 557.5 1470 c 128,-1,55
 606 1486 606 1486 656.5 1496.5 c 128,-1,56
 707 1507 707 1507 757.5 1514.5 c 128,-1,57
 808 1522 808 1522 856 1533 c 1,58,59
 850 1501 850 1501 845 1470.5 c 128,-1,60
 840 1440 840 1440 835 1408 c 1,61,62
 805 1400 805 1400 771 1395.5 c 128,-1,63
 737 1391 737 1391 703 1384 c 128,-1,64
 669 1377 669 1377 636.5 1365.5 c 128,-1,65
 604 1354 604 1354 577 1332 c 1,66,67
 560 1313 560 1313 549.5 1291 c 128,-1,68
 539 1269 539 1269 532.5 1245.5 c 128,-1,69
 526 1222 526 1222 522.5 1197.5 c 128,-1,70
 519 1173 519 1173 515 1150 c 1,71,72
 508 1090 508 1090 501.5 1031 c 128,-1,73
 495 972 495 972 488 912 c 0,74,75
 481 858 481 858 469 802.5 c 128,-1,76
 457 747 457 747 425 699 c 1,77,78
 397 662 397 662 355.5 642 c 128,-1,79
 314 622 314 622 271 613 c 1,80,-1
 270 595 l 1,81,82
 289 590 289 590 308.5 582.5 c 128,-1,83
 328 575 328 575 345.5 563.5 c 128,-1,84
 363 552 363 552 377.5 537 c 128,-1,85
 392 522 392 522 400 503 c 0,86,87
 416 465 416 465 420 425 c 128,-1,88
 424 385 424 385 424 343 c 2,89,-1
 424 307 l 1,90,-1
 424 308 l 1,91,92
 418 248 418 248 412.5 188.5 c 128,-1,93
 407 129 407 129 401 69 c 1,94,95
 401 31 401 31 406.5 -7.5 c 128,-1,96
 412 -46 412 -46 435 -77 c 1,97,-1
 435 -76 l 1,98,99
 451 -94 451 -94 472 -104.5 c 128,-1,100
 493 -115 493 -115 516 -121.5 c 128,-1,101
 539 -128 539 -128 563.5 -132 c 128,-1,102
 588 -136 588 -136 611 -140 c 1,103,104
 625 -141 625 -141 639.5 -144 c 128,-1,105
 654 -147 654 -147 668 -148 c 1,0,1
EndSplineSet
Validated: 5
EndChar

StartChar: bar
Encoding: 124 124 95
Width: 481
Flags: W
LayerCount: 2
Fore
SplineSet
269 -440 m 1,0,1
 244 -435 244 -435 223 -435 c 0,2,3
 190 -435 190 -435 157.5 -444.5 c 128,-1,4
 125 -454 125 -454 96 -473 c 1,5,6
 134 -225 134 -225 169 20.5 c 128,-1,7
 204 266 204 266 236 514 c 1,8,9
 271 514 271 514 306 514 c 128,-1,10
 341 514 341 514 377 515 c 1,11,12
 349 275 349 275 322 37.5 c 128,-1,13
 295 -200 295 -200 269 -440 c 1,0,1
248 637 m 1,14,15
 277 858 277 858 304 1076.5 c 128,-1,16
 331 1295 331 1295 360 1516 c 1,17,18
 367 1514 367 1514 374 1514 c 128,-1,19
 381 1514 381 1514 388 1514 c 0,20,21
 421 1514 421 1514 453.5 1524.5 c 128,-1,22
 486 1535 486 1535 514 1555 c 1,23,24
 481 1325 481 1325 449.5 1097 c 128,-1,25
 418 869 418 869 388 638 c 1,26,27
 370 636 370 636 352.5 636 c 128,-1,28
 335 636 335 636 318 636 c 256,29,30
 301 636 301 636 283 636 c 128,-1,31
 265 636 265 636 248 637 c 1,14,15
EndSplineSet
Validated: 1
EndChar

StartChar: braceright
Encoding: 125 125 96
Width: 911
Flags: W
LayerCount: 2
Fore
SplineSet
136 -189 m 1,0,1
 162 -185 162 -185 195 -181.5 c 128,-1,2
 228 -178 228 -178 261.5 -171 c 128,-1,3
 295 -164 295 -164 328 -151.5 c 128,-1,4
 361 -139 361 -139 387 -118 c 1,5,6
 405 -99 405 -99 416 -76 c 128,-1,7
 427 -53 427 -53 433.5 -29 c 128,-1,8
 440 -5 440 -5 443.5 20 c 128,-1,9
 447 45 447 45 450 69 c 0,10,11
 455 129 455 129 460.5 188 c 128,-1,12
 466 247 466 247 472 307 c 0,13,14
 475 332 475 332 478.5 358.5 c 128,-1,15
 482 385 482 385 488.5 411.5 c 128,-1,16
 495 438 495 438 505 462.5 c 128,-1,17
 515 487 515 487 531 510 c 0,18,19
 557 548 557 548 599 569 c 128,-1,20
 641 590 641 590 684 601 c 1,21,-1
 686 619 l 1,22,23
 645 627 645 627 606.5 647.5 c 128,-1,24
 568 668 568 668 548 706 c 1,25,26
 531 736 531 736 526.5 771 c 128,-1,27
 522 806 522 806 522 841 c 0,28,29
 522 888 522 888 526 936 c 128,-1,30
 530 984 530 984 535 1032.5 c 128,-1,31
 540 1081 540 1081 544 1128.5 c 128,-1,32
 548 1176 548 1176 548 1223 c 0,33,34
 548 1256 548 1256 541.5 1287.5 c 128,-1,35
 535 1319 535 1319 515 1345 c 1,36,37
 493 1366 493 1366 462 1379 c 128,-1,38
 431 1392 431 1392 397.5 1399.5 c 128,-1,39
 364 1407 364 1407 332 1411.5 c 128,-1,40
 300 1416 300 1416 276 1421 c 1,41,42
 278 1453 278 1453 278.5 1483.5 c 128,-1,43
 279 1514 279 1514 281 1546 c 1,44,45
 324 1535 324 1535 373 1528 c 128,-1,46
 422 1521 422 1521 471 1510.5 c 128,-1,47
 520 1500 520 1500 566 1483.5 c 128,-1,48
 612 1467 612 1467 649 1438 c 1,49,50
 684 1400 684 1400 695 1351.5 c 128,-1,51
 706 1303 706 1303 706 1250 c 0,52,53
 706 1227 706 1227 705 1205.5 c 128,-1,54
 704 1184 704 1184 702 1162 c 2,55,-1
 682 931 l 2,56,57
 679 901 679 901 679 870 c 0,58,59
 679 831 679 831 686.5 794.5 c 128,-1,60
 694 758 694 758 717 727 c 1,61,62
 734 708 734 708 755.5 697 c 128,-1,63
 777 686 777 686 801.5 680.5 c 128,-1,64
 826 675 826 675 851.5 673.5 c 128,-1,65
 877 672 877 672 902 672 c 0,66,67
 914 672 914 672 926.5 673 c 128,-1,68
 939 674 939 674 951 673 c 1,69,-1
 941 550 l 1,70,-1
 908 550 l 2,71,72
 882 550 882 550 854 549 c 128,-1,73
 826 548 826 548 798 542 c 128,-1,74
 770 536 770 536 744.5 524.5 c 128,-1,75
 719 513 719 513 697 492 c 1,76,77
 677 471 677 471 664.5 446 c 128,-1,78
 652 421 652 421 644 394 c 128,-1,79
 636 367 636 367 631.5 339.5 c 128,-1,80
 627 312 627 312 624 285 c 1,81,82
 620 228 620 228 615.5 170.5 c 128,-1,83
 611 113 611 113 606 56 c 0,84,85
 602 20 602 20 597 -17.5 c 128,-1,86
 592 -55 592 -55 581.5 -91 c 128,-1,87
 571 -127 571 -127 553 -160 c 128,-1,88
 535 -193 535 -193 505 -220 c 1,89,90
 467 -246 467 -246 426 -260.5 c 128,-1,91
 385 -275 385 -275 342 -284 c 128,-1,92
 299 -293 299 -293 255.5 -299.5 c 128,-1,93
 212 -306 212 -306 170 -315 c 0,94,95
 156 -317 156 -317 143 -319.5 c 128,-1,96
 130 -322 130 -322 117 -324 c 1,97,98
 122 -290 122 -290 126.5 -256.5 c 128,-1,99
 131 -223 131 -223 136 -189 c 1,0,1
EndSplineSet
Validated: 1
EndChar

StartChar: asciitilde
Encoding: 126 126 97
Width: 1640
Flags: W
LayerCount: 2
Fore
SplineSet
1491 818 m 1,0,1
 1469 783 1469 783 1455.5 744 c 128,-1,2
 1442 705 1442 705 1437 665 c 1,3,4
 1396 635 1396 635 1354.5 602 c 128,-1,5
 1313 569 1313 569 1270 541.5 c 128,-1,6
 1227 514 1227 514 1181.5 496 c 128,-1,7
 1136 478 1136 478 1086 478 c 1,8,9
 1046 479 1046 479 1010.5 489 c 128,-1,10
 975 499 975 499 941.5 513.5 c 128,-1,11
 908 528 908 528 875.5 544.5 c 128,-1,12
 843 561 843 561 808 576 c 1,13,-1
 810 576 l 1,14,15
 757 607 757 607 700 631 c 128,-1,16
 643 655 643 655 579 657 c 1,17,18
 531 656 531 656 487 637 c 128,-1,19
 443 618 443 618 403 591 c 0,20,21
 352 556 352 556 300.5 522.5 c 128,-1,22
 249 489 249 489 197 458 c 1,23,24
 246 544 246 544 252 640 c 1,25,26
 287 670 287 670 326.5 695 c 128,-1,27
 366 720 366 720 408 739 c 128,-1,28
 450 758 450 758 494.5 768.5 c 128,-1,29
 539 779 539 779 584 779 c 0,30,31
 651 779 651 779 717 763.5 c 128,-1,32
 783 748 783 748 844 722 c 0,33,34
 847 720 847 720 850.5 718.5 c 128,-1,35
 854 717 854 717 858 716 c 1,36,-1
 857 716 l 1,37,38
 869 713 869 713 878 708 c 1,39,-1
 877 708 l 1,40,41
 934 685 934 685 991.5 666 c 128,-1,42
 1049 647 1049 647 1112 647 c 0,43,44
 1166 647 1166 647 1216 663 c 128,-1,45
 1266 679 1266 679 1314 703 c 128,-1,46
 1362 727 1362 727 1408.5 755.5 c 128,-1,47
 1455 784 1455 784 1501 810 c 1,48,49
 1498 814 1498 814 1491 818 c 1,0,1
EndSplineSet
Validated: 5
EndChar

StartChar: Aring
Encoding: 197 197 99
Width: 1536
Flags: W
LayerCount: 2
Fore
SplineSet
1049 1598 m 0,0,1
 1050 1603 1050 1603 1050 1606.5 c 128,-1,2
 1050 1610 1050 1610 1050 1615 c 0,3,4
 1050 1645 1050 1645 1038.5 1670.5 c 128,-1,5
 1027 1696 1027 1696 1007.5 1714.5 c 128,-1,6
 988 1733 988 1733 962 1743 c 128,-1,7
 936 1753 936 1753 906 1753 c 0,8,9
 872 1753 872 1753 841 1740 c 128,-1,10
 810 1727 810 1727 786 1704.5 c 128,-1,11
 762 1682 762 1682 748 1651.5 c 128,-1,12
 734 1621 734 1621 734 1585 c 0,13,14
 734 1554 734 1554 745.5 1528 c 128,-1,15
 757 1502 757 1502 777 1482.5 c 128,-1,16
 797 1463 797 1463 824 1452 c 128,-1,17
 851 1441 851 1441 882 1441 c 0,18,19
 912 1441 912 1441 941 1453.5 c 128,-1,20
 970 1466 970 1466 993 1488 c 128,-1,21
 1016 1510 1016 1510 1031 1538 c 128,-1,22
 1046 1566 1046 1566 1049 1598 c 0,0,1
867 1304 m 1,23,24
 782 1115 782 1115 699 928 c 128,-1,25
 616 741 616 741 529 553 c 1,26,27
 674 556 674 556 820 556 c 0,28,29
 883 556 883 556 946 555.5 c 128,-1,30
 1009 555 1009 555 1072 554 c 1,31,32
 1018 742 1018 742 968.5 928.5 c 128,-1,33
 919 1115 919 1115 867 1304 c 1,23,24
740 1380 m 1,34,35
 692 1413 692 1413 663.5 1466 c 128,-1,36
 635 1519 635 1519 635 1580 c 0,37,38
 635 1640 635 1640 658 1690 c 128,-1,39
 681 1740 681 1740 720 1776.5 c 128,-1,40
 759 1813 759 1813 811.5 1833.5 c 128,-1,41
 864 1854 864 1854 923 1854 c 0,42,43
 970 1854 970 1854 1011.5 1837 c 128,-1,44
 1053 1820 1053 1820 1083.5 1790 c 128,-1,45
 1114 1760 1114 1760 1132 1719.5 c 128,-1,46
 1150 1679 1150 1679 1150 1632 c 0,47,48
 1150 1594 1150 1594 1139.5 1558 c 128,-1,49
 1129 1522 1129 1522 1110.5 1489.5 c 128,-1,50
 1092 1457 1092 1457 1065.5 1429 c 128,-1,51
 1039 1401 1039 1401 1006 1380 c 1,52,53
 1055 1207 1055 1207 1103 1034 c 128,-1,54
 1151 861 1151 861 1201 689 c 128,-1,55
 1251 517 1251 517 1306 347 c 128,-1,56
 1361 177 1361 177 1424 10 c 1,57,58
 1377 15 1377 15 1331 20 c 128,-1,59
 1285 25 1285 25 1237 29 c 1,60,61
 1205 124 1205 124 1175 218.5 c 128,-1,62
 1145 313 1145 313 1118 410 c 1,63,64
 1045 412 1045 412 972.5 413 c 128,-1,65
 900 414 900 414 826 414 c 0,66,67
 734 414 734 414 642.5 412.5 c 128,-1,68
 551 411 551 411 459 409 c 1,69,70
 414 312 414 312 369.5 217.5 c 128,-1,71
 325 123 325 123 277 28 c 1,72,73
 229 24 229 24 180.5 20 c 128,-1,74
 132 16 132 16 84 10 c 1,75,76
 174 178 174 178 258.5 348.5 c 128,-1,77
 343 519 343 519 423.5 690.5 c 128,-1,78
 504 862 504 862 582.5 1034.5 c 128,-1,79
 661 1207 661 1207 740 1380 c 1,34,35
EndSplineSet
Validated: 1
EndChar

StartChar: dagger
Encoding: 8224 8224 130
Width: 918
Flags: W
LayerCount: 2
Fore
SplineSet
391 1450 m 1,0,1
 414 1449 414 1449 436 1449 c 128,-1,2
 458 1449 458 1449 481 1449 c 0,3,4
 498 1449 498 1449 514 1449 c 128,-1,5
 530 1449 530 1449 547 1450 c 1,6,7
 537 1348 537 1348 527.5 1247 c 128,-1,8
 518 1146 518 1146 508 1044 c 1,9,10
 596 1046 596 1046 682.5 1049.5 c 128,-1,11
 769 1053 769 1053 857 1061 c 1,12,13
 853 1028 853 1028 849.5 994.5 c 128,-1,14
 846 961 846 961 843 928 c 1,15,16
 669 918 669 918 496 916 c 1,17,18
 471 646 471 646 448 379.5 c 128,-1,19
 425 113 425 113 407 -157 c 1,20,21
 390 -156 390 -156 374 -156 c 128,-1,22
 358 -156 358 -156 341 -156 c 0,23,24
 318 -156 318 -156 296 -156.5 c 128,-1,25
 274 -157 274 -157 251 -157 c 1,26,27
 277 113 277 113 301.5 379.5 c 128,-1,28
 326 646 326 646 349 916 c 1,29,30
 262 916 262 916 176 919 c 128,-1,31
 90 922 90 922 4 929 c 1,32,33
 7 962 7 962 8.5 995.5 c 128,-1,34
 10 1029 10 1029 12 1062 c 1,35,36
 99 1053 99 1053 185 1049 c 128,-1,37
 271 1045 271 1045 359 1044 c 1,38,39
 367 1146 367 1146 375.5 1247 c 128,-1,40
 384 1348 384 1348 391 1450 c 1,0,1
EndSplineSet
Validated: 1
EndChar

StartChar: degree
Encoding: 176 176 131
Width: 965
Flags: W
LayerCount: 2
Fore
SplineSet
480 1441 m 0,0,1
 440 1441 440 1441 403 1427 c 128,-1,2
 366 1413 366 1413 337.5 1388 c 128,-1,3
 309 1363 309 1363 291.5 1328 c 128,-1,4
 274 1293 274 1293 274 1251 c 0,5,6
 274 1213 274 1213 288 1184 c 128,-1,7
 302 1155 302 1155 326 1134.5 c 128,-1,8
 350 1114 350 1114 381.5 1103 c 128,-1,9
 413 1092 413 1092 448 1091 c 1,10,11
 488 1091 488 1091 525 1105.5 c 128,-1,12
 562 1120 562 1120 590 1146 c 128,-1,13
 618 1172 618 1172 635 1207.5 c 128,-1,14
 652 1243 652 1243 652 1286 c 0,15,16
 652 1322 652 1322 638 1350.5 c 128,-1,17
 624 1379 624 1379 600 1399.5 c 128,-1,18
 576 1420 576 1420 545 1430.5 c 128,-1,19
 514 1441 514 1441 480 1441 c 0,0,1
485 1499 m 0,20,21
 542 1499 542 1499 590.5 1480 c 128,-1,22
 639 1461 639 1461 673.5 1426.5 c 128,-1,23
 708 1392 708 1392 727.5 1342.5 c 128,-1,24
 747 1293 747 1293 747 1233 c 0,25,26
 747 1200 747 1200 741 1166.5 c 128,-1,27
 735 1133 735 1133 723 1101 c 128,-1,28
 711 1069 711 1069 692.5 1040 c 128,-1,29
 674 1011 674 1011 649 987 c 0,30,31
 604 944 604 944 547 925.5 c 128,-1,32
 490 907 490 907 431 907 c 256,33,34
 372 907 372 907 317.5 924.5 c 128,-1,35
 263 942 263 942 226 986 c 0,36,37
 194 1023 194 1023 181 1068.5 c 128,-1,38
 168 1114 168 1114 168 1165 c 0,39,40
 168 1197 168 1197 173.5 1231 c 128,-1,41
 179 1265 179 1265 190.5 1298 c 128,-1,42
 202 1331 202 1331 220.5 1361 c 128,-1,43
 239 1391 239 1391 265 1415 c 1,44,45
 309 1460 309 1460 367 1479.5 c 128,-1,46
 425 1499 425 1499 485 1499 c 0,20,21
EndSplineSet
Validated: 1
EndChar

StartChar: cent
Encoding: 162 162 132
Width: 987
Flags: W
LayerCount: 2
Fore
SplineSet
480 215 m 1,0,1
 500 412 500 412 519.5 607 c 128,-1,2
 539 802 539 802 562 999 c 1,3,4
 499 996 499 996 448 972.5 c 128,-1,5
 397 949 397 949 357 911.5 c 128,-1,6
 317 874 317 874 287.5 825.5 c 128,-1,7
 258 777 258 777 239 723 c 128,-1,8
 220 669 220 669 210.5 613.5 c 128,-1,9
 201 558 201 558 201 507 c 0,10,11
 201 441 201 441 220.5 388.5 c 128,-1,12
 240 336 240 336 275.5 298 c 128,-1,13
 311 260 311 260 360 237 c 128,-1,14
 409 214 409 214 469 206 c 1,15,16
 472 208 472 208 474.5 210.5 c 128,-1,17
 477 213 477 213 480 215 c 1,0,1
914 1059 m 1,18,19
 910 1027 910 1027 905.5 997 c 128,-1,20
 901 967 901 967 897 935 c 1,21,22
 839 966 839 966 775 983.5 c 128,-1,23
 711 1001 711 1001 642 1003 c 1,24,25
 618 801 618 801 597 600.5 c 128,-1,26
 576 400 576 400 556 198 c 1,27,28
 694 204 694 204 825 262 c 1,29,30
 822 205 822 205 816 149 c 128,-1,31
 810 93 810 93 808 36 c 1,32,33
 741 13 741 13 673.5 3 c 128,-1,34
 606 -7 606 -7 537 -10 c 1,35,36
 532 -79 532 -79 525.5 -147 c 128,-1,37
 519 -215 519 -215 514 -284 c 1,38,39
 494 -282 494 -282 473 -281.5 c 128,-1,40
 452 -281 452 -281 432 -279 c 1,41,42
 439 -210 439 -210 445 -140.5 c 128,-1,43
 451 -71 451 -71 458 -2 c 1,44,45
 410 3 410 3 361 14 c 128,-1,46
 312 25 312 25 267.5 44.5 c 128,-1,47
 223 64 223 64 184 92 c 128,-1,48
 145 120 145 120 116 160 c 0,49,50
 70 223 70 223 52.5 300.5 c 128,-1,51
 35 378 35 378 35 459 c 0,52,53
 35 517 35 517 42 582.5 c 128,-1,54
 49 648 49 648 67.5 713.5 c 128,-1,55
 86 779 86 779 117.5 839.5 c 128,-1,56
 149 900 149 900 198 948 c 1,57,58
 235 987 235 987 280 1014.5 c 128,-1,59
 325 1042 325 1042 374 1060 c 128,-1,60
 423 1078 423 1078 474 1088 c 128,-1,61
 525 1098 525 1098 575 1103 c 1,62,63
 583 1172 583 1172 591 1241.5 c 128,-1,64
 599 1311 599 1311 607 1380 c 1,65,66
 628 1381 628 1381 648.5 1380.5 c 128,-1,67
 669 1380 669 1380 690 1381 c 1,68,69
 681 1311 681 1311 672.5 1242 c 128,-1,70
 664 1173 664 1173 656 1103 c 1,71,72
 725 1101 725 1101 791.5 1089 c 128,-1,73
 858 1077 858 1077 919 1051 c 1,74,75
 918 1053 918 1053 917 1055 c 128,-1,76
 916 1057 916 1057 914 1059 c 1,18,19
EndSplineSet
Validated: 5
EndChar

StartChar: sterling
Encoding: 163 163 133
Width: 1317
Flags: W
LayerCount: 2
Fore
SplineSet
1193 1442 m 1,0,1
 1185 1400 1185 1400 1176.5 1359 c 128,-1,2
 1168 1318 1168 1318 1161 1276 c 1,3,4
 1107 1302 1107 1302 1049 1319.5 c 128,-1,5
 991 1337 991 1337 928 1337 c 0,6,7
 899 1337 899 1337 867.5 1332 c 128,-1,8
 836 1327 836 1327 805.5 1317 c 128,-1,9
 775 1307 775 1307 747 1290.5 c 128,-1,10
 719 1274 719 1274 697 1252 c 1,11,12
 673 1222 673 1222 657.5 1188.5 c 128,-1,13
 642 1155 642 1155 633 1119 c 128,-1,14
 624 1083 624 1083 618.5 1046 c 128,-1,15
 613 1009 613 1009 609 974 c 1,16,17
 601 920 601 920 595.5 866.5 c 128,-1,18
 590 813 590 813 584 759 c 1,19,20
 676 757 676 757 767 755.5 c 128,-1,21
 858 754 858 754 950 753 c 1,22,23
 947 727 947 727 944.5 703 c 128,-1,24
 942 679 942 679 939 653 c 1,25,26
 847 655 847 655 756 656.5 c 128,-1,27
 665 658 665 658 573 660 c 1,28,29
 560 550 560 550 547.5 441 c 128,-1,30
 535 332 535 332 521 222 c 1,31,32
 657 221 657 221 791 215.5 c 128,-1,33
 925 210 925 210 1059 195 c 1,34,35
 1055 144 1055 144 1054 95 c 128,-1,36
 1053 46 1053 46 1051 -4 c 1,37,38
 915 13 915 13 779 21.5 c 128,-1,39
 643 30 643 30 503 30 c 0,40,41
 397 30 397 30 291.5 25 c 128,-1,42
 186 20 186 20 80 10 c 1,43,44
 91 61 91 61 100 111 c 128,-1,45
 109 161 109 161 118 212 c 1,46,47
 175 216 175 216 232 218 c 128,-1,48
 289 220 289 220 346 222 c 1,49,50
 362 333 362 333 376 442 c 128,-1,51
 390 551 390 551 403 662 c 1,52,53
 356 662 356 662 310 662.5 c 128,-1,54
 264 663 264 663 217 664 c 1,55,-1
 229 766 l 1,56,57
 275 764 275 764 321.5 763.5 c 128,-1,58
 368 763 368 763 415 762 c 1,59,60
 422 822 422 822 427.5 882 c 128,-1,61
 433 942 433 942 440 1002 c 0,62,63
 445 1048 445 1048 453.5 1095.5 c 128,-1,64
 462 1143 462 1143 477.5 1189 c 128,-1,65
 493 1235 493 1235 516.5 1277 c 128,-1,66
 540 1319 540 1319 576 1355 c 1,67,68
 612 1388 612 1388 656 1410.5 c 128,-1,69
 700 1433 700 1433 747.5 1447.5 c 128,-1,70
 795 1462 795 1462 843.5 1468 c 128,-1,71
 892 1474 892 1474 936 1474 c 0,72,73
 1004 1474 1004 1474 1069 1463 c 128,-1,74
 1134 1452 1134 1452 1197 1434 c 1,75,76
 1194 1438 1194 1438 1193 1442 c 1,0,1
EndSplineSet
Validated: 5
EndChar

StartChar: section
Encoding: 167 167 134
Width: 1116
Flags: W
LayerCount: 2
Fore
SplineSet
443 955 m 1,0,1
 417 937 417 937 392.5 916.5 c 128,-1,2
 368 896 368 896 348.5 871 c 128,-1,3
 329 846 329 846 317.5 818 c 128,-1,4
 306 790 306 790 306 757 c 0,5,6
 306 719 306 719 322.5 686 c 128,-1,7
 339 653 339 653 366.5 623.5 c 128,-1,8
 394 594 394 594 430 568 c 128,-1,9
 466 542 466 542 504.5 518.5 c 128,-1,10
 543 495 543 495 581 473 c 128,-1,11
 619 451 619 451 652 431 c 1,12,13
 676 447 676 447 701.5 468 c 128,-1,14
 727 489 727 489 748 513.5 c 128,-1,15
 769 538 769 538 782 566.5 c 128,-1,16
 795 595 795 595 795 626 c 0,17,18
 795 682 795 682 760.5 729.5 c 128,-1,19
 726 777 726 777 674.5 817 c 128,-1,20
 623 857 623 857 563 891 c 128,-1,21
 503 925 503 925 453 955 c 1,22,-1
 443 955 l 1,0,1
924 1448 m 1,23,24
 919 1411 919 1411 914.5 1374.5 c 128,-1,25
 910 1338 910 1338 904 1301 c 1,26,27
 837 1324 837 1324 770.5 1340 c 128,-1,28
 704 1356 704 1356 629 1356 c 0,29,30
 595 1356 595 1356 559 1347 c 128,-1,31
 523 1338 523 1338 493 1319.5 c 128,-1,32
 463 1301 463 1301 443 1272 c 128,-1,33
 423 1243 423 1243 423 1204 c 1,34,35
 428 1163 428 1163 452 1128 c 128,-1,36
 476 1093 476 1093 509 1064 c 128,-1,37
 542 1035 542 1035 578.5 1012.5 c 128,-1,38
 615 990 615 990 644 974 c 1,39,40
 689 945 689 945 739.5 914.5 c 128,-1,41
 790 884 790 884 832 846 c 128,-1,42
 874 808 874 808 901.5 760 c 128,-1,43
 929 712 929 712 929 650 c 0,44,45
 929 600 929 600 913.5 555.5 c 128,-1,46
 898 511 898 511 871 473 c 128,-1,47
 844 435 844 435 806.5 404.5 c 128,-1,48
 769 374 769 374 725 352 c 1,49,50
 769 311 769 311 800 257.5 c 128,-1,51
 831 204 831 204 831 141 c 0,52,53
 831 110 831 110 825.5 78.5 c 128,-1,54
 820 47 820 47 807.5 17.5 c 128,-1,55
 795 -12 795 -12 774.5 -37.5 c 128,-1,56
 754 -63 754 -63 725 -82 c 1,57,58
 695 -105 695 -105 660.5 -118.5 c 128,-1,59
 626 -132 626 -132 590 -140 c 128,-1,60
 554 -148 554 -148 517 -150.5 c 128,-1,61
 480 -153 480 -153 445 -153 c 0,62,63
 370 -153 370 -153 298 -143 c 128,-1,64
 226 -133 226 -133 154 -119 c 1,65,66
 160 -71 160 -71 166.5 -24.5 c 128,-1,67
 173 22 173 22 178 70 c 1,68,69
 243 47 243 47 309.5 31 c 128,-1,70
 376 15 376 15 447 15 c 0,71,72
 481 15 481 15 515.5 18 c 128,-1,73
 550 21 550 21 583 31 c 0,74,75
 629 44 629 44 652 77.5 c 128,-1,76
 675 111 675 111 675 147 c 1,77,78
 669 187 669 187 645 220 c 128,-1,79
 621 253 621 253 588.5 280.5 c 128,-1,80
 556 308 556 308 520 330 c 128,-1,81
 484 352 484 352 454 369 c 1,82,-1
 455 369 l 1,83,84
 408 397 408 397 357.5 427.5 c 128,-1,85
 307 458 307 458 265 495.5 c 128,-1,86
 223 533 223 533 196 581 c 128,-1,87
 169 629 169 629 169 694 c 0,88,89
 169 743 169 743 183.5 788 c 128,-1,90
 198 833 198 833 224.5 871.5 c 128,-1,91
 251 910 251 910 288.5 940.5 c 128,-1,92
 326 971 326 971 372 991 c 1,93,94
 324 1030 324 1030 294.5 1085.5 c 128,-1,95
 265 1141 265 1141 265 1205 c 0,96,97
 265 1234 265 1234 271 1263.5 c 128,-1,98
 277 1293 277 1293 290 1320 c 128,-1,99
 303 1347 303 1347 323 1370 c 128,-1,100
 343 1393 343 1393 370 1410 c 1,101,102
 401 1431 401 1431 434.5 1444 c 128,-1,103
 468 1457 468 1457 503.5 1464.5 c 128,-1,104
 539 1472 539 1472 574.5 1474.5 c 128,-1,105
 610 1477 610 1477 645 1477 c 0,106,107
 718 1477 718 1477 789 1467.5 c 128,-1,108
 860 1458 860 1458 929 1440 c 1,109,-1
 924 1447 l 1,110,-1
 924 1448 l 1,23,24
EndSplineSet
Validated: 5
EndChar

StartChar: bullet
Encoding: 8226 8226 135
Width: 926
Flags: W
LayerCount: 2
Fore
SplineSet
167 762 m 0,0,1
 172 816 172 816 192 868 c 128,-1,2
 212 920 212 920 254 959 c 0,3,4
 299 1001 299 1001 354 1018 c 128,-1,5
 409 1035 409 1035 466 1035 c 0,6,7
 518 1035 518 1035 562 1018 c 128,-1,8
 606 1001 606 1001 638 970 c 128,-1,9
 670 939 670 939 688 894.5 c 128,-1,10
 706 850 706 850 706 796 c 0,11,12
 706 734 706 734 685 671.5 c 128,-1,13
 664 609 664 609 616 562 c 0,14,15
 574 521 574 521 520 503.5 c 128,-1,16
 466 486 466 486 412 486 c 256,17,18
 358 486 358 486 313 502 c 128,-1,19
 268 518 268 518 235.5 549 c 128,-1,20
 203 580 203 580 184.5 625.5 c 128,-1,21
 166 671 166 671 166 731 c 0,22,23
 166 739 166 739 166 746.5 c 128,-1,24
 166 754 166 754 167 762 c 0,0,1
EndSplineSet
Validated: 1
EndChar

StartChar: paragraph
Encoding: 182 182 136
Width: 1419
Flags: W
LayerCount: 2
Fore
SplineSet
593 1450 m 0,0,1
 616 1449 616 1449 639.5 1449 c 128,-1,2
 663 1449 663 1449 686 1449 c 0,3,4
 853 1449 853 1449 1023 1461 c 1,5,6
 1022 1394 1022 1394 1021.5 1328 c 128,-1,7
 1021 1262 1021 1262 1021 1196 c 0,8,9
 1021 845 1021 845 1036.5 500.5 c 128,-1,10
 1052 156 1052 156 1097 -187 c 1,11,12
 1012 -176 1012 -176 928.5 -169 c 128,-1,13
 845 -162 845 -162 760 -160 c 1,14,15
 780 220 780 220 815 596.5 c 128,-1,16
 850 973 850 973 898 1353 c 1,17,18
 846 1351 846 1351 795 1350 c 128,-1,19
 744 1349 744 1349 692 1349 c 1,20,21
 657 970 657 970 623.5 596.5 c 128,-1,22
 590 223 590 223 560 -156 c 1,23,24
 484 -156 484 -156 408.5 -157.5 c 128,-1,25
 333 -159 333 -159 256 -164 c 1,26,27
 302 41 302 41 339.5 245 c 128,-1,28
 377 449 377 449 412 656 c 1,29,30
 350 667 350 667 300 701 c 128,-1,31
 250 735 250 735 210 780 c 0,32,33
 162 833 162 833 141.5 900 c 128,-1,34
 121 967 121 967 121 1039 c 0,35,36
 121 1082 121 1082 127.5 1126 c 128,-1,37
 134 1170 134 1170 149 1211 c 128,-1,38
 164 1252 164 1252 189.5 1289 c 128,-1,39
 215 1326 215 1326 253 1355 c 0,40,41
 328 1412 328 1412 416.5 1431.5 c 128,-1,42
 505 1451 505 1451 593 1450 c 0,0,1
EndSplineSet
Validated: 33
EndChar

StartChar: germandbls
Encoding: 223 223 137
Width: 1421
Flags: W
LayerCount: 2
Fore
SplineSet
389 1131 m 1,0,1
 391 1170 391 1170 398.5 1210.5 c 128,-1,2
 406 1251 406 1251 420.5 1289 c 128,-1,3
 435 1327 435 1327 458 1361 c 128,-1,4
 481 1395 481 1395 514 1422 c 0,5,6
 551 1452 551 1452 592.5 1470 c 128,-1,7
 634 1488 634 1488 677.5 1498 c 128,-1,8
 721 1508 721 1508 766 1511.5 c 128,-1,9
 811 1515 811 1515 855 1515 c 0,10,11
 933 1515 933 1515 1007 1495 c 128,-1,12
 1081 1475 1081 1475 1137 1422 c 1,13,14
 1182 1364 1182 1364 1198.5 1301 c 128,-1,15
 1215 1238 1215 1238 1215 1173 c 0,16,17
 1215 1155 1215 1155 1214 1137.5 c 128,-1,18
 1213 1120 1213 1120 1211 1102 c 1,19,20
 1162 1098 1162 1098 1105.5 1083 c 128,-1,21
 1049 1068 1049 1068 1000.5 1039 c 128,-1,22
 952 1010 952 1010 919.5 966 c 128,-1,23
 887 922 887 922 887 859 c 0,24,25
 887 823 887 823 903 795 c 128,-1,26
 919 767 919 767 943 744.5 c 128,-1,27
 967 722 967 722 994 703.5 c 128,-1,28
 1021 685 1021 685 1043 669 c 0,29,30
 1083 639 1083 639 1122 608 c 128,-1,31
 1161 577 1161 577 1192 539.5 c 128,-1,32
 1223 502 1223 502 1242.5 455.5 c 128,-1,33
 1262 409 1262 409 1262 348 c 0,34,35
 1262 309 1262 309 1255.5 268.5 c 128,-1,36
 1249 228 1249 228 1234 190.5 c 128,-1,37
 1219 153 1219 153 1193.5 121 c 128,-1,38
 1168 89 1168 89 1129 68 c 0,39,40
 1090 48 1090 48 1052 36.5 c 128,-1,41
 1014 25 1014 25 977.5 19 c 128,-1,42
 941 13 941 13 905 11 c 128,-1,43
 869 9 869 9 834 9 c 1,44,45
 767 11 767 11 702.5 22 c 128,-1,46
 638 33 638 33 575 50 c 1,47,48
 580 104 580 104 586.5 158.5 c 128,-1,49
 593 213 593 213 598 267 c 1,50,51
 664 243 664 243 734.5 229.5 c 128,-1,52
 805 216 805 216 878 216 c 0,53,54
 910 216 910 216 949 220.5 c 128,-1,55
 988 225 988 225 1022.5 238.5 c 128,-1,56
 1057 252 1057 252 1080 277.5 c 128,-1,57
 1103 303 1103 303 1103 345 c 0,58,59
 1103 379 1103 379 1090 407 c 128,-1,60
 1077 435 1077 435 1056.5 458 c 128,-1,61
 1036 481 1036 481 1010.5 500.5 c 128,-1,62
 985 520 985 520 960 537 c 1,63,-1
 961 536 l 1,64,65
 944 550 944 550 926.5 563 c 128,-1,66
 909 576 909 576 890 589 c 1,67,68
 872 616 872 616 854 643 c 128,-1,69
 836 670 836 670 821.5 698.5 c 128,-1,70
 807 727 807 727 798.5 758 c 128,-1,71
 790 789 790 789 790 824 c 0,72,73
 790 884 790 884 807.5 944 c 128,-1,74
 825 1004 825 1004 866 1053 c 1,75,76
 892 1081 892 1081 924 1100 c 128,-1,77
 956 1119 956 1119 991.5 1131.5 c 128,-1,78
 1027 1144 1027 1144 1063.5 1152 c 128,-1,79
 1100 1160 1100 1160 1135 1168 c 1,80,81
 1125 1198 1125 1198 1114 1229 c 128,-1,82
 1103 1260 1103 1260 1089 1289 c 128,-1,83
 1075 1318 1075 1318 1056.5 1344 c 128,-1,84
 1038 1370 1038 1370 1013 1391 c 1,85,86
 974 1412 974 1412 927.5 1418.5 c 128,-1,87
 881 1425 881 1425 836 1425 c 0,88,89
 782 1425 782 1425 727 1411.5 c 128,-1,90
 672 1398 672 1398 629 1357 c 1,91,92
 582 1309 582 1309 560.5 1246.5 c 128,-1,93
 539 1184 539 1184 528 1122 c 1,94,95
 522 848 522 848 507 577 c 128,-1,96
 492 306 492 306 469 31 c 1,97,98
 340 25 340 25 213 10 c 1,99,100
 276 291 276 291 318 569.5 c 128,-1,101
 360 848 360 848 389 1131 c 1,0,1
EndSplineSet
Validated: 1
EndChar

StartChar: registered
Encoding: 174 174 138
Width: 1808
Flags: W
LayerCount: 2
Fore
SplineSet
908 1365 m 0,0,1
 786 1365 786 1365 667 1326 c 128,-1,2
 548 1287 548 1287 452 1201 c 1,3,4
 399 1156 399 1156 360 1101.5 c 128,-1,5
 321 1047 321 1047 295 986.5 c 128,-1,6
 269 926 269 926 256.5 861.5 c 128,-1,7
 244 797 244 797 244 733 c 0,8,9
 244 611 244 611 289.5 514.5 c 128,-1,10
 335 418 335 418 412.5 350.5 c 128,-1,11
 490 283 490 283 593 247 c 128,-1,12
 696 211 696 211 810 211 c 0,13,14
 930 211 930 211 1047 252 c 128,-1,15
 1164 293 1164 293 1258 377 c 1,16,17
 1358 472 1358 472 1413 596.5 c 128,-1,18
 1468 721 1468 721 1468 854 c 0,19,20
 1468 953 1468 953 1436 1044 c 128,-1,21
 1404 1135 1404 1135 1337 1202 c 1,22,23
 1296 1245 1296 1245 1246.5 1276 c 128,-1,24
 1197 1307 1197 1307 1142 1326.5 c 128,-1,25
 1087 1346 1087 1346 1028 1355.5 c 128,-1,26
 969 1365 969 1365 908 1365 c 0,0,1
916 1446 m 0,27,28
 985 1446 985 1446 1052.5 1434.5 c 128,-1,29
 1120 1423 1120 1423 1182 1398.5 c 128,-1,30
 1244 1374 1244 1374 1299 1336.5 c 128,-1,31
 1354 1299 1354 1299 1398 1247 c 1,32,33
 1473 1162 1473 1162 1507 1053 c 128,-1,34
 1541 944 1541 944 1541 826 c 0,35,36
 1541 748 1541 748 1527.5 667.5 c 128,-1,37
 1514 587 1514 587 1485.5 511 c 128,-1,38
 1457 435 1457 435 1413 365 c 128,-1,39
 1369 295 1369 295 1307 238 c 1,40,41
 1253 185 1253 185 1190.5 147 c 128,-1,42
 1128 109 1128 109 1060.5 85 c 128,-1,43
 993 61 993 61 922.5 49.5 c 128,-1,44
 852 38 852 38 781 38 c 0,45,46
 713 38 713 38 646.5 50 c 128,-1,47
 580 62 580 62 519.5 87 c 128,-1,48
 459 112 459 112 405 149 c 128,-1,49
 351 186 351 186 308 236 c 0,50,51
 233 322 233 322 198.5 431.5 c 128,-1,52
 164 541 164 541 164 659 c 0,53,54
 164 737 164 737 177 816.5 c 128,-1,55
 190 896 190 896 218 972.5 c 128,-1,56
 246 1049 246 1049 290 1119 c 128,-1,57
 334 1189 334 1189 397 1246 c 1,58,59
 449 1298 449 1298 510.5 1335.5 c 128,-1,60
 572 1373 572 1373 639 1397.5 c 128,-1,61
 706 1422 706 1422 776 1434 c 128,-1,62
 846 1446 846 1446 916 1446 c 0,27,28
907 1114 m 1,63,64
 875 1114 875 1114 844 1113.5 c 128,-1,65
 813 1113 813 1113 781 1113 c 1,66,67
 776 1042 776 1042 769.5 972 c 128,-1,68
 763 902 763 902 757 830 c 1,69,-1
 799 830 l 1,70,-1
 882 830 l 2,71,72
 920 830 920 830 959.5 835 c 128,-1,73
 999 840 999 840 1034 863 c 0,74,75
 1050 873 1050 873 1061.5 889 c 128,-1,76
 1073 905 1073 905 1079.5 923 c 128,-1,77
 1086 941 1086 941 1089 959.5 c 128,-1,78
 1092 978 1092 978 1092 995 c 0,79,80
 1092 1039 1092 1039 1072 1063 c 128,-1,81
 1052 1087 1052 1087 1023.5 1098 c 128,-1,82
 995 1109 995 1109 963 1111 c 128,-1,83
 931 1113 931 1113 907 1114 c 1,63,64
870 1145 m 1,84,85
 928 1144 928 1144 985 1137 c 128,-1,86
 1042 1130 1042 1130 1093 1102 c 1,87,88
 1135 1075 1135 1075 1153.5 1035.5 c 128,-1,89
 1172 996 1172 996 1172 954 c 0,90,91
 1172 909 1172 909 1156 870.5 c 128,-1,92
 1140 832 1140 832 1112 802 c 128,-1,93
 1084 772 1084 772 1046.5 752.5 c 128,-1,94
 1009 733 1009 733 966 728 c 1,95,-1
 964 713 l 1,96,97
 985 701 985 701 1001.5 683.5 c 128,-1,98
 1018 666 1018 666 1031.5 646 c 128,-1,99
 1045 626 1045 626 1056.5 604.5 c 128,-1,100
 1068 583 1068 583 1080 562 c 1,101,-1
 1079 562 l 1,102,103
 1105 511 1105 511 1132 461 c 128,-1,104
 1159 411 1159 411 1186 360 c 1,105,106
 1151 361 1151 361 1115 361.5 c 128,-1,107
 1079 362 1079 362 1044 363 c 1,108,109
 1017 412 1017 412 992 460.5 c 128,-1,110
 967 509 967 509 940 559 c 1,111,-1
 941 559 l 1,112,113
 929 580 929 580 915.5 604 c 128,-1,114
 902 628 902 628 886 649 c 128,-1,115
 870 670 870 670 851 685.5 c 128,-1,116
 832 701 832 701 808 705 c 1,117,118
 792 705 792 705 777 705 c 128,-1,119
 762 705 762 705 746 704 c 1,120,121
 738 618 738 618 730.5 533.5 c 128,-1,122
 723 449 723 449 715 363 c 1,123,-1
 690 363 l 2,124,125
 652 363 652 363 614 362 c 128,-1,126
 576 361 576 361 538 361 c 1,127,128
 560 559 560 559 577 754.5 c 128,-1,129
 594 950 594 950 606 1148 c 1,130,131
 738 1145 738 1145 870 1145 c 1,84,85
EndSplineSet
Validated: 1
EndChar

StartChar: copyright
Encoding: 169 169 139
Width: 1808
Flags: W
LayerCount: 2
Fore
SplineSet
916 1446 m 0,0,1
 985 1446 985 1446 1052.5 1434.5 c 128,-1,2
 1120 1423 1120 1423 1182 1398.5 c 128,-1,3
 1244 1374 1244 1374 1299 1336.5 c 128,-1,4
 1354 1299 1354 1299 1398 1247 c 1,5,6
 1473 1162 1473 1162 1507 1053 c 128,-1,7
 1541 944 1541 944 1541 826 c 0,8,9
 1541 748 1541 748 1527.5 667.5 c 128,-1,10
 1514 587 1514 587 1485.5 511 c 128,-1,11
 1457 435 1457 435 1413 365 c 128,-1,12
 1369 295 1369 295 1307 238 c 1,13,14
 1253 185 1253 185 1190.5 147 c 128,-1,15
 1128 109 1128 109 1060.5 85 c 128,-1,16
 993 61 993 61 922.5 49.5 c 128,-1,17
 852 38 852 38 781 38 c 0,18,19
 713 38 713 38 646.5 50 c 128,-1,20
 580 62 580 62 519.5 87 c 128,-1,21
 459 112 459 112 405 149 c 128,-1,22
 351 186 351 186 308 236 c 0,23,24
 233 322 233 322 198.5 431.5 c 128,-1,25
 164 541 164 541 164 659 c 0,26,27
 164 737 164 737 177 816.5 c 128,-1,28
 190 896 190 896 218 972.5 c 128,-1,29
 246 1049 246 1049 290 1119 c 128,-1,30
 334 1189 334 1189 397 1246 c 1,31,32
 449 1298 449 1298 510.5 1335.5 c 128,-1,33
 572 1373 572 1373 639 1397.5 c 128,-1,34
 706 1422 706 1422 776 1434 c 128,-1,35
 846 1446 846 1446 916 1446 c 0,0,1
908 1365 m 0,36,37
 846 1365 846 1365 784.5 1354 c 128,-1,38
 723 1343 723 1343 664.5 1321 c 128,-1,39
 606 1299 606 1299 552 1265.5 c 128,-1,40
 498 1232 498 1232 451 1187 c 1,41,42
 397 1138 397 1138 357.5 1078 c 128,-1,43
 318 1018 318 1018 291.5 952 c 128,-1,44
 265 886 265 886 252 816.5 c 128,-1,45
 239 747 239 747 239 679 c 0,46,47
 239 578 239 578 273 484.5 c 128,-1,48
 307 391 307 391 378 323 c 1,49,50
 469 257 469 257 579 226 c 128,-1,51
 689 195 689 195 805 195 c 0,52,53
 922 195 922 195 1037 226.5 c 128,-1,54
 1152 258 1152 258 1255 324 c 1,55,56
 1313 367 1313 367 1353 425 c 128,-1,57
 1393 483 1393 483 1418 548 c 128,-1,58
 1443 613 1443 613 1453.5 682 c 128,-1,59
 1464 751 1464 751 1464 816 c 0,60,61
 1464 919 1464 919 1432.5 1016 c 128,-1,62
 1401 1113 1401 1113 1334 1188 c 1,63,64
 1295 1234 1295 1234 1246.5 1267 c 128,-1,65
 1198 1300 1198 1300 1143.5 1322 c 128,-1,66
 1089 1344 1089 1344 1029 1354.5 c 128,-1,67
 969 1365 969 1365 908 1365 c 0,36,37
1163 1122 m 1,68,69
 1157 1080 1157 1080 1154 1042 c 1,70,71
 1099 1068 1099 1068 1038.5 1082 c 128,-1,72
 978 1096 978 1096 915 1096 c 0,73,74
 850 1096 850 1096 788.5 1071 c 128,-1,75
 727 1046 727 1046 682 995 c 0,76,77
 632 938 632 938 606 864.5 c 128,-1,78
 580 791 580 791 580 720 c 0,79,80
 580 658 580 658 605.5 611 c 128,-1,81
 631 564 631 564 672.5 532.5 c 128,-1,82
 714 501 714 501 767.5 485 c 128,-1,83
 821 469 821 469 878 469 c 256,84,85
 935 469 935 469 992.5 484 c 128,-1,86
 1050 499 1050 499 1105 524 c 1,87,88
 1103 484 1103 484 1099.5 444.5 c 128,-1,89
 1096 405 1096 405 1094 365 c 1,90,91
 1031 339 1031 339 965 328 c 128,-1,92
 899 317 899 317 833 317 c 0,93,94
 791 317 791 317 749 323 c 128,-1,95
 707 329 707 329 668 342 c 128,-1,96
 629 355 629 355 594 376 c 128,-1,97
 559 397 559 397 531 428 c 0,98,99
 484 479 484 479 463.5 545.5 c 128,-1,100
 443 612 443 612 443 683 c 0,101,102
 443 731 443 731 450.5 781 c 128,-1,103
 458 831 458 831 474.5 879.5 c 128,-1,104
 491 928 491 928 518.5 972 c 128,-1,105
 546 1016 546 1016 585 1051 c 0,106,107
 621 1083 621 1083 661.5 1104.5 c 128,-1,108
 702 1126 702 1126 745 1139 c 128,-1,109
 788 1152 788 1152 832.5 1157.5 c 128,-1,110
 877 1163 877 1163 921 1163 c 0,111,112
 985 1163 985 1163 1047 1150 c 128,-1,113
 1109 1137 1109 1137 1167 1114 c 1,114,-1
 1163 1122 l 1,68,69
EndSplineSet
Validated: 5
EndChar

StartChar: trademark
Encoding: 8482 8482 140
Width: 1804
Flags: W
LayerCount: 2
Fore
SplineSet
996 1472 m 1,0,1
 1025 1390 1025 1390 1053.5 1308.5 c 128,-1,2
 1082 1227 1082 1227 1117 1147 c 1,3,4
 1168 1235 1168 1235 1224 1318 c 128,-1,5
 1280 1401 1280 1401 1347 1478 c 1,6,7
 1385 1478 1385 1478 1424 1479.5 c 128,-1,8
 1463 1481 1463 1481 1501 1482 c 1,9,10
 1441 1321 1441 1321 1441 1152 c 0,11,12
 1441 1033 1441 1033 1472 925 c 1,13,14
 1434 927 1434 927 1396.5 927.5 c 128,-1,15
 1359 928 1359 928 1321 930 c 1,16,17
 1317 959 1317 959 1315.5 988 c 128,-1,18
 1314 1017 1314 1017 1314 1046 c 0,19,20
 1314 1135 1314 1135 1329 1223 c 128,-1,21
 1344 1311 1344 1311 1372 1397 c 1,22,23
 1367 1399 1367 1399 1363.5 1399.5 c 128,-1,24
 1360 1400 1360 1400 1355 1402 c 1,25,26
 1290 1303 1290 1303 1241 1197.5 c 128,-1,27
 1192 1092 1192 1092 1154 983 c 1,28,-1
 1127 983 l 1,29,-1
 1074 983 l 1,30,31
 1030 1083 1030 1083 997 1187 c 128,-1,32
 964 1291 964 1291 932 1397 c 1,33,34
 921 1393 921 1393 913 1392 c 1,35,36
 909 1308 909 1308 906.5 1225 c 128,-1,37
 904 1142 904 1142 904 1059 c 0,38,39
 904 1028 904 1028 904 997.5 c 128,-1,40
 904 967 904 967 906 936 c 1,41,-1
 754 936 l 1,42,43
 777 1071 777 1071 797.5 1204 c 128,-1,44
 818 1337 818 1337 838 1472 c 1,45,-1
 996 1472 l 1,0,1
696 1472 m 1,46,47
 696 1454 696 1454 695.5 1436 c 128,-1,48
 695 1418 695 1418 695 1400 c 1,49,50
 645 1401 645 1401 595.5 1400.5 c 128,-1,51
 546 1400 546 1400 496 1402 c 1,52,53
 499 1364 499 1364 501 1326.5 c 128,-1,54
 503 1289 503 1289 503 1251 c 0,55,56
 503 1093 503 1093 474 933 c 1,57,58
 436 932 436 932 398 931.5 c 128,-1,59
 360 931 360 931 322 930 c 1,60,61
 367 1045 367 1045 386 1164.5 c 128,-1,62
 405 1284 405 1284 407 1404 c 1,63,64
 358 1404 358 1404 310 1405 c 128,-1,65
 262 1406 262 1406 213 1408 c 1,66,67
 209 1427 209 1427 206 1445.5 c 128,-1,68
 203 1464 203 1464 199 1483 c 1,69,70
 324 1478 324 1478 447.5 1476 c 128,-1,71
 571 1474 571 1474 696 1472 c 1,46,47
EndSplineSet
Validated: 33
EndChar

StartChar: acute
Encoding: 180 180 141
Width: 575
Flags: W
LayerCount: 2
Fore
SplineSet
362 1620 m 1,0,1
 410 1621 410 1621 458.5 1622.5 c 128,-1,2
 507 1624 507 1624 556 1628 c 1,3,4
 506 1581 506 1581 459 1532 c 128,-1,5
 412 1483 412 1483 365.5 1433 c 128,-1,6
 319 1383 319 1383 272 1333 c 128,-1,7
 225 1283 225 1283 176 1236 c 1,8,9
 102 1234 102 1234 31 1230 c 1,10,11
 119 1324 119 1324 198 1423.5 c 128,-1,12
 277 1523 277 1523 362 1620 c 1,0,1
EndSplineSet
Validated: 1
EndChar

StartChar: dieresis
Encoding: 168 168 142
Width: 1186
Flags: W
LayerCount: 2
Fore
SplineSet
711 1554 m 1,0,1
 762 1556 762 1556 811 1556 c 128,-1,2
 860 1556 860 1556 910 1558 c 1,3,4
 879 1499 879 1499 879 1435 c 0,5,6
 879 1395 879 1395 892 1360 c 1,7,8
 843 1362 843 1362 794 1362 c 128,-1,9
 745 1362 745 1362 695 1364 c 1,10,11
 693 1375 693 1375 693 1387 c 128,-1,12
 693 1399 693 1399 693 1410 c 0,13,14
 693 1446 693 1446 698 1482 c 128,-1,15
 703 1518 703 1518 711 1554 c 1,0,1
292 1558 m 1,16,17
 342 1556 342 1556 390.5 1555.5 c 128,-1,18
 439 1555 439 1555 488 1554 c 1,19,20
 489 1544 489 1544 489 1534.5 c 128,-1,21
 489 1525 489 1525 489 1515 c 0,22,23
 489 1477 489 1477 485 1439.5 c 128,-1,24
 481 1402 481 1402 473 1364 c 1,25,26
 423 1363 423 1363 374 1362.5 c 128,-1,27
 325 1362 325 1362 274 1360 c 1,28,29
 289 1389 289 1389 296 1419.5 c 128,-1,30
 303 1450 303 1450 303 1482 c 0,31,32
 303 1502 303 1502 300.5 1521 c 128,-1,33
 298 1540 298 1540 292 1558 c 1,16,17
EndSplineSet
Validated: 1
EndChar

StartChar: notequal
Encoding: 8800 8800 143
Width: 1325
Flags: W
LayerCount: 2
Fore
SplineSet
72 919 m 1,0,1
 213 912 213 912 352.5 909.5 c 128,-1,2
 492 907 492 907 635 907 c 0,3,4
 676 907 676 907 716 907.5 c 128,-1,5
 756 908 756 908 798 908 c 1,6,7
 869 987 869 987 941 1063 c 128,-1,8
 1013 1139 1013 1139 1086 1216 c 1,9,10
 1110 1196 1110 1196 1132.5 1175 c 128,-1,11
 1155 1154 1155 1154 1179 1134 c 1,12,13
 1125 1078 1125 1078 1074 1022.5 c 128,-1,14
 1023 967 1023 967 970 910 c 1,15,16
 1045 912 1045 912 1119.5 914 c 128,-1,17
 1194 916 1194 916 1269 919 c 1,18,19
 1264 882 1264 882 1259 845.5 c 128,-1,20
 1254 809 1254 809 1250 772 c 1,21,22
 1046 767 1046 767 842 766 c 1,23,24
 785 703 785 703 730.5 641.5 c 128,-1,25
 676 580 676 580 621 517 c 1,26,27
 773 517 773 517 923.5 516 c 128,-1,28
 1074 515 1074 515 1226 513 c 1,29,30
 1224 475 1224 475 1222.5 438 c 128,-1,31
 1221 401 1221 401 1220 363 c 1,32,33
 1081 368 1081 368 944 370 c 128,-1,34
 807 372 807 372 667 372 c 2,35,-1
 491 372 l 1,36,37
 420 294 420 294 348.5 218 c 128,-1,38
 277 142 277 142 203 67 c 1,39,40
 180 87 180 87 156.5 107.5 c 128,-1,41
 133 128 133 128 111 151 c 1,42,43
 213 259 213 259 316 371 c 1,44,45
 243 369 243 369 170 367 c 128,-1,46
 97 365 97 365 23 363 c 1,47,48
 29 401 29 401 34 437.5 c 128,-1,49
 39 474 39 474 42 512 c 1,50,51
 144 514 144 514 245 514.5 c 128,-1,52
 346 515 346 515 448 516 c 1,53,54
 503 579 503 579 559 641 c 128,-1,55
 615 703 615 703 670 766 c 1,56,57
 518 766 518 766 367.5 766.5 c 128,-1,58
 217 767 217 767 65 772 c 1,59,60
 67 809 67 809 68.5 845.5 c 128,-1,61
 70 882 70 882 72 919 c 1,0,1
EndSplineSet
Validated: 1
EndChar

StartChar: AE
Encoding: 198 198 144
Width: 2173
Flags: W
LayerCount: 2
Fore
SplineSet
2044 1483 m 1,0,1
 2034 1445 2034 1445 2025 1407 c 128,-1,2
 2016 1369 2016 1369 2008 1331 c 1,3,4
 1825 1321 1825 1321 1645.5 1316 c 128,-1,5
 1466 1311 1466 1311 1284 1309 c 1,6,7
 1266 1157 1266 1157 1252 1005.5 c 128,-1,8
 1238 854 1238 854 1224 702 c 1,9,-1
 1667 702 l 1,10,-1
 1889 702 l 1,11,12
 1887 664 1887 664 1884 627.5 c 128,-1,13
 1881 591 1881 591 1879 553 c 1,14,15
 1711 556 1711 556 1545 557 c 128,-1,16
 1379 558 1379 558 1211 558 c 1,17,18
 1205 486 1205 486 1200 414 c 128,-1,19
 1195 342 1195 342 1189 269 c 1,20,21
 1553 268 1553 268 1918 251 c 1,22,23
 1920 190 1920 190 1923.5 130 c 128,-1,24
 1927 70 1927 70 1934 10 c 1,25,26
 1699 26 1699 26 1465.5 32 c 128,-1,27
 1232 38 1232 38 994 38 c 1,28,29
 999 102 999 102 1004.5 165 c 128,-1,30
 1010 228 1010 228 1015 292 c 1,31,32
 882 292 882 292 751 290 c 128,-1,33
 620 288 620 288 486 285 c 1,34,35
 478 220 478 220 470.5 156.5 c 128,-1,36
 463 93 463 93 452 28 c 1,37,38
 277 22 277 22 102 10 c 1,39,40
 213 182 213 182 310.5 360.5 c 128,-1,41
 408 539 408 539 498 721.5 c 128,-1,42
 588 904 588 904 673 1088.5 c 128,-1,43
 758 1273 758 1273 844 1456 c 1,44,45
 916 1454 916 1454 988 1454 c 128,-1,46
 1060 1454 1060 1454 1133 1454 c 0,47,48
 1362 1454 1362 1454 1588.5 1460.5 c 128,-1,49
 1815 1467 1815 1467 2044 1483 c 1,0,1
963 1321 m 1,50,51
 865 1097 865 1097 770 874 c 128,-1,52
 675 651 675 651 568 430 c 1,53,54
 683 432 683 432 798 433 c 128,-1,55
 913 434 913 434 1028 434 c 1,56,57
 1048 657 1048 657 1067 877 c 128,-1,58
 1086 1097 1086 1097 1105 1320 c 1,59,60
 1070 1320 1070 1320 1034 1320 c 128,-1,61
 998 1320 998 1320 963 1321 c 1,50,51
EndSplineSet
Validated: 1
EndChar

StartChar: Oslash
Encoding: 216 216 145
Width: 1769
Flags: W
LayerCount: 2
Fore
SplineSet
1330 1107 m 1,0,1
 1151 916 1151 916 976.5 725.5 c 128,-1,2
 802 535 802 535 622 345 c 1,3,4
 649 325 649 325 679.5 310 c 128,-1,5
 710 295 710 295 746 293 c 0,6,7
 822 290 822 290 898 290 c 1,8,9
 940 296 940 296 983.5 305 c 128,-1,10
 1027 314 1027 314 1068 329.5 c 128,-1,11
 1109 345 1109 345 1148 367 c 128,-1,12
 1187 389 1187 389 1220 420 c 1,13,14
 1258 460 1258 460 1284.5 506 c 128,-1,15
 1311 552 1311 552 1330 601 c 128,-1,16
 1349 650 1349 650 1363 701 c 128,-1,17
 1377 752 1377 752 1389 802 c 1,18,19
 1391 825 1391 825 1392.5 847 c 128,-1,20
 1394 869 1394 869 1394 891 c 0,21,22
 1394 950 1394 950 1381 1002 c 128,-1,23
 1368 1054 1368 1054 1346 1106 c 1,24,25
 1342 1106 1342 1106 1338 1106 c 128,-1,26
 1334 1106 1334 1106 1330 1107 c 1,0,1
1283 1207 m 1,27,28
 1260 1247 1260 1247 1229 1282.5 c 128,-1,29
 1198 1318 1198 1318 1154 1337 c 0,30,31
 1107 1357 1107 1357 1049.5 1367.5 c 128,-1,32
 992 1378 992 1378 940 1378 c 0,33,34
 892 1378 892 1378 844 1368 c 128,-1,35
 796 1358 796 1358 751 1338.5 c 128,-1,36
 706 1319 706 1319 666 1290 c 128,-1,37
 626 1261 626 1261 594 1222 c 0,38,39
 552 1171 552 1171 522.5 1110.5 c 128,-1,40
 493 1050 493 1050 474.5 985.5 c 128,-1,41
 456 921 456 921 447.5 855.5 c 128,-1,42
 439 790 439 790 439 730 c 0,43,44
 439 645 439 645 472.5 569 c 128,-1,45
 506 493 506 493 556 430 c 1,46,47
 739 625 739 625 919 819 c 128,-1,48
 1099 1013 1099 1013 1283 1207 c 1,27,28
377 228 m 1,49,50
 323 316 323 316 302.5 416.5 c 128,-1,51
 282 517 282 517 282 622 c 0,52,53
 282 702 282 702 291 791 c 128,-1,54
 300 880 300 880 323.5 968 c 128,-1,55
 347 1056 347 1056 388 1138.5 c 128,-1,56
 429 1221 429 1221 492 1288 c 0,57,58
 541 1341 541 1341 600 1377.5 c 128,-1,59
 659 1414 659 1414 724 1436.5 c 128,-1,60
 789 1459 789 1459 857 1469 c 128,-1,61
 925 1479 925 1479 992 1479 c 0,62,63
 1049 1479 1049 1479 1106 1471.5 c 128,-1,64
 1163 1464 1163 1464 1216 1447 c 128,-1,65
 1269 1430 1269 1430 1317.5 1403 c 128,-1,66
 1366 1376 1366 1376 1406 1337 c 1,67,68
 1454 1388 1454 1388 1502.5 1438 c 128,-1,69
 1551 1488 1551 1488 1600 1538 c 1,70,71
 1619 1521 1619 1521 1636 1503 c 128,-1,72
 1653 1485 1653 1485 1671 1468 c 1,73,74
 1621 1416 1621 1416 1571.5 1365 c 128,-1,75
 1522 1314 1522 1314 1472 1262 c 1,76,77
 1527 1173 1527 1173 1548.5 1070 c 128,-1,78
 1570 967 1570 967 1570 859 c 0,79,80
 1570 777 1570 777 1559 689.5 c 128,-1,81
 1548 602 1548 602 1523.5 516 c 128,-1,82
 1499 430 1499 430 1458 349 c 128,-1,83
 1417 268 1417 268 1357 200 c 1,84,85
 1307 147 1307 147 1247 110.5 c 128,-1,86
 1187 74 1187 74 1122 51.5 c 128,-1,87
 1057 29 1057 29 988 19.5 c 128,-1,88
 919 10 919 10 852 10 c 0,89,90
 739 10 739 10 632.5 43 c 128,-1,91
 526 76 526 76 444 149 c 1,92,93
 395 100 395 100 348.5 50 c 128,-1,94
 302 0 302 0 253 -49 c 1,95,96
 235 -32 235 -32 217 -14.5 c 128,-1,97
 199 3 199 3 182 21 c 1,98,99
 230 74 230 74 279.5 124.5 c 128,-1,100
 329 175 329 175 377 228 c 1,49,50
EndSplineSet
Validated: 1
EndChar

StartChar: infinity
Encoding: 8734 8734 146
Width: 1704
Flags: W
LayerCount: 2
Fore
SplineSet
857 643 m 1,0,1
 889 564 889 564 953.5 515 c 128,-1,2
 1018 466 1018 466 1109 466 c 0,3,4
 1168 466 1168 466 1213 492.5 c 128,-1,5
 1258 519 1258 519 1288 561 c 128,-1,6
 1318 603 1318 603 1333.5 655.5 c 128,-1,7
 1349 708 1349 708 1349 761 c 0,8,9
 1349 801 1349 801 1338.5 835 c 128,-1,10
 1328 869 1328 869 1307.5 894 c 128,-1,11
 1287 919 1287 919 1257.5 933 c 128,-1,12
 1228 947 1228 947 1189 947 c 0,13,14
 1129 947 1129 947 1080.5 919.5 c 128,-1,15
 1032 892 1032 892 991.5 849.5 c 128,-1,16
 951 807 951 807 918.5 754.5 c 128,-1,17
 886 702 886 702 858 652 c 1,18,-1
 857 643 l 1,0,1
759 650 m 1,19,20
 739 696 739 696 714 737.5 c 128,-1,21
 689 779 689 779 661 821 c 0,22,23
 632 863 632 863 591 887.5 c 128,-1,24
 550 912 550 912 494 912 c 0,25,26
 441 912 441 912 400 889.5 c 128,-1,27
 359 867 359 867 331.5 831 c 128,-1,28
 304 795 304 795 290 748.5 c 128,-1,29
 276 702 276 702 276 654 c 0,30,31
 276 613 276 613 286 573.5 c 128,-1,32
 296 534 296 534 317 503 c 128,-1,33
 338 472 338 472 370 453 c 128,-1,34
 402 434 402 434 446 434 c 0,35,36
 485 434 485 434 524 439.5 c 128,-1,37
 563 445 563 445 603 459 c 1,38,39
 631 472 631 472 653.5 492 c 128,-1,40
 676 512 676 512 694.5 536.5 c 128,-1,41
 713 561 713 561 728.5 588 c 128,-1,42
 744 615 744 615 759 641 c 1,43,-1
 759 650 l 1,19,20
795 493 m 1,44,45
 768 443 768 443 732 397.5 c 128,-1,46
 696 352 696 352 652.5 317.5 c 128,-1,47
 609 283 609 283 558 262 c 128,-1,48
 507 241 507 241 448 241 c 0,49,50
 387 241 387 241 343.5 267 c 128,-1,51
 300 293 300 293 272.5 335.5 c 128,-1,52
 245 378 245 378 232 432.5 c 128,-1,53
 219 487 219 487 219 544 c 0,54,55
 219 584 219 584 223.5 632.5 c 128,-1,56
 228 681 228 681 239.5 729.5 c 128,-1,57
 251 778 251 778 271 823.5 c 128,-1,58
 291 869 291 869 320.5 904 c 128,-1,59
 350 939 350 939 391.5 960 c 128,-1,60
 433 981 433 981 488 981 c 0,61,62
 552 981 552 981 601 958 c 128,-1,63
 650 935 650 935 688 897 c 128,-1,64
 726 859 726 859 754 810.5 c 128,-1,65
 782 762 782 762 803 711 c 1,66,67
 831 762 831 762 867.5 811.5 c 128,-1,68
 904 861 904 861 949 899.5 c 128,-1,69
 994 938 994 938 1047.5 961.5 c 128,-1,70
 1101 985 1101 985 1163 985 c 0,71,72
 1223 985 1223 985 1266.5 958.5 c 128,-1,73
 1310 932 1310 932 1337.5 889.5 c 128,-1,74
 1365 847 1365 847 1378 792 c 128,-1,75
 1391 737 1391 737 1391 680 c 0,76,77
 1391 639 1391 639 1386 591 c 128,-1,78
 1381 543 1381 543 1369.5 494.5 c 128,-1,79
 1358 446 1358 446 1338 401 c 128,-1,80
 1318 356 1318 356 1288 321.5 c 128,-1,81
 1258 287 1258 287 1216.5 266 c 128,-1,82
 1175 245 1175 245 1121 245 c 0,83,84
 1021 245 1021 245 943 303 c 1,85,86
 898 341 898 341 868 390.5 c 128,-1,87
 838 440 838 440 812 493 c 1,88,-1
 802 493 l 1,89,-1
 795 493 l 1,44,45
EndSplineSet
Validated: 1
EndChar

StartChar: plusminus
Encoding: 177 177 147
Width: 1419
Flags: W
LayerCount: 2
Fore
SplineSet
882 1248 m 1,0,1
 871 1154 871 1154 861.5 1061.5 c 128,-1,2
 852 969 852 969 843 875 c 1,3,4
 975 876 975 876 1106 878 c 128,-1,5
 1237 880 1237 880 1370 885 c 1,6,7
 1366 847 1366 847 1361 810.5 c 128,-1,8
 1356 774 1356 774 1353 736 c 1,9,10
 1222 734 1222 734 1092 733 c 128,-1,11
 962 732 962 732 831 732 c 1,12,13
 823 638 823 638 815 546.5 c 128,-1,14
 807 455 807 455 799 361 c 1,15,-1
 658 361 l 1,16,17
 667 455 667 455 675.5 546.5 c 128,-1,18
 684 638 684 638 692 732 c 1,19,20
 561 732 561 732 431 733 c 128,-1,21
 301 734 301 734 170 737 c 1,22,23
 176 813 176 813 179 886 c 1,24,25
 310 880 310 880 441 878 c 128,-1,26
 572 876 572 876 704 875 c 1,27,28
 712 969 712 969 719 1061.5 c 128,-1,29
 726 1154 726 1154 734 1248 c 1,30,-1
 882 1248 l 1,0,1
102 181 m 1,31,32
 258 189 258 189 412 194 c 128,-1,33
 566 199 566 199 721 199 c 0,34,35
 1023 199 1023 199 1323 181 c 1,36,37
 1324 138 1324 138 1325.5 95.5 c 128,-1,38
 1327 53 1327 53 1330 10 c 1,39,40
 1019 34 1019 34 706 34 c 0,41,42
 387 34 387 34 68 10 c 1,43,44
 78 53 78 53 86.5 95.5 c 128,-1,45
 95 138 95 138 102 181 c 1,31,32
EndSplineSet
Validated: 1
EndChar

StartChar: lessequal
Encoding: 8804 8804 148
Width: 1556
Flags: W
LayerCount: 2
Fore
SplineSet
1373 1022 m 1,0,1
 1130 940 1130 940 887.5 871 c 128,-1,2
 645 802 645 802 399 734 c 1,3,4
 627 664 627 664 852.5 597.5 c 128,-1,5
 1078 531 1078 531 1304 457 c 1,6,7
 1302 418 1302 418 1300 379 c 128,-1,8
 1298 340 1298 340 1298 301 c 1,9,10
 1155 350 1155 350 1010 395 c 128,-1,11
 865 440 865 440 719.5 483.5 c 128,-1,12
 574 527 574 527 429 571 c 128,-1,13
 284 615 284 615 140 663 c 1,14,15
 142 701 142 701 144 739.5 c 128,-1,16
 146 778 146 778 148 816 c 1,17,18
 464 899 464 899 780.5 985 c 128,-1,19
 1097 1071 1097 1071 1408 1178 c 1,20,21
 1397 1139 1397 1139 1389 1100 c 128,-1,22
 1381 1061 1381 1061 1373 1022 c 1,0,1
76 161 m 1,23,24
 234 169 234 169 389 173 c 128,-1,25
 544 177 544 177 702 177 c 0,26,27
 852 177 852 177 1000.5 173 c 128,-1,28
 1149 169 1149 169 1298 161 c 1,29,30
 1298 123 1298 123 1300.5 85.5 c 128,-1,31
 1303 48 1303 48 1305 10 c 1,32,33
 1150 21 1150 21 996.5 26.5 c 128,-1,34
 843 32 843 32 687 32 c 0,35,36
 526 32 526 32 365.5 26.5 c 128,-1,37
 205 21 205 21 43 10 c 1,38,39
 62 87 62 87 76 161 c 1,23,24
EndSplineSet
Validated: 1
EndChar

StartChar: greaterequal
Encoding: 8805 8805 149
Width: 1559
Flags: W
LayerCount: 2
Fore
SplineSet
341 1023 m 1,0,1
 340 1062 340 1062 339 1100.5 c 128,-1,2
 338 1139 338 1139 336 1178 c 1,3,4
 481 1124 481 1124 629.5 1076.5 c 128,-1,5
 778 1029 778 1029 928 985 c 128,-1,6
 1078 941 1078 941 1228.5 899.5 c 128,-1,7
 1379 858 1379 858 1529 815 c 1,8,9
 1524 777 1524 777 1519.5 738.5 c 128,-1,10
 1515 700 1515 700 1510 662 c 1,11,12
 1205 570 1205 570 899 484 c 128,-1,13
 593 398 593 398 289 301 c 1,14,15
 295 340 295 340 300 379 c 128,-1,16
 305 418 305 418 309 457 c 1,17,18
 548 531 548 531 785.5 597 c 128,-1,19
 1023 663 1023 663 1263 734 c 1,20,21
 1031 802 1031 802 799 870.5 c 128,-1,22
 567 939 567 939 341 1023 c 1,0,1
1488 161 m 1,23,24
 1488 123 1488 123 1490.5 85.5 c 128,-1,25
 1493 48 1493 48 1495 10 c 1,26,27
 1340 21 1340 21 1186.5 26.5 c 128,-1,28
 1033 32 1033 32 877 32 c 0,29,30
 716 32 716 32 555.5 26.5 c 128,-1,31
 395 21 395 21 233 10 c 1,32,33
 252 87 252 87 266 161 c 1,34,35
 424 169 424 169 579 173 c 128,-1,36
 734 177 734 177 892 177 c 0,37,38
 1042 177 1042 177 1190.5 173 c 128,-1,39
 1339 169 1339 169 1488 161 c 1,23,24
EndSplineSet
Validated: 1
EndChar

